<?xml version="1.0" encoding="UTF-8"?>
<svg version="1.1" xmlns="http://www.w3.org/2000/svg" width="1297" height="283">
<path d="M0 0 C8.87462817 7.35903702 14.89238973 16.24859111 16.19140625 27.88671875 C16.53201209 38.26384347 14.70379148 46.43869651 7.93359375 54.45703125 C2.6766375 59.89378568 -3.20794294 64.44323418 -9.23632812 68.97998047 C-11.24884452 70.50042555 -13.24492828 72.04047019 -15.23828125 73.5859375 C-31.5323082 86.19614572 -48.30007282 98.09127253 -65.44140625 109.51953125 C-66.28970001 110.08530884 -67.13799377 110.65108643 -68.01199341 111.23400879 C-121.67724343 146.93140251 -121.67724343 146.93140251 -150.109375 141.9453125 C-158.55553146 139.44681023 -164.14473032 133.52110769 -170.19140625 127.45703125 C-170.85011719 126.85761719 -171.50882813 126.25820312 -172.1875 125.640625 C-184.35435211 114.42913772 -195.1232923 95.4734519 -199.19140625 79.45703125 C-199.19140625 78.13703125 -199.19140625 76.81703125 -199.19140625 75.45703125 C-198.32515625 75.78703125 -197.45890625 76.11703125 -196.56640625 76.45703125 C-177.97874827 81.50278272 -160.14652995 72.04741489 -144.19140625 63.45703125 C-142.58723958 62.61197917 -140.98307292 61.76692708 -139.37890625 60.921875 C-123.37857169 52.39852119 -108.69710862 42.406086 -94.16040039 31.60717773 C-26.47689791 -18.6423791 -26.47689791 -18.6423791 0 0 Z " fill="#000000" transform="translate(231.19140625,93.54296875)"/>
<path d="M0 0 C3.75168214 3.11339974 5.96751894 5.90891012 7.8125 10.4375 C7.875 13.125 7.875 13.125 6.8125 15.4375 C2.25877352 20.0870944 -3.54563681 21.45564114 -9.5625 23.4375 C-28.41214733 29.94264356 -45.59168726 39.46852584 -62.1875 50.4375 C-63.2695874 51.1505127 -63.2695874 51.1505127 -64.37353516 51.87792969 C-71.96570707 56.8921446 -79.52297613 61.95881298 -87.06054688 67.0546875 C-142.63524928 104.62087555 -142.63524928 104.62087555 -162.1875 102.4375 C-166.19624748 99.68639879 -167.69595292 96.97000299 -169.1875 92.4375 C-170.76975585 75.38201487 -166.49758164 55.50697819 -158.1875 40.4375 C-157.5275 40.4375 -156.8675 40.4375 -156.1875 40.4375 C-155.8575 41.7575 -155.5275 43.0775 -155.1875 44.4375 C-149.07468996 41.31317487 -144.09005507 37.21715129 -138.84179688 32.81933594 C-97.08077427 -2.06369062 -52.26064999 -37.83806801 0 0 Z " fill="#000000" transform="translate(198.1875,48.5625)"/>
<path d="M0 0 C0.65500488 0.16097168 1.31000977 0.32194336 1.98486328 0.48779297 C25.35003838 6.46252824 46.03041349 19.03041349 63 36 C63.46744629 36.46486816 63.93489258 36.92973633 64.41650391 37.40869141 C89.18356934 62.31244985 101.97824623 96.41505654 102.3125 131.25 C102.28204412 141.77367761 101.40372504 151.75647035 99 162 C98.8443457 162.68400879 98.68869141 163.36801758 98.52832031 164.07275391 C94.34589786 181.78335118 86.14767455 198.64761477 75 213 C74.25878906 213.96164063 73.51757812 214.92328125 72.75390625 215.9140625 C50.12812658 244.38254784 17.97999673 261.48565584 -18 266 C-35.13776621 266.88420727 -52.47782325 267.08672452 -69 262 C-69.71607422 261.78569336 -70.43214844 261.57138672 -71.16992188 261.35058594 C-106.64272707 250.48090834 -135.8208809 226.47051561 -153.32421875 193.76953125 C-169.02288372 162.87438391 -172.96428108 125.70022443 -162.625 92.5 C-156.84308975 74.96211466 -148.9436965 59.10118173 -137 45 C-136.35224609 44.23260498 -136.35224609 44.23260498 -135.69140625 43.44970703 C-102.88892631 5.08686606 -49.22518166 -12.36461909 0 0 Z M-112 37 C-113.19689453 37.96873047 -113.19689453 37.96873047 -114.41796875 38.95703125 C-120.40532927 44.01691768 -125.22676841 49.80332256 -130 56 C-130.680625 56.86496094 -131.36125 57.72992188 -132.0625 58.62109375 C-151.55680816 84.24544803 -158.94139661 116.71083083 -155.05004883 148.45336914 C-150.55997188 180.41766792 -133.2902361 210.16163786 -107.63671875 229.79785156 C-94.12916464 239.71897275 -79.14929994 246.75752234 -63 251 C-61.22496094 251.48146484 -61.22496094 251.48146484 -59.4140625 251.97265625 C-39.82355419 256.46301796 -18.27435463 255.46686216 1 250 C1.73750488 249.79101074 2.47500977 249.58202148 3.23486328 249.36669922 C33.66911835 240.37583166 59.79306848 218.71608072 74.92944336 190.95117188 C75.97277048 188.97688687 76.99265065 186.99285503 78 185 C78.56589844 183.88238281 79.13179687 182.76476562 79.71484375 181.61328125 C93.6670277 151.61431068 92.96587476 117.66674412 81.953125 86.99609375 C75.9982079 71.27307572 66.50969358 58.16409087 55 46 C54.22914063 45.1646875 53.45828125 44.329375 52.6640625 43.46875 C37.66000023 27.73633519 17.78077757 17.7234182 -3 12 C-4.83498047 11.48953125 -4.83498047 11.48953125 -6.70703125 10.96875 C-43.59100066 2.48425863 -83.1041145 13.15554337 -112 37 Z " fill="#000000" transform="translate(171,10)"/>
<path d="M0 0 C10.43407581 10.90040323 13.39541167 23.51919258 13.16015625 38.22265625 C12.21505578 52.51730079 6.42760115 64.32250626 -4.08984375 74.00390625 C-16.58890749 83.3242442 -30.87764044 85.23848178 -46.08984375 84.00390625 C-60.23633919 81.29531607 -70.99302918 74.58559987 -79.2265625 62.86328125 C-87.2167634 50.6015893 -88.07497533 37.21860756 -86.08984375 23.00390625 C-83.09663767 10.64336095 -76.36688552 0.47543374 -66.08984375 -6.99609375 C-44.54874315 -19.12775755 -18.1164067 -17.30370808 0 0 Z M-56.265625 10.9921875 C-63.13781202 18.57072351 -65.49215282 27.85521923 -65.359375 37.77734375 C-64.559579 47.35171324 -60.32143418 54.76843829 -53.08984375 61.00390625 C-46.20653626 65.91108115 -38.25983795 65.94841425 -30.08984375 65.00390625 C-26.78130574 64.07352827 -24.01165627 62.79953835 -21.08984375 61.00390625 C-20.18234375 60.44703125 -19.27484375 59.89015625 -18.33984375 59.31640625 C-11.83219381 52.62798826 -8.81124058 43.96944354 -8.71484375 34.75390625 C-8.85698602 25.69233648 -10.95975425 18.23251618 -17.2734375 11.5390625 C-28.7721581 1.82078896 -44.53616345 1.54675903 -56.265625 10.9921875 Z " fill="#000000" transform="translate(392.08984375,101.99609375)"/>
<path d="M0 0 C8.91 0 17.82 0 27 0 C35.59907911 21.95407348 44.15738111 43.92386394 52.64318848 65.92199707 C53.54884512 68.26855629 54.45566787 70.61466579 55.36364746 72.96032715 C56.64154448 76.26266178 57.91510368 79.56663648 59.1875 82.87109375 C59.57423889 83.8681987 59.96097778 84.86530365 60.35943604 85.8926239 C60.70875183 86.80260635 61.05806763 87.71258881 61.41796875 88.65014648 C61.72500732 89.44581528 62.0320459 90.24148407 62.34838867 91.06126404 C63 93 63 93 63 95 C55.41 95 47.82 95 40 95 C38.02 90.05 36.04 85.1 34 80 C13.705 79.505 13.705 79.505 -7 79 C-7.99 82.3 -8.98 85.6 -10 89 C-10.99 90.98 -11.98 92.96 -13 95 C-20.59 95 -28.18 95 -36 95 C-32.62496446 84.87489338 -32.62496446 84.87489338 -31.24511719 81.28271484 C-30.93287201 80.46696487 -30.62062683 79.6512149 -30.29891968 78.81074524 C-29.96824493 77.95280869 -29.63757019 77.09487213 -29.296875 76.2109375 C-28.94178864 75.28496262 -28.58670227 74.35898773 -28.22085571 73.404953 C-27.06578661 70.39424199 -25.90793049 67.38461154 -24.75 64.375 C-23.94856656 62.28774196 -23.14729883 60.20042029 -22.34619141 58.11303711 C-20.30086412 52.78525352 -18.25311652 47.45840415 -16.20446777 42.13189697 C-15.03206184 39.08336825 -13.86016428 36.03464467 -12.68847656 32.98583984 C-8.46234065 21.9892664 -4.23278912 10.99401422 0 0 Z M13 20 C11.00214106 25.51612497 9.00841671 31.03371958 7.01855469 36.55273438 C6.34066147 38.43107705 5.66162862 40.30900883 4.98144531 42.18652344 C4.00548105 44.88109532 3.03358871 47.57710532 2.0625 50.2734375 C1.75626709 51.11619232 1.45003418 51.95894714 1.13452148 52.82723999 C0.85423096 53.60789825 0.57394043 54.38855652 0.28515625 55.19287109 C0.03644775 55.88126068 -0.21226074 56.56965027 -0.46850586 57.27890015 C-1.09835397 59.01827655 -1.09835397 59.01827655 -1 61 C8.57 61 18.14 61 28 61 C27.17136044 55.86757014 27.17136044 55.86757014 25.69311523 51.10595703 C25.43292099 50.4056839 25.17272675 49.70541077 24.90464783 48.98391724 C24.62544998 48.24930267 24.34625214 47.51468811 24.05859375 46.7578125 C23.77146011 45.98944061 23.48432648 45.22106873 23.18849182 44.42941284 C22.27657649 41.99266693 21.35716611 39.55882981 20.4375 37.125 C19.81525689 35.46633269 19.19350681 33.80748033 18.57226562 32.1484375 C17.05387506 28.09679432 15.52875941 24.04774159 14 20 C13.67 20 13.34 20 13 20 Z " fill="#000000" transform="translate(840,89)"/>
<path d="M0 0 C2.5 2.25 2.5 2.25 4 4 C4.33 1.69 4.66 -0.62 5 -3 C11.27 -3 17.54 -3 24 -3 C24.04535438 5.69338774 24.08197538 14.38669567 24.10362434 23.0801754 C24.11401967 27.11778569 24.12810029 31.15531017 24.15087891 35.19287109 C24.17276009 39.09620623 24.18460052 42.99945932 24.18975449 46.9028511 C24.19342303 48.38503942 24.20058601 49.86722372 24.21146011 51.34937668 C24.30216554 64.23620101 24.04245074 74.83943504 15.3515625 84.91015625 C7.24931898 92.96111975 -3.08551328 94.3761917 -14.0625 94.5 C-25.79283546 94.37844779 -35.06684179 91.88219842 -44 84 C-43.043419 82.22821947 -42.08467012 80.45760924 -41.125 78.6875 C-40.59132813 77.70136719 -40.05765625 76.71523437 -39.5078125 75.69921875 C-38 73 -38 73 -36 70 C-33.51165057 71.19440773 -31.30796196 72.46135869 -29 74 C-22.75161889 77.56667248 -15.11131039 78.69297456 -8.0625 77.375 C-3.66160073 76.1312676 -0.32844103 74.19978406 2.08984375 70.1953125 C3.14169048 67.65824014 3.40922587 65.48313898 3.625 62.75 C3.69976563 61.85796875 3.77453125 60.9659375 3.8515625 60.046875 C3.90054688 59.37140625 3.94953125 58.6959375 4 58 C3.40832031 58.40992188 2.81664062 58.81984375 2.20703125 59.2421875 C1.41683594 59.78101563 0.62664063 60.31984375 -0.1875 60.875 C-0.96480469 61.40867187 -1.74210938 61.94234375 -2.54296875 62.4921875 C-9.19843052 66.57646134 -15.33340727 66.72208606 -23 66 C-31.02540544 63.9717213 -37.32066207 60.09497991 -41.6875 52.9375 C-47.66912967 41.3215611 -48.70439473 28.47081578 -45 16 C-41.82873192 7.43629228 -36.81914053 1.06154578 -28.4375 -2.875 C-18.60489827 -6.09294238 -8.75827524 -5.79176266 0 0 Z M-21.86328125 16.625 C-26.62861214 21.9021206 -27.36395734 26.38899039 -27.28125 33.3984375 C-26.69046472 38.86320137 -24.3699807 42.69684763 -20.4375 46.4375 C-15.79416513 49.41399671 -11.36153135 49.63229691 -6 49 C-1.10721546 47.36907182 2.18532148 45.3810664 5 41 C5.67829153 37.56601164 5.60106739 34.11916117 5.625 30.625 C5.67011719 29.69171875 5.71523438 28.7584375 5.76171875 27.796875 C5.83222703 22.58697347 5.83222703 22.58697347 3.55126953 18.05395508 C-3.92954473 11.38233935 -13.85924135 9.64453753 -21.86328125 16.625 Z " fill="#000000" transform="translate(953,118)"/>
<path d="M0 0 C7.3416685 6.2004765 11.3308818 13.62841352 12.20263672 23.23242188 C12.96532722 36.6188616 12.01441574 48.40552936 3 59 C-4.43510206 65.93052427 -11.46865291 67.46208555 -21.51171875 67.32421875 C-28.25157573 66.69778187 -32.67000992 63.99749256 -38 60 C-38.33 70.56 -38.66 81.12 -39 92 C-45.27 92 -51.54 92 -58 92 C-58 60.32 -58 28.64 -58 -4 C-51.73 -4 -45.46 -4 -39 -4 C-38.67 -2.02 -38.34 -0.04 -38 2 C-36.9790625 1.1028125 -36.9790625 1.1028125 -35.9375 0.1875 C-24.86367772 -8.0589634 -11.22078161 -7.75964499 0 0 Z M-34 14 C-35.33611328 14.66128906 -35.33611328 14.66128906 -36.69921875 15.3359375 C-40.52671571 19.76777609 -39.76121777 24.78687288 -39.6875 30.4375 C-39.71521484 31.56994141 -39.74292969 32.70238281 -39.77148438 33.86914062 C-39.90576964 39.67601861 -39.90576964 39.67601861 -37.69921875 44.8527832 C-32.93629777 48.88827891 -28.19472195 50.44454469 -21.984375 50.24609375 C-17.42081033 49.68013986 -14.61543337 47.54549776 -11.25 44.5625 C-7.44412694 39.62348674 -6.6483815 32.69199429 -7.2265625 26.62109375 C-8.52495934 20.82232142 -10.36907621 17.12910108 -15.25 13.75 C-21.89991641 10.33442448 -27.51352246 10.4769524 -34 14 Z " fill="#000000" transform="translate(476,119)"/>
<path d="M0 0 C7.79513376 7.54367784 10.91771715 16.43155426 11.25390625 27.0703125 C10.95840045 38.43592034 8.19776543 46.45335379 0.1796875 54.62890625 C-8.92373268 62.8295079 -18.23330906 64.40389296 -30.203125 64.0703125 C-38.94466909 63.38402837 -47.00612878 60.09166899 -53.18359375 53.7578125 C-61.25092615 43.20331833 -63.50199166 32.8758717 -62.18359375 19.7578125 C-59.9021201 9.12821938 -54.12095849 1.169229 -45.08203125 -4.76171875 C-30.3649834 -12.27891705 -12.7755166 -10.27203153 0 0 Z M-37.05859375 12.4140625 C-42.12392422 18.16126438 -42.53221132 22.89111477 -42.46484375 30.453125 C-41.95768429 36.41224863 -39.90663447 40.11882254 -35.62109375 44.1953125 C-30.98280304 47.16857578 -26.54045754 47.39065331 -21.18359375 46.7578125 C-15.86101795 44.942119 -12.87304996 41.6195218 -10.18359375 36.7578125 C-8.26436019 31.00011182 -8.0013147 24.00907989 -10.08984375 18.265625 C-13.20446112 12.97476857 -17.12188374 9.7783825 -22.99609375 7.8203125 C-28.29666418 7.71637975 -33.01653464 8.84357695 -37.05859375 12.4140625 Z " fill="#000000" transform="translate(626.18359375,122.2421875)"/>
<path d="M0 0 C6.6 0 13.2 0 20 0 C24.03540858 9.49331741 27.71650747 19.08393731 31.3125 28.75 C31.86763103 30.23705665 32.42296833 31.72403631 32.97851562 33.2109375 C34.32138278 36.80641129 35.66147948 40.40290591 37 44 C38.63951701 41.54072448 39.58569616 39.71609607 40.58813477 37.00341797 C40.88506729 36.20604218 41.18199982 35.40866638 41.4879303 34.58712769 C41.80257736 33.73079742 42.11722443 32.87446716 42.44140625 31.9921875 C42.76914536 31.11096222 43.09688446 30.22973694 43.43455505 29.32180786 C44.48086697 26.50754876 45.52211621 23.69145553 46.5625 20.875 C47.60684423 18.05155361 48.65231371 15.22854731 49.70115662 12.4067688 C50.35383965 10.6505177 51.0038578 8.8932736 51.65101624 7.13497925 C51.9447966 6.34390778 52.23857697 5.5528363 52.54125977 4.73779297 C52.79948013 4.03846649 53.0577005 3.33914001 53.32374573 2.61862183 C54 1 54 1 55 0 C56.4887186 -0.08669432 57.981445 -0.10703494 59.47265625 -0.09765625 C60.37177734 -0.09443359 61.27089844 -0.09121094 62.19726562 -0.08789062 C63.61555664 -0.07532227 63.61555664 -0.07532227 65.0625 -0.0625 C66.4865918 -0.05573242 66.4865918 -0.05573242 67.93945312 -0.04882812 C70.29303065 -0.0370011 72.64648477 -0.02052025 75 0 C74.32345802 4.14722178 73.00761286 7.77557556 71.4375 11.66796875 C71.17428955 12.32409653 70.9110791 12.9802243 70.63989258 13.65623474 C69.76442272 15.83516398 68.88254708 18.01142852 68 20.1875 C67.37996927 21.72239694 66.76018273 23.25739254 66.140625 24.79248047 C65.15263019 27.23977437 64.16405045 29.68682292 63.17358398 32.13311768 C60.97346889 37.57085211 58.79751564 43.01766155 56.63720703 48.47132874 C55.13315817 52.26517331 53.62061823 56.0556028 52.10693359 59.84561157 C51.37461624 61.68437985 50.6457185 63.52451408 49.92041016 65.36605835 C40.0603743 90.37736005 40.0603743 90.37736005 31 95 C25.92198079 96.72157237 21.53976457 97.24619881 16.1875 97.1875 C14.88167969 97.18105469 13.57585937 97.17460937 12.23046875 97.16796875 C9 97 9 97 7 96 C7.99 90.39 8.98 84.78 10 79 C14.15039062 79.04882812 14.15039062 79.04882812 18.30078125 79.09765625 C21.09963849 79.12329862 21.09963849 79.12329862 24 78 C26.70826937 72.31263433 25.87142121 67.62403712 23.9306488 61.779953 C23.4887471 60.68234146 23.0468454 59.58472992 22.59155273 58.45385742 C22.34756744 57.84157288 22.10358215 57.22928833 21.85220337 56.59844971 C21.05308439 54.59786725 20.24332104 52.60177806 19.43359375 50.60546875 C18.87374397 49.20809849 18.31467919 47.81041349 17.75636292 46.41242981 C16.29156799 42.74946425 14.81816518 39.09002961 13.34228516 35.43151855 C10.9746556 29.55940116 8.61842862 23.68271653 6.26561165 17.80465126 C5.44244067 15.75252372 4.6144978 13.70236946 3.78599548 11.65238953 C3.28353614 10.40137459 2.7812143 9.15030442 2.27905273 7.89916992 C1.83794662 6.80553635 1.39684052 5.71190277 0.94236755 4.58512878 C0 2 0 2 0 0 Z " fill="#000000" transform="translate(1215,115)"/>
<path d="M0 0 C7.54235602 7.79429276 8.38836284 17.35300715 8.2265625 27.78515625 C8.22231766 28.83641693 8.21807281 29.88767761 8.21369934 30.97079468 C8.19705514 34.29200058 8.15942989 37.61257469 8.12109375 40.93359375 C8.10602848 43.200512 8.09234332 45.46743987 8.08007812 47.734375 C8.04719841 53.2593539 7.99551591 58.78386712 7.93359375 64.30859375 C1.66359375 64.30859375 -4.60640625 64.30859375 -11.06640625 64.30859375 C-11.39640625 62.98859375 -11.72640625 61.66859375 -12.06640625 60.30859375 C-12.6696875 60.65792969 -13.27296875 61.00726563 -13.89453125 61.3671875 C-14.69375 61.82222656 -15.49296875 62.27726562 -16.31640625 62.74609375 C-17.1053125 63.19855469 -17.89421875 63.65101563 -18.70703125 64.1171875 C-25.23538321 67.41378907 -33.3806465 67.21501941 -40.44921875 65.84765625 C-46.34802389 63.88138787 -51.29546304 60.42733445 -54.390625 54.9765625 C-57.37945255 48.14945115 -58.25128348 42.38253155 -55.87890625 35.18359375 C-53.37544731 29.32687788 -50.44694045 25.66341594 -44.69140625 22.93359375 C-35.21990432 19.56909008 -25.0229209 20.12223034 -15.921875 24.23828125 C-14.06640625 25.30859375 -14.06640625 25.30859375 -12.06640625 27.30859375 C-11.69016351 22.60555955 -11.64299748 19.20426615 -13.69140625 14.87109375 C-17.37845038 10.89296719 -20.47602634 10.4703273 -25.75390625 9.93359375 C-32.87963091 10.11208011 -39.47932922 13.0697027 -45.06640625 17.30859375 C-45.72640625 17.30859375 -46.38640625 17.30859375 -47.06640625 17.30859375 C-48.12739953 15.57024318 -49.16467108 13.81739571 -50.19140625 12.05859375 C-50.77148438 11.0840625 -51.3515625 10.10953125 -51.94921875 9.10546875 C-53.06640625 6.30859375 -53.06640625 6.30859375 -52.46484375 4.109375 C-47.0351536 -2.88248858 -37.48779342 -4.82162517 -29.25390625 -6.44140625 C-19.20519946 -7.39552588 -8.05833963 -6.59595663 0 0 Z M-37.06640625 39.30859375 C-38.2547617 42.59942422 -38.14213466 44.08586314 -37.00390625 47.43359375 C-34.63463713 50.94928341 -33.06952668 51.94904342 -29.06640625 53.30859375 C-22.26275907 53.95656015 -17.97585116 52.70470515 -12.12890625 49.12109375 C-10.6527037 46.60286587 -10.34456028 44.20924017 -10.47265625 41.31640625 C-11.24004706 38.72141365 -12.19021236 37.87835372 -14.37890625 36.30859375 C-22.31590675 32.12825185 -30.75347519 32.99566269 -37.06640625 39.30859375 Z " fill="#000000" transform="translate(753.06640625,119.69140625)"/>
<path d="M0 0 C7.05368629 6.66816092 10.92924294 16.41978393 11.75 26 C11.75 28.97 11.75 31.94 11.75 35 C-5.08 35 -21.91 35 -39.25 35 C-35.03480273 43.72448324 -35.03480273 43.72448324 -27.4375 48.25 C-17.74954581 50.52951863 -9.86255131 47.46725792 -1.25 43 C0.11656457 44.76128344 1.46794085 46.53436088 2.8125 48.3125 C3.56660156 49.29863281 4.32070312 50.28476563 5.09765625 51.30078125 C5.64292969 52.19152344 6.18820312 53.08226562 6.75 54 C5.35492565 58.18522305 3.11326044 58.82621017 -0.68359375 60.79296875 C-11.70089257 65.97462071 -24.78328463 67.27802799 -36.4375 63.25 C-45.21703091 59.4287885 -52.58123732 53.82953189 -56.6484375 44.9453125 C-60.74854266 32.81946957 -60.33824131 21.77693834 -55.25 10 C-50.57213917 1.71137656 -43.71789846 -2.7485124 -35.0625 -6.3125 C-22.61683408 -9.35477389 -10.31318171 -8.02353796 0 0 Z M-35.25 12 C-37.67581148 15.1672316 -39.25 17.91493118 -39.25 22 C-28.69 22 -18.13 22 -7.25 22 C-8.2771892 15.83686481 -9.00433819 14.24566181 -13.25 10 C-20.21456468 5.62227363 -29.09134681 7.19625052 -35.25 12 Z " fill="#000000" transform="translate(1048.25,121)"/>
<path d="M0 0 C5.87433452 7.14446091 5.72566089 14.55791998 5.60546875 23.40625 C5.60122391 24.59351685 5.59697906 25.78078369 5.59260559 27.00402832 C5.57589339 30.7737554 5.53825381 34.54293612 5.5 38.3125 C5.48494358 40.87759641 5.47125685 43.44270126 5.45898438 46.0078125 C5.4260141 52.27625026 5.37428237 58.54428268 5.3125 64.8125 C-0.9575 64.8125 -7.2275 64.8125 -13.6875 64.8125 C-13.70208252 63.44520752 -13.71666504 62.07791504 -13.73168945 60.66918945 C-13.78971463 55.59047452 -13.86694785 50.51220097 -13.94995117 45.43383789 C-13.98318055 43.23697073 -14.01121866 41.0400186 -14.03393555 38.84301758 C-14.06751754 35.68273757 -14.11983634 32.52323479 -14.17578125 29.36328125 C-14.18217117 28.38289383 -14.1885611 27.40250641 -14.19514465 26.39241028 C-14.33674139 19.61233398 -14.33674139 19.61233398 -17.6875 13.8125 C-21.32694137 11.88315759 -25.16044396 11.49316281 -29.171875 12.33203125 C-31.39416999 13.06916504 -33.53252865 13.89944989 -35.6875 14.8125 C-36.6775 15.1425 -37.6675 15.4725 -38.6875 15.8125 C-39.62539698 18.62619094 -39.83681982 20.455605 -39.89282227 23.37573242 C-39.91276749 24.29646042 -39.93271271 25.21718842 -39.95326233 26.16581726 C-39.97833107 27.65188225 -39.97833107 27.65188225 -40.00390625 29.16796875 C-40.02468735 30.18474197 -40.04546844 31.2015152 -40.06687927 32.24909973 C-40.13230048 35.49933063 -40.19122537 38.74964277 -40.25 42 C-40.29319227 44.20248238 -40.33680679 46.40495653 -40.38085938 48.60742188 C-40.48797432 54.00903117 -40.58926289 59.41072225 -40.6875 64.8125 C-46.9575 64.8125 -53.2275 64.8125 -59.6875 64.8125 C-59.6875 42.0425 -59.6875 19.2725 -59.6875 -4.1875 C-53.4175 -4.1875 -47.1475 -4.1875 -40.6875 -4.1875 C-40.3575 -2.2075 -40.0275 -0.2275 -39.6875 1.8125 C-39.08164063 1.40257813 -38.47578125 0.99265625 -37.8515625 0.5703125 C-25.95473575 -7.08026224 -11.68063539 -9.50749392 0 0 Z " fill="#000000" transform="translate(1131.6875,119.1875)"/>
<path d="M0 0 C2.13962361 7.86874734 -2.32054427 15.06734561 -6.0625 21.875 C-10.31019059 28.88778254 -15.5023578 34.95198878 -21 41 C-21.73089844 41.8146875 -22.46179688 42.629375 -23.21484375 43.46875 C-41.98028716 63.31748717 -68.67290467 74.13691619 -95.71875 75.21875 C-106.79995647 75.49645029 -117.18183445 74.35421219 -128 72 C-128 71.01 -128 70.02 -128 69 C-126.9790625 68.88785156 -126.9790625 68.88785156 -125.9375 68.7734375 C-98.28674023 65.02293551 -75.00063705 46.91847272 -53 31 C-51.58476924 29.97898115 -50.16939858 28.95815619 -48.75390625 27.9375 C-48.01760986 27.40616455 -47.28131348 26.8748291 -46.52270508 26.32739258 C-45.00597495 25.23298112 -43.48888419 24.13906929 -41.97143555 23.0456543 C-38.0325338 20.20407479 -34.10764467 17.34570864 -30.203125 14.45703125 C-7.44781927 -2.31139219 -7.44781927 -2.31139219 0 0 Z " fill="#000000" transform="translate(239,177)"/>
<path d="M0 0 C1 1.8359375 1 1.8359375 1 4 C-0.21484375 6.796875 -0.21484375 6.796875 -1.9375 9.75 C-2.50339844 10.73484375 -3.06929687 11.7196875 -3.65234375 12.734375 C-4.09707031 13.48203125 -4.54179688 14.2296875 -5 15 C-5.5671875 14.71253906 -6.134375 14.42507812 -6.71875 14.12890625 C-8.9612284 13.01918663 -11.21869335 11.96486926 -13.5 10.9375 C-14.2528125 10.59589844 -15.005625 10.25429687 -15.78125 9.90234375 C-21.42620132 7.6065977 -27.18900755 7.06300252 -33 9 C-33.66 9.33 -34.32 9.66 -35 10 C-35.41780879 12.37305578 -35.41780879 12.37305578 -35 15 C-31.01043279 18.08143615 -26.64570201 18.90483561 -21.8125 19.875 C-12.7427073 21.8613195 -3.95614525 24.36868889 2 32 C4.65353136 37.55978 4.92723124 43.44365741 3.3828125 49.3671875 C0.74150962 56.30937295 -3.55815651 59.86403155 -10.14453125 63.03125 C-22.03809759 67.40775823 -36.59472137 66.07927388 -48 61 C-51.16485019 59.19025303 -54.11944414 57.23298904 -57 55 C-56.34097701 51.42959697 -54.83770842 48.82267745 -52.9375 45.75 C-52.38964844 44.85796875 -51.84179688 43.9659375 -51.27734375 43.046875 C-50.64505859 42.03367187 -50.64505859 42.03367187 -50 41 C-46.51526757 42.34268364 -43.19804045 43.86033096 -39.875 45.5625 C-34.91473957 48.10293733 -31.17178448 49.19152792 -25.5625 49.3125 C-23.86287109 49.36857422 -23.86287109 49.36857422 -22.12890625 49.42578125 C-18.92584665 49.23795274 -18.92584665 49.23795274 -16.52734375 47.23046875 C-14.80814465 45.15820166 -14.80814465 45.15820166 -14.9609375 42.875 C-16.42078386 40.24069078 -17.78472998 39.9383783 -20.625 39 C-21.61371094 38.66871094 -22.60242188 38.33742187 -23.62109375 37.99609375 C-26.64303959 37.1052311 -29.67556163 36.31099004 -32.73266602 35.55102539 C-41.55109078 33.34724521 -48.89861536 30.95816004 -54 23 C-55.76168258 17.2507251 -55.92459467 11.35000565 -53.4375 5.8125 C-49.92989071 -0.3658153 -44.89036957 -4.06173411 -38.28515625 -6.45703125 C-25.61437836 -9.46769471 -10.63668953 -8.04002934 0 0 Z " fill="#000000" transform="translate(552,121)"/>
<path d="M0 0 C2.625 2.875 2.625 2.875 4 5 C0.12207712 9.92908146 -3.76116833 13.5423711 -9 17 C-9.804375 16.21625 -10.60875 15.4325 -11.4375 14.625 C-15.27636971 11.47099906 -19.04129171 10.19606095 -24 10 C-28.79650272 10.68632884 -32.65970249 12.16943473 -35.9375 15.8125 C-39.50741657 21.32964379 -40.81495187 26.42945054 -40 33 C-38.13827716 38.78113934 -35.43487885 42.9549149 -30.13671875 46.109375 C-26.17481163 47.76077321 -22.19889148 47.64937811 -18 47 C-15.71718659 45.88196681 -13.80442599 44.63743268 -11.7890625 43.09375 C-10 42 -10 42 -6 42 C-3.421875 44.1875 -3.421875 44.1875 -0.75 47 C0.14203125 47.928125 1.0340625 48.85625 1.953125 49.8125 C2.62859375 50.534375 3.3040625 51.25625 4 52 C-1.08820733 58.82890984 -7.4385547 63.47282327 -16 65 C-28.94455489 65.88028746 -39.64861761 64.67823533 -49.9921875 56.05859375 C-58.16931195 47.67465487 -60.43329962 38.18839247 -60.35913086 26.89648438 C-60.10010487 16.20597236 -56.99119686 8.89167324 -49.484375 1.1640625 C-36.0725732 -10.51854473 -13.83807492 -11.45702964 0 0 Z " fill="#000000" transform="translate(1210,121)"/>
<path d="M0 0 C7.40113549 3.87031856 13.14615538 9.06660273 15.70703125 17.23046875 C17.51236491 26.49334892 16.16796895 34.33082903 10.95703125 42.12109375 C6.50935667 47.89299507 1.19351143 50.93733666 -5.875 52.375 C-14.49404539 53.27644144 -22.4072644 51.2067302 -29.30859375 45.890625 C-35.34314148 40.05171098 -37.92993817 32.73901107 -38.25 24.5 C-38.09240131 16.01068369 -34.62268744 10.39638684 -28.875 4.375 C-20.30395051 -2.05328712 -10.2149824 -4.21236387 0 0 Z " fill="#FAFAFA" transform="translate(221.875,99.625)"/>
<path d="M0 0 C0 5.94 0 11.88 0 18 C-3.15755208 18.390625 -6.31510417 18.78125 -9.47265625 19.171875 C-13.50804161 20.11927444 -17.04012824 21.01773313 -20 24 C-21.05420877 27.46674923 -20.95443416 30.85180286 -20.90234375 34.453125 C-20.92078087 35.97616241 -20.92078087 35.97616241 -20.93959045 37.52996826 C-20.9713658 40.7707104 -20.9550296 44.00918588 -20.9375 47.25 C-20.95060608 49.44793785 -20.96684444 51.64585943 -20.98632812 53.84375 C-21.02722314 59.22965154 -21.02497609 64.61401732 -21 70 C-27.27 70 -33.54 70 -40 70 C-40 47.23 -40 24.46 -40 1 C-33.73 1 -27.46 1 -21 1 C-21 3.31 -21 5.62 -21 8 C-20.11248047 7.38511719 -20.11248047 7.38511719 -19.20703125 6.7578125 C-18.41683594 6.21898438 -17.62664063 5.68015625 -16.8125 5.125 C-15.64654297 4.32449219 -15.64654297 4.32449219 -14.45703125 3.5078125 C-9.11329999 0.2285116 -6.6493204 0 0 0 Z " fill="#000000" transform="translate(690,114)"/>
<path d="M0 0 C3.31024716 2.72175877 5.88852251 5.46454502 7.8125 9.3125 C8.21581428 14.55558569 7.67301133 17.87377553 4.8125 22.3125 C0.11309189 26.6594525 -3.66010923 27.68119352 -9.90234375 27.58984375 C-13.52494393 27.15017775 -15.51506608 25.73041641 -18.1875 23.3125 C-21.24689404 19.02934835 -21.82731431 14.93796944 -21.671875 9.78515625 C-20.8387742 5.53231103 -18.47797446 2.99972081 -15.1875 0.3125 C-10.18313364 -2.63879298 -5.1174852 -2.70925687 0 0 Z " fill="#050505" transform="translate(218.1875,111.6875)"/>
<path d="M0 0 C0 0.99 0 1.98 0 3 C-0.88300781 3.4846875 -1.76601562 3.969375 -2.67578125 4.46875 C-10.52989937 8.83276042 -17.86531158 13.51329632 -25 19 C-26.07670672 19.80744663 -27.15353519 20.61473094 -28.23046875 21.421875 C-36.40956446 27.62952701 -43.8977424 34.41885291 -51.30859375 41.51953125 C-61.27929525 51 -61.27929525 51 -64 51 C-63.50434475 46.36818711 -61.45104602 43.42344168 -58.625 39.875 C-58.17729248 39.3073291 -57.72958496 38.7396582 -57.26831055 38.15478516 C-45.17914706 23.11002601 -21.03171377 0 0 0 Z " fill="#000000" transform="translate(108,35)"/>
</svg>
