<?xml version="1.0" encoding="UTF-8"?>
<svg version="1.1" xmlns="http://www.w3.org/2000/svg" width="1293" height="290">
<path d="M0 0 C8.10973245 5.24642779 12.71719084 13.7133333 15.6171875 22.72265625 C17.35245059 31.8573431 16.98493241 41.88466705 12.03125 49.90234375 C6.28331621 57.81049002 -1.2396414 63.54359188 -8.96191406 69.37353516 C-11.08381913 70.99000347 -13.18037439 72.63543991 -15.2734375 74.2890625 C-24.55225456 81.60990822 -34.00053919 88.59851508 -43.71337891 95.33105469 C-46.12448618 97.01084322 -48.52203754 98.70879886 -50.91796875 100.41015625 C-61.06551818 107.6010421 -71.31936136 114.47869532 -81.96875 120.90234375 C-82.6606543 121.32499512 -83.35255859 121.74764648 -84.06542969 122.18310547 C-102.94535996 133.70269879 -124.66216761 146.39022835 -147.65234375 142.44140625 C-166.01491727 137.57145696 -179.01900653 119.83475783 -188.19140625 104.171875 C-192.6873199 96.20677116 -196.71942188 87.80132496 -198.96875 78.90234375 C-198.63875 77.91234375 -198.30875 76.92234375 -197.96875 75.90234375 C-197.24171875 76.14210938 -196.5146875 76.381875 -195.765625 76.62890625 C-176.83976679 82.20960803 -158.43877593 71.62329084 -141.96875 62.90234375 C-141.19515137 62.49886719 -140.42155273 62.09539062 -139.62451172 61.6796875 C-123.20140483 53.08539912 -108.26872799 42.8758109 -93.40625 31.83984375 C-28.85698341 -16.08891337 -28.85698341 -16.08891337 0 0 Z " fill="#FEFEFE" transform="translate(230.96875,98.09765625)"/>
<path d="M0 0 C4.41094514 3.38953159 8.37911484 6.73985424 10.7109375 11.84765625 C10.7734375 14.97265625 10.7734375 14.97265625 9.7109375 17.84765625 C5.38351372 22.21896871 0.14649679 23.68057983 -5.5390625 25.59765625 C-30.51710526 34.40344001 -52.50997593 47.92228553 -74.2890625 62.84765625 C-76.05722036 64.05739589 -77.82545266 65.26702674 -79.59375 66.4765625 C-80.96261353 67.41302612 -80.96261353 67.41302612 -82.35913086 68.3684082 C-86.9963079 71.53721984 -91.64097294 74.69487908 -96.2890625 77.84765625 C-97.13227051 78.42193359 -97.97547852 78.99621094 -98.84423828 79.58789062 C-108.48772872 86.12700878 -118.28107674 92.11597792 -128.6015625 97.53515625 C-129.56247803 98.04071045 -130.52339355 98.54626465 -131.51342773 99.06713867 C-138.51262582 102.65607471 -144.47413152 105.13906598 -152.4765625 105.09765625 C-153.48074219 105.1028125 -154.48492187 105.10796875 -155.51953125 105.11328125 C-158.335703 104.84318297 -159.94978151 104.41067359 -162.2890625 102.84765625 C-169.03288851 91.3581749 -166.46567757 78.17950376 -163.2890625 65.84765625 C-162.20034687 62.02932152 -161.01876184 58.247772 -159.7890625 54.47265625 C-159.34421509 53.08941162 -159.34421509 53.08941162 -158.89038086 51.67822266 C-158.5991333 50.81890137 -158.30788574 49.95958008 -158.0078125 49.07421875 C-157.74935547 48.30674316 -157.49089844 47.53926758 -157.22460938 46.74853516 C-156.2890625 44.84765625 -156.2890625 44.84765625 -153.2890625 42.84765625 C-153.2890625 44.49765625 -153.2890625 46.14765625 -153.2890625 47.84765625 C-146.89053462 44.13912173 -141.20515793 40.09200773 -135.6640625 35.22265625 C-128.49343733 28.9271039 -121.00941483 23.12392681 -113.37207031 17.40722656 C-112.02258804 16.3968547 -110.67542587 15.38337357 -109.33105469 14.36621094 C-74.14781984 -12.25256447 -40.38360427 -26.42680042 0 0 Z " fill="#FEFEFE" transform="translate(195.2890625,51.15234375)"/>
<path d="M0 0 C1.31564941 0.00491455 2.63129883 0.0098291 3.98681641 0.01489258 C14.02970793 0.13531835 23.56767996 0.86474899 33.3125 3.3125 C33.96750488 3.47347168 34.62250977 3.63444336 35.29736328 3.80029297 C70.11361085 12.70319489 99.16718696 36.12102079 117.6171875 66.58666992 C122.05147011 74.18016405 125.34725496 82.06292276 128.3125 90.3125 C128.69277344 91.36953125 129.07304687 92.4265625 129.46484375 93.515625 C140.68654962 127.22308868 137.00265887 164.09163701 121.375 195.6875 C115.10812134 207.89583905 107.49371103 218.16881875 98.3125 228.3125 C97.20068359 229.55193359 97.20068359 229.55193359 96.06640625 230.81640625 C76.69492694 251.28645716 49.6859662 263.41394377 22.3125 268.3125 C21.27222656 268.50585938 20.23195312 268.69921875 19.16015625 268.8984375 C2.72971956 270.66658602 -14.63324594 270.39547407 -30.6875 266.3125 C-31.3872998 266.13557617 -32.08709961 265.95865234 -32.80810547 265.77636719 C-54.04971118 260.28701673 -72.16041513 250.67300904 -88.6875 236.3125 C-89.34105469 235.78011719 -89.99460938 235.24773437 -90.66796875 234.69921875 C-116.17247897 213.81141899 -130.7651476 179.91236735 -134 147.75 C-137.43769346 112.46287437 -127.16026561 77.88426649 -105 50.25 C-101.84278472 46.52639263 -98.54508135 43.00868234 -95 39.65234375 C-93.56650567 38.32587071 -93.56650567 38.32587071 -92.6875 36.3125 C-92.0275 36.3125 -91.3675 36.3125 -90.6875 36.3125 C-90.6875 35.6525 -90.6875 34.9925 -90.6875 34.3125 C-67.11248762 11.26167045 -32.32088596 -0.14360213 0 0 Z M-28.6875 15.3125 C-29.95851563 15.6528125 -31.22953125 15.993125 -32.5390625 16.34375 C-52.64909988 21.97769998 -69.60949023 31.86802005 -84.6875 46.3125 C-85.42355469 46.98539063 -86.15960938 47.65828125 -86.91796875 48.3515625 C-106.69409161 67.04262375 -120.42076231 95.41745906 -121.86450195 122.65136719 C-122.30297863 146.25783279 -122.30297863 146.25783279 -117.6875 169.3125 C-117.47851074 169.99231934 -117.26952148 170.67213867 -117.05419922 171.37255859 C-106.50208277 204.48328204 -83.74004756 229.75608008 -53.22363281 245.82714844 C-36.61153014 254.09678424 -17.95757276 257.71657122 0.5 257.625 C1.68110352 257.62008545 2.86220703 257.6151709 4.07910156 257.61010742 C36.57471227 257.17715825 66.28903921 243.23419301 89.23046875 220.46484375 C112.28644953 196.7371343 123.91079014 165.04467705 123.6640625 132.26074219 C123.01166841 103.70943952 112.86606467 77.07212065 94.3125 55.3125 C93.53777344 54.39855469 92.76304687 53.48460937 91.96484375 52.54296875 C72.28530064 30.02795116 43.91945261 15.90856718 14.3125 12.3125 C9.70410102 12.02937753 5.11625004 11.9781775 0.5 12 C-0.73395508 12.00491455 -1.96791016 12.0098291 -3.23925781 12.01489258 C-12.11115202 12.12897985 -20.13115791 12.83933818 -28.6875 15.3125 Z " fill="#FEFEFE" transform="translate(137.6875,11.6875)"/>
<path d="M0 0 C9.67443677 9.39503065 15.12011035 20.21832357 15.38037109 33.79907227 C15.34699759 48.63966362 12.10932575 61.58630308 1.75 72.75 C-9.94656239 83.67366179 -23.8411428 86.52969728 -39.34375 86.27734375 C-52.56482509 85.73633477 -64.29851919 79.61881049 -73.25390625 70.05078125 C-83.62355165 57.87166753 -85.15073779 43.839595 -84.22753906 28.38037109 C-83.35945385 19.29900758 -79.39721129 12.16168422 -74 5 C-73.13375 3.700625 -73.13375 3.700625 -72.25 2.375 C-62.79158954 -7.6088777 -50.53615609 -12.04212719 -37.02490234 -12.9453125 C-22.93109794 -13.32595057 -10.47870031 -9.57079848 0 0 Z M-55.08984375 14.89453125 C-61.05094241 21.4651492 -63.61010573 29.83512566 -63.30859375 38.703125 C-62.07699564 47.86995648 -59.29183042 56.04289769 -52 62 C-44.55717023 67.43233372 -37.01357676 68.13855706 -28 67 C-20.39477863 64.91880405 -14.35332585 60.58775896 -10.25 53.8125 C-5.65266035 44.84027263 -4.83555391 35.26971567 -7.71875 25.5859375 C-10.77467149 17.91978962 -15.99462724 11.02904448 -23.70703125 7.6875 C-35.81955334 4.05580683 -46.04273767 6.13463489 -55.08984375 14.89453125 Z " fill="#FEFEFE" transform="translate(390,105)"/>
<path d="M0 0 C8.91 0 17.82 0 27 0 C35.59907911 21.95407348 44.15738111 43.92386394 52.64318848 65.92199707 C53.54884512 68.26855629 54.45566787 70.61466579 55.36364746 72.96032715 C56.64154448 76.26266178 57.91510368 79.56663648 59.1875 82.87109375 C59.57423889 83.8681987 59.96097778 84.86530365 60.35943604 85.8926239 C60.70875183 86.80260635 61.05806763 87.71258881 61.41796875 88.65014648 C61.72500732 89.44581528 62.0320459 90.24148407 62.34838867 91.06126404 C63 93 63 93 63 95 C55.41 95 47.82 95 40 95 C38.02 90.05 36.04 85.1 34 80 C13.705 79.505 13.705 79.505 -7 79 C-7.99 82.3 -8.98 85.6 -10 89 C-10.99 90.98 -11.98 92.96 -13 95 C-20.59 95 -28.18 95 -36 95 C-32.62496446 84.87489338 -32.62496446 84.87489338 -31.24511719 81.28271484 C-30.93287201 80.46696487 -30.62062683 79.6512149 -30.29891968 78.81074524 C-29.96824493 77.95280869 -29.63757019 77.09487213 -29.296875 76.2109375 C-28.94178864 75.28496262 -28.58670227 74.35898773 -28.22085571 73.404953 C-27.06578661 70.39424199 -25.90793049 67.38461154 -24.75 64.375 C-23.94856656 62.28774196 -23.14729883 60.20042029 -22.34619141 58.11303711 C-20.30086412 52.78525352 -18.25311652 47.45840415 -16.20446777 42.13189697 C-15.03206184 39.08336825 -13.86016428 36.03464467 -12.68847656 32.98583984 C-8.46234065 21.9892664 -4.23278912 10.99401422 0 0 Z M13 20 C11.00214106 25.51612497 9.00841671 31.03371958 7.01855469 36.55273438 C6.34066147 38.43107705 5.66162862 40.30900883 4.98144531 42.18652344 C4.00548105 44.88109532 3.03358871 47.57710532 2.0625 50.2734375 C1.75626709 51.11619232 1.45003418 51.95894714 1.13452148 52.82723999 C0.85423096 53.60789825 0.57394043 54.38855652 0.28515625 55.19287109 C0.03644775 55.88126068 -0.21226074 56.56965027 -0.46850586 57.27890015 C-1.09835397 59.01827655 -1.09835397 59.01827655 -1 61 C8.57 61 18.14 61 28 61 C27.17136044 55.86757014 27.17136044 55.86757014 25.69311523 51.10595703 C25.43292099 50.4056839 25.17272675 49.70541077 24.90464783 48.98391724 C24.62544998 48.24930267 24.34625214 47.51468811 24.05859375 46.7578125 C23.77146011 45.98944061 23.48432648 45.22106873 23.18849182 44.42941284 C22.27657649 41.99266693 21.35716611 39.55882981 20.4375 37.125 C19.81525689 35.46633269 19.19350681 33.80748033 18.57226562 32.1484375 C17.05387506 28.09679432 15.52875941 24.04774159 14 20 C13.67 20 13.34 20 13 20 Z " fill="#FEFEFE" transform="translate(840,94)"/>
<path d="M0 0 C2.5 2.25 2.5 2.25 4 4 C4.33 1.69 4.66 -0.62 5 -3 C11.27 -3 17.54 -3 24 -3 C24.04535438 5.69338774 24.08197538 14.38669567 24.10362434 23.0801754 C24.11401967 27.11778569 24.12810029 31.15531017 24.15087891 35.19287109 C24.17276009 39.09620623 24.18460052 42.99945932 24.18975449 46.9028511 C24.19342303 48.38503942 24.20058601 49.86722372 24.21146011 51.34937668 C24.30216554 64.23620101 24.04245074 74.83943504 15.3515625 84.91015625 C7.24931898 92.96111975 -3.08551328 94.3761917 -14.0625 94.5 C-25.79283546 94.37844779 -35.06684179 91.88219842 -44 84 C-43.043419 82.22821947 -42.08467012 80.45760924 -41.125 78.6875 C-40.59132813 77.70136719 -40.05765625 76.71523437 -39.5078125 75.69921875 C-38 73 -38 73 -36 70 C-33.51165057 71.19440773 -31.30796196 72.46135869 -29 74 C-22.75161889 77.56667248 -15.11131039 78.69297456 -8.0625 77.375 C-3.66160073 76.1312676 -0.32844103 74.19978406 2.08984375 70.1953125 C3.14169048 67.65824014 3.40922587 65.48313898 3.625 62.75 C3.69976563 61.85796875 3.77453125 60.9659375 3.8515625 60.046875 C3.90054688 59.37140625 3.94953125 58.6959375 4 58 C3.40832031 58.40992188 2.81664062 58.81984375 2.20703125 59.2421875 C1.41683594 59.78101563 0.62664063 60.31984375 -0.1875 60.875 C-0.96480469 61.40867187 -1.74210938 61.94234375 -2.54296875 62.4921875 C-9.19843052 66.57646134 -15.33340727 66.72208606 -23 66 C-31.02540544 63.9717213 -37.32066207 60.09497991 -41.6875 52.9375 C-47.66912967 41.3215611 -48.70439473 28.47081578 -45 16 C-41.82873192 7.43629228 -36.81914053 1.06154578 -28.4375 -2.875 C-18.60489827 -6.09294238 -8.75827524 -5.79176266 0 0 Z M-21.86328125 16.625 C-26.62861214 21.9021206 -27.36395734 26.38899039 -27.28125 33.3984375 C-26.69046472 38.86320137 -24.3699807 42.69684763 -20.4375 46.4375 C-15.79416513 49.41399671 -11.36153135 49.63229691 -6 49 C-1.10721546 47.36907182 2.18532148 45.3810664 5 41 C5.67829153 37.56601164 5.60106739 34.11916117 5.625 30.625 C5.67011719 29.69171875 5.71523438 28.7584375 5.76171875 27.796875 C5.83222703 22.58697347 5.83222703 22.58697347 3.55126953 18.05395508 C-3.92954473 11.38233935 -13.85924135 9.64453753 -21.86328125 16.625 Z " fill="#FEFEFE" transform="translate(953,123)"/>
<path d="M0 0 C7.3416685 6.2004765 11.3308818 13.62841352 12.20263672 23.23242188 C12.96532722 36.6188616 12.01441574 48.40552936 3 59 C-4.43510206 65.93052427 -11.46865291 67.46208555 -21.51171875 67.32421875 C-28.25157573 66.69778187 -32.67000992 63.99749256 -38 60 C-38.33 70.56 -38.66 81.12 -39 92 C-45.27 92 -51.54 92 -58 92 C-58 60.32 -58 28.64 -58 -4 C-51.73 -4 -45.46 -4 -39 -4 C-38.67 -2.02 -38.34 -0.04 -38 2 C-36.9790625 1.1028125 -36.9790625 1.1028125 -35.9375 0.1875 C-24.86367772 -8.0589634 -11.22078161 -7.75964499 0 0 Z M-34 14 C-35.33611328 14.66128906 -35.33611328 14.66128906 -36.69921875 15.3359375 C-40.52671571 19.76777609 -39.76121777 24.78687288 -39.6875 30.4375 C-39.71521484 31.56994141 -39.74292969 32.70238281 -39.77148438 33.86914062 C-39.90576964 39.67601861 -39.90576964 39.67601861 -37.69921875 44.8527832 C-32.93629777 48.88827891 -28.19472195 50.44454469 -21.984375 50.24609375 C-17.42081033 49.68013986 -14.61543337 47.54549776 -11.25 44.5625 C-7.44412694 39.62348674 -6.6483815 32.69199429 -7.2265625 26.62109375 C-8.52495934 20.82232142 -10.36907621 17.12910108 -15.25 13.75 C-21.89991641 10.33442448 -27.51352246 10.4769524 -34 14 Z " fill="#FEFEFE" transform="translate(476,124)"/>
<path d="M0 0 C6.6 0 13.2 0 20 0 C25.89839105 14.58511242 31.53045367 29.24903078 37 44 C41.37862107 34.57245044 44.92344056 24.82696308 48.59008789 15.10742188 C49.45762699 12.8103693 50.32831902 10.51453007 51.19921875 8.21875 C51.46586838 7.50843628 51.73251801 6.79812256 52.00724792 6.06628418 C53.88713593 1.11286407 53.88713593 1.11286407 55 0 C56.4887186 -0.08669432 57.981445 -0.10703494 59.47265625 -0.09765625 C60.37177734 -0.09443359 61.27089844 -0.09121094 62.19726562 -0.08789062 C63.61555664 -0.07532227 63.61555664 -0.07532227 65.0625 -0.0625 C66.4865918 -0.05573242 66.4865918 -0.05573242 67.93945312 -0.04882812 C70.29303369 -0.03700109 72.64647581 -0.01968094 75 0 C73.10085627 6.73536508 70.84355229 13.19369887 68.15625 19.65234375 C67.79045334 20.54262772 67.42465668 21.43291168 67.04777527 22.35017395 C65.86974688 25.21452104 64.68513106 28.07608523 63.5 30.9375 C62.27598881 33.90446957 61.05320309 36.87194224 59.83049011 39.83944702 C59.02136438 41.80276696 58.21164488 43.76584231 57.40132141 45.72866821 C55.08465607 51.34494785 52.79470782 56.97067318 50.54296875 62.61328125 C50.04561395 63.85491553 49.54821992 65.09653409 49.05078125 66.33813477 C48.17381703 68.53290106 47.30227332 70.72984512 46.4375 72.92944336 C43.61443766 79.96423802 40.55679135 87.36914681 34.625 92.375 C33.83996094 93.06722656 33.83996094 93.06722656 33.0390625 93.7734375 C27.52501245 97.09031818 21.78385234 97.27299191 15.5625 97.125 C14.83095703 97.11597656 14.09941406 97.10695313 13.34570312 97.09765625 C11.56365702 97.07436153 9.78178241 97.0385019 8 97 C6.76146368 93.38905609 7.20790547 90.59428048 7.875 86.875 C8.05804687 85.82054687 8.24109375 84.76609375 8.4296875 83.6796875 C9 81 9 81 10 79 C10.66386719 79.05800781 11.32773438 79.11601562 12.01171875 79.17578125 C17.90043148 79.49450892 17.90043148 79.49450892 23.0625 76.875 C25.24215534 73.64067272 25.71681149 71.86562073 26 68 C25.17778901 64.74150616 25.17778901 64.74150616 23.72680664 61.3996582 C23.47335983 60.76961884 23.21991302 60.13957947 22.95878601 59.490448 C22.12273987 57.4214473 21.2664838 55.36146011 20.41015625 53.30078125 C19.82437073 51.85980794 19.24003603 50.41824405 18.65708923 48.97612 C17.12262732 45.1893139 15.57159453 41.40953533 14.01605225 37.63134766 C11.52573242 31.57538972 9.05970306 25.5095209 6.5956707 19.44283104 C5.73253089 17.32500991 4.86171829 15.21047136 3.98976135 13.0962677 C3.46052237 11.80163858 2.93145518 10.50693921 2.40258789 9.2121582 C1.93768448 8.08219925 1.47278107 6.9522403 0.99378967 5.78804016 C0 3 0 3 0 0 Z " fill="#FEFEFE" transform="translate(1215,120)"/>
<path d="M0 0 C7.25444484 6.90084769 10.72462857 14.78246856 10.98022461 24.71289062 C11.08116679 36.06826259 9.21837814 44.91501072 1.7421875 53.8671875 C-6.4720098 61.89398867 -16.01117526 64.26093091 -27.24609375 64.17041016 C-38.05302908 63.91868034 -45.28994912 60.68843453 -53 53.24609375 C-60.42390475 45.24683638 -62.71742753 35.88935801 -62.5859375 25.19921875 C-61.78615773 15.4761818 -58.48730914 6.62776154 -51.3125 -0.125 C-35.76344868 -11.55885073 -15.14385139 -12.64221222 0 0 Z M-36.91796875 12.2421875 C-41.80875431 17.77838465 -42.71586909 23.02458717 -42.5625 30.15625 C-41.97382319 36.55811036 -39.21336464 40.69133507 -34.3125 44.875 C-30.01874285 47.40334873 -26.18663792 47.51828724 -21.3125 46.875 C-16.05613658 45.22389578 -12.91102198 41.87989518 -10.2578125 37.14453125 C-7.5760025 30.70597088 -7.69978398 24.36938139 -10.24609375 17.91796875 C-12.44774566 13.70015209 -14.99663993 10.8955485 -19.38671875 8.9609375 C-25.67565933 7.13901056 -31.82367453 7.90398074 -36.91796875 12.2421875 Z " fill="#FEFEFE" transform="translate(626.3125,127.125)"/>
<path d="M0 0 C7.54235602 7.79429276 8.38836284 17.35300715 8.2265625 27.78515625 C8.22231766 28.83641693 8.21807281 29.88767761 8.21369934 30.97079468 C8.19705514 34.29200058 8.15942989 37.61257469 8.12109375 40.93359375 C8.10602848 43.200512 8.09234332 45.46743987 8.08007812 47.734375 C8.04719841 53.2593539 7.99551591 58.78386712 7.93359375 64.30859375 C1.66359375 64.30859375 -4.60640625 64.30859375 -11.06640625 64.30859375 C-11.39640625 62.98859375 -11.72640625 61.66859375 -12.06640625 60.30859375 C-12.6696875 60.65792969 -13.27296875 61.00726563 -13.89453125 61.3671875 C-14.69375 61.82222656 -15.49296875 62.27726562 -16.31640625 62.74609375 C-17.1053125 63.19855469 -17.89421875 63.65101563 -18.70703125 64.1171875 C-25.23538321 67.41378907 -33.3806465 67.21501941 -40.44921875 65.84765625 C-46.34802389 63.88138787 -51.29546304 60.42733445 -54.390625 54.9765625 C-57.37945255 48.14945115 -58.25128348 42.38253155 -55.87890625 35.18359375 C-53.37544731 29.32687788 -50.44694045 25.66341594 -44.69140625 22.93359375 C-35.21990432 19.56909008 -25.0229209 20.12223034 -15.921875 24.23828125 C-14.06640625 25.30859375 -14.06640625 25.30859375 -12.06640625 27.30859375 C-11.69016351 22.60555955 -11.64299748 19.20426615 -13.69140625 14.87109375 C-17.37845038 10.89296719 -20.47602634 10.4703273 -25.75390625 9.93359375 C-32.87963091 10.11208011 -39.47932922 13.0697027 -45.06640625 17.30859375 C-45.72640625 17.30859375 -46.38640625 17.30859375 -47.06640625 17.30859375 C-48.12739953 15.57024318 -49.16467108 13.81739571 -50.19140625 12.05859375 C-50.77148438 11.0840625 -51.3515625 10.10953125 -51.94921875 9.10546875 C-53.06640625 6.30859375 -53.06640625 6.30859375 -52.46484375 4.109375 C-47.0351536 -2.88248858 -37.48779342 -4.82162517 -29.25390625 -6.44140625 C-19.20519946 -7.39552588 -8.05833963 -6.59595663 0 0 Z M-37.06640625 39.30859375 C-38.2547617 42.59942422 -38.14213466 44.08586314 -37.00390625 47.43359375 C-34.63463713 50.94928341 -33.06952668 51.94904342 -29.06640625 53.30859375 C-22.26275907 53.95656015 -17.97585116 52.70470515 -12.12890625 49.12109375 C-10.6527037 46.60286587 -10.34456028 44.20924017 -10.47265625 41.31640625 C-11.24004706 38.72141365 -12.19021236 37.87835372 -14.37890625 36.30859375 C-22.31590675 32.12825185 -30.75347519 32.99566269 -37.06640625 39.30859375 Z " fill="#FEFEFE" transform="translate(753.06640625,124.69140625)"/>
<path d="M0 0 C7.05368629 6.66816092 10.92924294 16.41978393 11.75 26 C11.75 28.97 11.75 31.94 11.75 35 C-5.08 35 -21.91 35 -39.25 35 C-35.03480273 43.72448324 -35.03480273 43.72448324 -27.4375 48.25 C-17.74954581 50.52951863 -9.86255131 47.46725792 -1.25 43 C0.11656457 44.76128344 1.46794085 46.53436088 2.8125 48.3125 C3.56660156 49.29863281 4.32070312 50.28476563 5.09765625 51.30078125 C5.64292969 52.19152344 6.18820312 53.08226562 6.75 54 C5.35492565 58.18522305 3.11326044 58.82621017 -0.68359375 60.79296875 C-11.70089257 65.97462071 -24.78328463 67.27802799 -36.4375 63.25 C-45.21703091 59.4287885 -52.58123732 53.82953189 -56.6484375 44.9453125 C-60.74854266 32.81946957 -60.33824131 21.77693834 -55.25 10 C-50.57213917 1.71137656 -43.71789846 -2.7485124 -35.0625 -6.3125 C-22.61683408 -9.35477389 -10.31318171 -8.02353796 0 0 Z M-35.25 12 C-37.67581148 15.1672316 -39.25 17.91493118 -39.25 22 C-28.69 22 -18.13 22 -7.25 22 C-8.2771892 15.83686481 -9.00433819 14.24566181 -13.25 10 C-20.21456468 5.62227363 -29.09134681 7.19625052 -35.25 12 Z " fill="#FEFEFE" transform="translate(1048.25,126)"/>
<path d="M0 0 C5.17805635 4.81621626 7.71160249 9.55907353 8.17370605 16.67483521 C8.23094025 19.87755982 8.22475054 23.0742412 8.1953125 26.27734375 C8.1924826 27.4438295 8.18965271 28.61031525 8.18673706 29.81214905 C8.17558388 33.52070576 8.15048786 37.22901685 8.125 40.9375 C8.11496393 43.45898088 8.10583918 45.98046555 8.09765625 48.50195312 C8.0756604 54.66806272 8.04116373 60.83398978 8 67 C1.73 67 -4.54 67 -11 67 C-11.01458252 65.6682373 -11.02916504 64.33647461 -11.04418945 62.96435547 C-11.10228101 58.0104728 -11.17951373 53.05703949 -11.26245117 48.10351562 C-11.29564938 45.9619884 -11.32369714 43.82037476 -11.34643555 41.67871094 C-11.38007504 38.59532946 -11.43239654 35.51273631 -11.48828125 32.4296875 C-11.49467117 31.47633514 -11.5010611 30.52298279 -11.50764465 29.54074097 C-11.62250036 24.31569745 -12.01935221 20.49046193 -15 16 C-18.81750817 14.04039101 -23.09186771 13.62292445 -27.29296875 14.453125 C-30.97175656 15.75070869 -34.08323503 17.37924106 -37 20 C-37.61341613 22.1838804 -37.61341613 22.1838804 -37.54589844 24.6550293 C-37.56561707 25.59577805 -37.58533569 26.53652679 -37.60565186 27.50578308 C-37.60749481 29.02465874 -37.60749481 29.02465874 -37.609375 30.57421875 C-37.62591125 31.61318802 -37.64244751 32.65215729 -37.65948486 33.72261047 C-37.70810857 37.04429958 -37.72936814 40.36553042 -37.75 43.6875 C-37.77814758 45.93817428 -37.80807329 48.18882707 -37.83984375 50.43945312 C-37.91387171 55.95959771 -37.96335872 61.47948574 -38 67 C-44.27 67 -50.54 67 -57 67 C-57 44.23 -57 21.46 -57 -2 C-50.73 -2 -44.46 -2 -38 -2 C-37.67 -0.02 -37.34 1.96 -37 4 C-36.39414063 3.59007813 -35.78828125 3.18015625 -35.1640625 2.7578125 C-24.90939871 -3.83672514 -10.92620518 -7.62293385 0 0 Z " fill="#FEFEFE" transform="translate(1129,122)"/>
<path d="M0 0 C0 16.46269588 -13.72889269 31.89201867 -24.6875 43.125 C-46.46750473 64.61893689 -73.63008248 74.2999422 -104.00341797 74.3137207 C-112.53101515 74.17332639 -120.68841084 72.83007468 -129 71 C-129 70.01 -129 69.02 -129 68 C-128.09121094 67.85304688 -127.18242188 67.70609375 -126.24609375 67.5546875 C-95.91380679 62.1415409 -71.32217806 42.78770401 -47 25 C-37.84158939 18.30211724 -28.65185881 11.66628082 -19.25 5.3125 C-18.14205078 4.5544104 -18.14205078 4.5544104 -17.01171875 3.78100586 C-6.33618272 -3.35444968 -6.33618272 -3.35444968 0 0 Z " fill="#FEFEFE" transform="translate(240,183)"/>
<path d="M0 0 C1 1.8359375 1 1.8359375 1 4 C-0.21484375 6.796875 -0.21484375 6.796875 -1.9375 9.75 C-2.50339844 10.73484375 -3.06929687 11.7196875 -3.65234375 12.734375 C-4.09707031 13.48203125 -4.54179688 14.2296875 -5 15 C-5.5671875 14.71253906 -6.134375 14.42507812 -6.71875 14.12890625 C-8.9612284 13.01918663 -11.21869335 11.96486926 -13.5 10.9375 C-14.2528125 10.59589844 -15.005625 10.25429687 -15.78125 9.90234375 C-21.42620132 7.6065977 -27.18900755 7.06300252 -33 9 C-33.66 9.33 -34.32 9.66 -35 10 C-35.41780879 12.37305578 -35.41780879 12.37305578 -35 15 C-31.01043279 18.08143615 -26.64570201 18.90483561 -21.8125 19.875 C-12.7427073 21.8613195 -3.95614525 24.36868889 2 32 C4.65353136 37.55978 4.92723124 43.44365741 3.3828125 49.3671875 C0.74150962 56.30937295 -3.55815651 59.86403155 -10.14453125 63.03125 C-22.03809759 67.40775823 -36.59472137 66.07927388 -48 61 C-51.16485019 59.19025303 -54.11944414 57.23298904 -57 55 C-56.34097701 51.42959697 -54.83770842 48.82267745 -52.9375 45.75 C-52.38964844 44.85796875 -51.84179688 43.9659375 -51.27734375 43.046875 C-50.64505859 42.03367187 -50.64505859 42.03367187 -50 41 C-46.51526757 42.34268364 -43.19804045 43.86033096 -39.875 45.5625 C-34.91473957 48.10293733 -31.17178448 49.19152792 -25.5625 49.3125 C-23.86287109 49.36857422 -23.86287109 49.36857422 -22.12890625 49.42578125 C-18.92584665 49.23795274 -18.92584665 49.23795274 -16.52734375 47.23046875 C-14.80814465 45.15820166 -14.80814465 45.15820166 -14.9609375 42.875 C-16.42078386 40.24069078 -17.78472998 39.9383783 -20.625 39 C-21.61371094 38.66871094 -22.60242188 38.33742187 -23.62109375 37.99609375 C-26.64303959 37.1052311 -29.67556163 36.31099004 -32.73266602 35.55102539 C-41.55109078 33.34724521 -48.89861536 30.95816004 -54 23 C-55.76168258 17.2507251 -55.92459467 11.35000565 -53.4375 5.8125 C-49.92989071 -0.3658153 -44.89036957 -4.06173411 -38.28515625 -6.45703125 C-25.61437836 -9.46769471 -10.63668953 -8.04002934 0 0 Z " fill="#FEFEFE" transform="translate(552,126)"/>
<path d="M0 0 C0.99 1.98 0.99 1.98 2 4 C-3.94 9.445 -3.94 9.445 -10 15 C-11.340625 14.030625 -12.68125 13.06125 -14.0625 12.0625 C-18.82592618 8.92651584 -22.45649606 7.29497759 -28.2578125 8.44921875 C-33.33302473 9.89808297 -36.71408864 11.71835792 -40 16 C-42.731294 21.59264961 -43.16052651 28.33650011 -41.27734375 34.28125 C-39.29512615 38.58274245 -37.05322125 41.40178125 -33 44 C-27.66665657 45.77778114 -22.72290292 45.75181218 -17.5625 43.5 C-16.716875 43.005 -15.87125 42.51 -15 42 C-14.34 42 -13.68 42 -13 42 C-12.67 41.01 -12.34 40.02 -12 39 C-7.70281047 40.38914475 -5.29312243 42.38031985 -2.1875 45.625 C-1.39730469 46.44226563 -0.60710937 47.25953125 0.20703125 48.1015625 C0.79871094 48.72804687 1.39039063 49.35453125 2 50 C-3.08820733 56.82890984 -9.4385547 61.47282327 -18 63 C-30.43959904 63.84594821 -41.17536743 62.88643189 -51.21875 54.6953125 C-59.35211318 46.95434842 -62.79684114 37.92474337 -63.25 26.8125 C-63.08704933 16.05775609 -58.95376459 7.25060957 -51.9375 -0.6875 C-38.23440793 -13.76228436 -13.24454721 -13.24454721 0 0 Z " fill="#FEFEFE" transform="translate(1212,128)"/>
<path d="M0 0 C6.82861688 3.96464105 11.54350004 9.74211347 14.5625 17 C15.72380131 25.60623296 15.67879408 33.59221724 10.46875 40.87890625 C4.70736461 47.28962811 -1.02856722 51.31565633 -9.7421875 52.24609375 C-17.11573623 52.62510794 -23.54169265 50.94234016 -29.48046875 46.45703125 C-31.32322732 44.74000461 -32.88657067 42.98288577 -34.4375 41 C-34.87191406 40.46117187 -35.30632812 39.92234375 -35.75390625 39.3671875 C-40.00061954 32.76776546 -39.62613764 23.53359278 -38.4375 16 C-35.95283191 8.77269903 -31.0136405 3.75055412 -24.4375 0 C-16.96562911 -3.62310518 -7.51643056 -3.42389551 0 0 Z " fill="#040404" transform="translate(223.4375,105)"/>
<path d="M0 0 C0 5.94 0 11.88 0 18 C-3.15755208 18.390625 -6.31510417 18.78125 -9.47265625 19.171875 C-13.50804161 20.11927444 -17.04012824 21.01773313 -20 24 C-21.05420877 27.46674923 -20.95443416 30.85180286 -20.90234375 34.453125 C-20.92078087 35.97616241 -20.92078087 35.97616241 -20.93959045 37.52996826 C-20.9713658 40.7707104 -20.9550296 44.00918588 -20.9375 47.25 C-20.95060608 49.44793785 -20.96684444 51.64585943 -20.98632812 53.84375 C-21.02722314 59.22965154 -21.02497609 64.61401732 -21 70 C-27.27 70 -33.54 70 -40 70 C-40 47.23 -40 24.46 -40 1 C-33.73 1 -27.46 1 -21 1 C-21 3.31 -21 5.62 -21 8 C-20.11248047 7.38511719 -20.11248047 7.38511719 -19.20703125 6.7578125 C-18.41683594 6.21898438 -17.62664063 5.68015625 -16.8125 5.125 C-15.64654297 4.32449219 -15.64654297 4.32449219 -14.45703125 3.5078125 C-9.11329999 0.2285116 -6.6493204 0 0 0 Z " fill="#FEFEFE" transform="translate(690,119)"/>
<path d="M0 0 C4.6862896 2.30817249 7.44730353 5.38875935 9.14453125 10.33984375 C9.94359986 14.59879707 9.47986468 17.69401639 7.45703125 21.58984375 C2.10488914 27.95455328 2.10488914 27.95455328 -2.33984375 28.828125 C-7.85876275 29.21688863 -11.20867395 28.66029356 -15.48046875 25.02734375 C-18.96032683 21.63980844 -20.00969181 18.85062509 -20.16796875 14.02734375 C-20.09249817 9.37835573 -19.04284519 6.8541306 -15.85546875 3.33984375 C-11.01429826 -0.50672983 -6.10770566 -2.17305738 0 0 Z " fill="#FAFAFA" transform="translate(216.85546875,115.66015625)"/>
<path d="M0 0 C-2.71831613 2.94276425 -5.15669281 4.7591431 -8.75 6.5 C-16.81268226 10.75769986 -23.8391917 16.40182571 -31 22 C-32.43859375 23.11375 -32.43859375 23.11375 -33.90625 24.25 C-40.40249331 29.41568745 -46.42784006 35.05042175 -52.43164062 40.77270508 C-62.12710011 50 -62.12710011 50 -65 50 C-63.12787886 36.66524243 -46.13954893 23.22931381 -36.3137207 15.69189453 C-28.2420992 9.77590242 -10.05711492 -3.35237164 0 0 Z " fill="#FEFEFE" transform="translate(109,41)"/>
</svg>
