<?xml version="1.0" encoding="UTF-8"?>
<svg version="1.1" xmlns="http://www.w3.org/2000/svg" width="1563" height="496">
<path d="M0 0 C1.43258236 1.04094114 2.84992449 2.103231 4.25 3.1875 C5.24773437 3.92226562 5.24773437 3.92226562 6.265625 4.671875 C19.77016659 15.41170729 27.10405546 32.3861074 29.0625 49.1875 C29.98319413 64.52059832 25.55936819 79.060701 15.328125 90.62890625 C9.10482723 97.23687128 2.10623825 102.90688718 -5.10546875 108.390625 C-8.2683971 110.7967372 -11.34597024 113.29281272 -14.41235352 115.8203125 C-34.62182042 132.47257134 -56.08998216 147.57471508 -77.51220703 162.61328125 C-79.86473342 164.26821144 -82.2118128 165.93068427 -84.55859375 167.59375 C-95.33663038 175.21173955 -106.27069666 182.53312898 -117.37890625 189.66015625 C-119.65592772 191.1269032 -121.92333205 192.60725691 -124.1875 194.09375 C-157.79505624 216.12703097 -201.34004419 244.59547309 -243.5 236.0625 C-257.48291975 232.3337214 -268.8045797 224.35535015 -277.96484375 213.24609375 C-279.9687826 210.93520584 -282.1453965 208.90610842 -284.375 206.8125 C-301.55495009 189.73682882 -326.16163172 154.95712649 -326.83984375 129.86328125 C-326.81019531 128.98027344 -326.78054688 128.09726562 -326.75 127.1875 C-323.1461115 127.64953699 -319.99485605 128.44870768 -316.625 129.75 C-293.62583381 137.53138456 -264.71312799 121.55393414 -244.58398438 111.67895508 C-227.04507276 102.99465503 -210.25165608 93.14241938 -193.82373047 82.52050781 C-191.9353622 81.30665206 -190.03622111 80.11346488 -188.12890625 78.9296875 C-178.78534346 73.07510827 -169.99996845 66.55866598 -161.16259766 59.97509766 C-156.6227165 56.6113039 -152.03558041 53.31317075 -147.44799805 50.01489258 C-143.71456361 47.33022604 -139.99087205 44.63441073 -136.2890625 41.90625 C-103.27602602 17.65008271 -41.74224262 -26.30043327 0 0 Z " fill="#FEFEFE" transform="translate(616.75,164.8125)"/>
<path d="M0 0 C7.75402911 5.67723405 14.28621093 11.48901651 16.9765625 20.984375 C16.90239671 24.84099591 16.34220028 26.25794805 13.9140625 29.234375 C9.77358978 33.0615512 6.48117365 35.07238804 1.03125 36.8125 C0.38383347 37.02488312 -0.26358307 37.23726624 -0.93061829 37.45608521 C-2.30865258 37.90810111 -3.68843433 38.35481969 -5.0697937 38.79656982 C-8.70632609 39.96474255 -12.32425225 41.18740487 -15.94140625 42.4140625 C-16.65468582 42.65585236 -17.36796539 42.89764221 -18.1028595 43.14675903 C-27.07017995 46.21639915 -35.60682998 50.01118386 -44.0859375 54.234375 C-45.51631348 54.94134521 -45.51631348 54.94134521 -46.97558594 55.66259766 C-83.00260677 73.59592075 -116.00706164 96.61139955 -148.94555664 119.58496094 C-156.59015578 124.90877256 -164.28953371 130.13562258 -172.0859375 135.234375 C-173.39884766 136.09482422 -173.39884766 136.09482422 -174.73828125 136.97265625 C-177.50273174 138.75740934 -180.2883795 140.50189471 -183.0859375 142.234375 C-183.76156738 142.65412598 -184.43719727 143.07387695 -185.13330078 143.50634766 C-238.92999187 176.7892155 -238.92999187 176.7892155 -261.30078125 172.84375 C-266.28024949 171.35277678 -268.84208925 168.70916087 -271.859375 164.5625 C-282.19287134 144.9486025 -273.45460666 116.12779188 -267.37524414 96.27148438 C-264.54382226 87.31529223 -261.37257129 78.609988 -257.0859375 70.234375 C-255.6009375 70.729375 -255.6009375 70.729375 -254.0859375 71.234375 C-254.0859375 73.214375 -254.0859375 75.194375 -254.0859375 77.234375 C-249.24985793 75.88494103 -245.5272855 73.74603143 -241.5234375 70.796875 C-240.91483887 70.35512939 -240.30624023 69.91338379 -239.67919922 69.45825195 C-234.41774018 65.58672792 -229.44524257 61.41926187 -224.5 57.15625 C-214.01539146 48.13074435 -203.12111625 39.57289086 -192.0859375 31.234375 C-191.35391113 30.68023926 -190.62188477 30.12610352 -189.86767578 29.55517578 C-183.96017 25.08823227 -178.02858614 20.65442194 -172.0859375 16.234375 C-171.32087891 15.66251465 -170.55582031 15.0906543 -169.76757812 14.50146484 C-115.90469549 -25.65966346 -59.1097367 -41.13737654 0 0 Z " fill="#FEFEFE" transform="translate(560.0859375,88.765625)"/>
<path d="M0 0 C31.43436652 -1.0350102 62.60536343 4.58005018 91.84619141 16.08251953 C92.52762207 16.34613281 93.20905273 16.60974609 93.91113281 16.88134766 C111.45858783 23.76744016 127.92821947 33.6071565 142.84619141 45.08251953 C143.74853516 45.77345703 144.65087891 46.46439453 145.58056641 47.17626953 C186.85000332 79.89878164 215.74933185 125.73219534 226.65869141 177.33251953 C226.95102661 178.71346802 226.95102661 178.71346802 227.24926758 180.12231445 C230.10634434 194.50339588 231.26048764 208.82126158 231.22119141 223.45751953 C231.22037567 224.61856705 231.22037567 224.61856705 231.21954346 225.80307007 C231.10323339 262.17229608 221.90962564 297.02610961 204.84619141 329.08251953 C204.33314453 330.07509766 203.82009766 331.06767578 203.29150391 332.09033203 C191.10665103 355.20862046 173.0912354 377.4547168 152.68603516 393.80126953 C150.84715297 395.27844586 149.02540318 396.77731493 147.22509766 398.30126953 C112.44480398 427.65521724 64.37623121 445.88040627 18.84619141 447.08251953 C18.02812012 447.10830078 17.21004883 447.13408203 16.3671875 447.16064453 C-19.61632101 448.16805684 -56.87408972 441.47992992 -89.15380859 425.08251953 C-90.30880859 424.52822266 -91.46380859 423.97392578 -92.65380859 423.40283203 C-100.1691274 419.7814923 -107.24080585 415.7495256 -114.15380859 411.08251953 C-115.20439453 410.38126953 -116.25498047 409.68001953 -117.33740234 408.95751953 C-129.55736917 400.71505337 -140.46901203 391.19330842 -151.15380859 381.08251953 C-151.83443359 380.44443359 -152.51505859 379.80634766 -153.21630859 379.14892578 C-166.86605662 365.97312734 -177.83878713 349.52461555 -187.15380859 333.08251953 C-187.49508789 332.49035645 -187.83636719 331.89819336 -188.18798828 331.28808594 C-213.06251792 287.90643017 -222.1586369 232.17179841 -212.15380859 183.08251953 C-211.95513184 182.09815918 -211.75645508 181.11379883 -211.55175781 180.09960938 C-201.31055558 130.91882474 -175.89252758 85.52345056 -137.15380859 53.08251953 C-136.44095703 52.48052734 -135.72810547 51.87853516 -134.99365234 51.25830078 C-123.29439725 41.62936462 -110.58752343 33.0921253 -97.15380859 26.08251953 C-96.40566895 25.69209473 -95.6575293 25.30166992 -94.88671875 24.89941406 C-65.4446768 9.76167677 -33.09128409 1.26783655 0 0 Z M-30.15380859 23.08251953 C-30.99443848 23.24880859 -31.83506836 23.41509766 -32.70117188 23.58642578 C-52.50953582 27.58437627 -71.45262672 34.32599756 -89.15380859 44.08251953 C-89.83217773 44.45070801 -90.51054687 44.81889648 -91.20947266 45.19824219 C-107.92315289 54.34470499 -122.48614082 65.86521903 -136.15380859 79.08251953 C-136.82669922 79.71544922 -137.49958984 80.34837891 -138.19287109 81.00048828 C-143.33672709 85.9446969 -147.7602198 91.47278537 -152.15380859 97.08251953 C-152.57678223 97.61844727 -152.99975586 98.154375 -153.43554688 98.70654297 C-181.679207 134.77877976 -198.32115738 182.07424106 -196.15380859 228.08251953 C-196.09217529 229.41379883 -196.09217529 229.41379883 -196.02929688 230.77197266 C-193.17582302 285.8722793 -170.42029927 336.18914903 -130.15380859 374.08251953 C-129.55826172 374.64841797 -128.96271484 375.21431641 -128.34912109 375.79736328 C-86.67404599 413.80574723 -32.5306313 429.00202923 22.84619141 427.08251953 C70.68647019 424.0625217 115.54499363 403.25828571 149.84619141 370.08251953 C150.71888672 369.24978516 151.59158203 368.41705078 152.49072266 367.55908203 C183.14784716 337.7025276 203.65789876 296.30592 209.84619141 254.08251953 C209.96043457 253.30537598 210.07467773 252.52823242 210.19238281 251.72753906 C217.36458059 200.374603 204.2033621 145.99259751 173.24462891 104.25439453 C166.55428541 95.4065787 159.44405606 87.15174358 151.84619141 79.08251953 C151.19005859 78.37224609 150.53392578 77.66197266 149.85791016 76.93017578 C120.21642393 45.89230262 76.79090128 26.98364774 34.84619141 21.08251953 C33.54681641 20.89818359 32.24744141 20.71384766 30.90869141 20.52392578 C23.6698294 19.75605076 16.36802213 19.83817951 9.09619141 19.83251953 C8.31685242 19.83184479 7.53751343 19.83117004 6.73455811 19.83047485 C-5.79183319 19.84766775 -17.85674544 20.53536027 -30.15380859 23.08251953 Z " fill="#FEFEFE" transform="translate(457.15380859375,21.91748046875)"/>
<path d="M0 0 C2.39407175 3.59110763 2.57526513 5.86251619 2 10 C-2.85872445 30.44969469 -16.8052427 49.00901841 -31 64 C-32.21464306 65.39034614 -33.42329559 66.78595562 -34.625 68.1875 C-61.14771612 98.4645732 -99.40629359 117.36851003 -139 123 C-140.27359375 123.18304688 -141.5471875 123.36609375 -142.859375 123.5546875 C-150.32956259 124.34709995 -157.87086407 124.24176968 -165.375 124.25 C-166.57787659 124.25250763 -166.57787659 124.25250763 -167.80505371 124.25506592 C-182.75214193 124.25693533 -196.50073875 122.70536676 -211 119 C-211 117.68 -211 116.36 -211 115 C-210.08863281 114.93683594 -209.17726563 114.87367188 -208.23828125 114.80859375 C-178.92259431 112.03745916 -152.19900849 96.88902895 -128 81 C-127.02643555 80.36513672 -126.05287109 79.73027344 -125.04980469 79.07617188 C-112.51786452 70.88698325 -100.21564462 62.43130583 -88.14892578 53.57226562 C-85.21547489 51.42600072 -82.26442327 49.30458097 -79.3137207 47.18212891 C-72.31833678 42.1493367 -65.36524554 37.06293385 -58.4375 31.9375 C-10.47421129 -3.46793214 -10.47421129 -3.46793214 0 0 Z " fill="#FEFEFE" transform="translate(631,304)"/>
<path d="M0 0 C12.0568818 10.441957 19.54787025 23.35116599 20.73046875 39.45703125 C21.60778288 57.35423945 18.15388498 73.68005144 6.31640625 87.66015625 C-5.26187471 99.65194724 -20.29942864 105.22499396 -36.64453125 106.1875 C-54.48141248 106.35299684 -70.24119366 100.62693637 -83.33203125 88.484375 C-95.53360632 75.35294012 -99.02742083 59.19673512 -98.67578125 41.87890625 C-98.08911927 27.42727256 -91.8650992 13.75116523 -81.8046875 3.40234375 C-59.57210775 -17.03551374 -23.90562262 -18.61646012 0 0 Z M-65.93359375 22.87890625 C-73.22355034 32.07813718 -73.62600112 43.98153178 -72.43359375 55.22265625 C-70.31606501 65.20016453 -64.91774921 73.17501936 -56.55078125 78.96875 C-48.1886847 83.9212094 -38.92188504 84.58365667 -29.47265625 82.6015625 C-21.29816593 80.02556765 -15.05949229 75.53465806 -10.578125 68.17578125 C-4.90932786 57.13441865 -3.33052506 44.83187407 -6.55859375 32.66015625 C-9.91087345 23.43355465 -17.12161733 16.02021462 -25.93359375 11.84765625 C-41.43274142 6.22448987 -55.35035523 11.19324705 -65.93359375 22.87890625 Z " fill="#FEFEFE" transform="translate(840.43359375,112.77734375)"/>
<path d="M0 0 C10.23 0 20.46 0 31 0 C38.97242067 19.18002653 46.42808061 38.51976503 53.77392578 57.9465332 C59.42365859 72.88346246 65.15560942 87.78537335 70.98754883 102.65209961 C71.40002365 103.70595352 71.40002365 103.70595352 71.8208313 104.78109741 C72.55114679 106.64641139 73.28366387 108.51086298 74.01635742 110.37524414 C75 113 75 113 75 114 C65.76 114 56.52 114 47 114 C44.69 108.06 42.38 102.12 40 96 C15.25 95.505 15.25 95.505 -10 95 C-10.33 96.65 -10.66 98.3 -11 100 C-11.82404174 102.45591456 -12.66939699 104.88281425 -13.5625 107.3125 C-14.7690625 110.6228125 -14.7690625 110.6228125 -16 114 C-25.24 114 -34.48 114 -44 114 C-42.15695434 107.85651445 -40.33877335 101.97777676 -37.98046875 96.05859375 C-37.68914063 95.31696991 -37.3978125 94.57534607 -37.09765625 93.81124878 C-36.46380452 92.19858117 -35.82819889 90.58660202 -35.19100952 88.97525024 C-33.42124449 84.49973552 -31.66413368 80.01925442 -29.90625 75.5390625 C-29.52462204 74.56723526 -29.14299408 73.59540802 -28.74980164 72.59413147 C-25.51892303 64.35405269 -22.33250312 56.09717169 -19.15625 47.8359375 C-18.65645664 46.53672081 -18.15664485 45.23751121 -17.65681458 43.93830872 C-15.67465258 38.78513968 -13.69278006 33.63186505 -11.71688843 28.47628784 C-10.3286573 24.85410112 -8.93586616 21.23367625 -7.54296875 17.61328125 C-7.12797119 16.52747772 -6.71297363 15.44167419 -6.28540039 14.32296753 C-5.89626465 13.31315826 -5.50712891 12.303349 -5.10620117 11.26293945 C-4.77029465 10.38732864 -4.43438812 9.51171783 -4.08830261 8.60957336 C-2.86544762 5.67736519 -1.42078986 2.84157971 0 0 Z M15 24 C10.89431537 34.27780657 6.99168983 44.62511872 3.24578857 55.03918457 C2.56736045 56.92399667 1.88452557 58.80722067 1.20166016 60.69042969 C0.78577637 61.85348633 0.36989258 63.01654297 -0.05859375 64.21484375 C-0.43298584 65.25761475 -0.80737793 66.30038574 -1.19311523 67.37475586 C-2.14689612 70.02019352 -2.14689612 70.02019352 -2 73 C9.55 73 21.1 73 33 73 C31.0225641 66.40854701 28.98637563 59.94760052 26.64453125 53.4921875 C26.33803146 52.64069122 26.03153168 51.78919495 25.71574402 50.91189575 C24.75047818 48.23202776 23.78155992 45.55349805 22.8125 42.875 C22.15144905 41.04175451 21.49063964 39.2084219 20.83007812 37.375 C19.22283783 32.91565643 17.61232393 28.45750792 16 24 C15.67 24 15.34 24 15 24 Z " fill="#FEFEFE" transform="translate(770,263)"/>
<path d="M0 0 C1.83984375 1.6953125 1.83984375 1.6953125 3 3 C3.33 0.36 3.66 -2.28 4 -5 C11.59 -5 19.18 -5 27 -5 C27.04530644 5.51876172 27.0819481 16.03745791 27.10362434 26.55629539 C27.11403138 31.44137594 27.12813396 36.32638587 27.15087891 41.21142578 C27.17271758 45.93172519 27.18459176 50.65195695 27.18975449 55.37230301 C27.19343054 57.16709074 27.20060861 58.96187506 27.21146011 60.75663376 C27.29598476 75.32472421 27.27729699 89.40982027 16.8125 100.8125 C6.35486091 110.47271563 -7.8218042 112.35744932 -21.49609375 112.21484375 C-33.50349109 111.47860423 -44.93090324 108.16218708 -54 100 C-52.51481201 95.95698825 -50.57122002 92.38853744 -48.375 88.6875 C-47.74335937 87.61886719 -47.11171875 86.55023438 -46.4609375 85.44921875 C-45.73777344 84.23685547 -45.73777344 84.23685547 -45 83 C-42.24215033 84.32083266 -39.72822354 85.80273458 -37.1875 87.5 C-29.23884654 92.42613075 -21.18804079 92.84189062 -12 92 C-6.2456128 90.49638188 -2.15844679 88.17985274 1 83 C3.70323643 78.26933625 3.18473064 73.28534873 3 68 C2.45472656 68.47050781 1.90945313 68.94101562 1.34765625 69.42578125 C-7.61781403 76.82804133 -15.36394177 79.09659187 -27 78 C-35.91097827 76.43667048 -43.64404091 72.31924552 -49.3125 65.1875 C-50.2402065 63.81264411 -51.13737841 62.41659876 -52 61 C-52.39058594 60.37996094 -52.78117188 59.75992188 -53.18359375 59.12109375 C-59.8054668 46.72630574 -58.70233257 30.33679127 -55.28515625 17.265625 C-52.58909244 9.26440336 -46.80049602 2.14759302 -39.6875 -2.4375 C-25.89812188 -9.10977973 -12.83587015 -8.07514836 0 0 Z M-31 22 C-34.80082154 28.29101496 -34.78439758 34.79225782 -34 42 C-32.4644832 47.70452745 -30.19617063 51.92953554 -25 55 C-19.01955304 58.19759916 -13.57779782 58.73045077 -7 57 C-4.08000845 55.62646759 -1.51913339 54.01297957 1 52 C1.51876709 51.60063232 2.03753418 51.20126465 2.57202148 50.78979492 C5.7261836 46.83644179 4.59977752 40.52264846 4.625 35.6875 C4.67011719 34.46353516 4.71523438 33.23957031 4.76171875 31.97851562 C4.94715027 25.60095569 4.94715027 25.60095569 2.57324219 19.87744141 C-3.41390273 14.52864374 -9.29900428 13.5965491 -17.125 13.75 C-23.32142355 14.28881944 -27.09028926 17.35061426 -31 22 Z " fill="#FEFEFE" transform="translate(906,299)"/>
<path d="M0 0 C9.1514893 9.01634072 11.95408621 22.01100012 12.1015625 34.38671875 C12.07950432 48.04073184 8.91896738 59.5238418 -0.5234375 69.69921875 C-8.55232623 77.10112267 -18.36691736 79.12505071 -29.1796875 78.70703125 C-37.46085316 77.56720789 -43.31846118 73.65419507 -49.1484375 67.82421875 C-49.4784375 81.02421875 -49.8084375 94.22421875 -50.1484375 107.82421875 C-57.4084375 107.82421875 -64.6684375 107.82421875 -72.1484375 107.82421875 C-72.1484375 69.87421875 -72.1484375 31.92421875 -72.1484375 -7.17578125 C-64.8884375 -7.17578125 -57.6284375 -7.17578125 -50.1484375 -7.17578125 C-49.8184375 -4.53578125 -49.4884375 -1.89578125 -49.1484375 0.82421875 C-48.65214844 0.42589844 -48.15585937 0.02757812 -47.64453125 -0.3828125 C-32.6950676 -12.04169212 -14.84030417 -11.73625649 0 0 Z M-48.75 18.52075195 C-51.63152761 23.26712293 -50.65931554 29.36349334 -50.6484375 34.76171875 C-50.67679688 36.03724609 -50.70515625 37.31277344 -50.734375 38.62695312 C-50.88628499 45.80304928 -50.88628499 45.80304928 -47.84375 52.05859375 C-46.95429687 52.64125 -46.06484375 53.22390625 -45.1484375 53.82421875 C-44.53742187 54.27410156 -43.92640625 54.72398437 -43.296875 55.1875 C-37.67591698 58.19607445 -32.44640792 58.7293163 -26.1484375 57.82421875 C-20.94960061 56.23678764 -17.42631097 52.61810864 -14.37890625 48.22265625 C-10.804871 41.25612406 -10.49493817 33.50657368 -12.390625 26.0078125 C-14.46219056 20.03871379 -18.22880403 16.48777559 -23.1484375 12.82421875 C-32.03757896 9.8611716 -42.16512034 11.54539696 -48.75 18.52075195 Z " fill="#FEFEFE" transform="translate(949.1484375,140.17578125)"/>
<path d="M0 0 C7.6325879 4.68165261 14.67570861 11.46222123 18.58203125 19.59375 C18.90558594 20.25632813 19.22914063 20.91890625 19.5625 21.6015625 C23.3234512 30.0416314 23.2435949 43.09355597 20.078125 51.72265625 C15.68946826 61.56661252 8.89344445 68.55738011 -0.60546875 73.46875 C-1.22421875 73.78972656 -1.84296875 74.11070312 -2.48046875 74.44140625 C-11.3267324 78.15614587 -24.1879553 78.17170944 -33.16796875 74.90625 C-43.3611373 69.8972359 -51.46893715 61.97475571 -56.04296875 51.53125 C-59.23812226 41.7106483 -59.46331219 28.94339239 -54.86328125 19.56640625 C-43.31540536 0.30799211 -21.70601098 -9.57115445 0 0 Z " fill="#020202" transform="translate(602.60546875,179.53125)"/>
<path d="M0 0 C7.92 0 15.84 0 24 0 C30.6 17.82 37.2 35.64 44 54 C45.82141789 51.26787317 46.84071636 49.03006583 47.97119141 45.9777832 C48.54155624 44.44653557 48.54155624 44.44653557 49.1234436 42.88435364 C49.52872284 41.78427475 49.93400208 40.68419586 50.3515625 39.55078125 C50.77045746 38.4230278 51.18935242 37.29527435 51.62094116 36.13334656 C52.95926563 32.52773473 54.29219042 28.92015358 55.625 25.3125 C56.53089533 22.86900911 57.43714097 20.42564805 58.34375 17.98242188 C60.56723233 11.99001481 62.78340568 5.99497642 65 0 C73.25 0 81.5 0 90 0 C86.62444378 10.12666867 86.62444378 10.12666867 85.07739258 13.99267578 C84.72827316 14.86852325 84.37915375 15.74437073 84.01945496 16.64675903 C83.64823013 17.57028168 83.27700531 18.49380432 82.89453125 19.4453125 C82.49796829 20.43755829 82.10140533 21.42980408 81.69282532 22.45211792 C80.40246833 25.67765789 79.10792354 28.90149175 77.8125 32.125 C77.37025085 33.22682617 76.92800171 34.32865234 76.47235107 35.46386719 C73.75449984 42.23404822 71.03007613 49.00155896 68.30218506 55.7677002 C67.06339358 58.84264368 65.82736991 61.91868331 64.59228516 64.99511719 C62.78109073 69.5044661 60.96090392 74.0100725 59.13290405 78.51263428 C58.46900838 80.15103561 57.8078257 81.7905393 57.14956665 83.43121338 C46.75645668 109.30867423 46.75645668 109.30867423 37.0546875 113.92578125 C27.6683946 117.69100521 17.8651596 117.82795604 8 116 C8.4437291 112.68537028 8.90741075 109.37384119 9.375 106.0625 C9.56449219 104.64420898 9.56449219 104.64420898 9.7578125 103.19726562 C9.88671875 102.29814453 10.015625 101.39902344 10.1484375 100.47265625 C10.32125244 99.22367554 10.32125244 99.22367554 10.49755859 97.94946289 C10.74626709 96.98447876 10.74626709 96.98447876 11 96 C13 95 13 95 16.1875 95.5625 C20.55473329 96.06365792 22.99379778 95.81412931 27 94 C29.64760444 91.04091269 30.89239158 88.31191232 31.21716309 84.35244751 C30.95476974 80.30175941 29.70292545 77.01174028 28.15429688 73.31396484 C27.85193619 72.56848892 27.5495755 71.823013 27.23805237 71.0549469 C26.24104157 68.60298078 25.22973811 66.15716938 24.21875 63.7109375 C23.52261413 62.00318773 22.82760264 60.29497923 22.13366699 58.58633423 C20.30765643 54.096268 18.47042437 49.61089333 16.62957764 45.12689209 C13.68109763 37.94376581 10.74306285 30.75643998 7.81764221 23.56389236 C6.79334856 21.05309407 5.76022511 18.54605664 4.72644043 16.03915405 C4.09916403 14.50199988 3.47223284 12.96470476 2.84570312 11.42724609 C2.55583023 10.7310466 2.26595734 10.03484711 1.96730042 9.31755066 C0.59542685 5.92667836 0 3.72434992 0 0 Z " fill="#FEFEFE" transform="translate(1219,294)"/>
<path d="M0 0 C10.05020032 9.24865061 14.86997268 18.55302812 16.1328125 32.15625 C16.63394702 45.62151668 12.24556428 57.23237572 3.16015625 67.0703125 C-5.61786493 75.37838226 -17.22042993 78.59254218 -29.08984375 78.7578125 C-41.5113012 78.11532332 -53.54949297 74.21789336 -62.08984375 64.7578125 C-71.11999859 53.45941972 -73.04659304 40.9010628 -72.08984375 26.7578125 C-70.15590203 15.7700672 -64.9307332 6.32900667 -56.15234375 -0.6796875 C-39.63447173 -11.80920515 -15.91526327 -13.0067244 0 0 Z M-44.40234375 19.2578125 C-48.33589368 24.92085891 -49.42174584 31.46963748 -48.89453125 38.28125 C-47.38822781 46.30573926 -43.68613262 51.98602906 -37.08984375 56.7578125 C-31.24201594 58.70708844 -24.50198569 58.75162761 -18.77734375 56.3203125 C-13.76799913 53.44457762 -10.27501566 48.29151524 -8.453125 42.859375 C-6.84930151 33.58134232 -7.61220992 25.5465576 -13.08984375 17.7578125 C-17.53068774 13.31696851 -22.2139272 11.47236718 -28.46484375 11.3828125 C-35.72683123 11.55826992 -39.69242295 13.8232885 -44.40234375 19.2578125 Z " fill="#FEFEFE" transform="translate(1124.08984375,140.2421875)"/>
<path d="M0 0 C5.97759227 6.3842312 7.85438455 14.3227275 7.83618164 22.82348633 C7.83606834 24.59475639 7.83606834 24.59475639 7.83595276 26.40180969 C7.83079147 27.66655624 7.82563019 28.9313028 7.8203125 30.234375 C7.81889755 31.53686691 7.8174826 32.83935883 7.81602478 34.18132019 C7.8122198 37.63200829 7.80240689 41.08265383 7.7913208 44.5333252 C7.78106314 48.05932032 7.77651785 51.58532236 7.77148438 55.11132812 C7.76078269 62.02085251 7.74320237 68.9303417 7.72265625 75.83984375 C0.13265625 75.83984375 -7.45734375 75.83984375 -15.27734375 75.83984375 C-15.60734375 74.18984375 -15.93734375 72.53984375 -16.27734375 70.83984375 C-17.02177734 71.34644531 -17.02177734 71.34644531 -17.78125 71.86328125 C-26.47159639 77.56889767 -36.06298954 79.94703964 -46.40234375 78.15234375 C-55.65700885 75.92543996 -61.80210649 71.78279357 -67.27734375 63.83984375 C-70.41940593 56.40942961 -70.6135656 47.59430756 -68.4375 39.8515625 C-65.30055747 32.89114119 -60.75388396 28.60231392 -53.66796875 25.8125 C-42.70605119 22.45270323 -31.07368513 22.80973497 -20.73828125 28.15234375 C-18.87310897 29.31230955 -17.06699029 30.5664414 -15.27734375 31.83984375 C-15.3650683 29.94317849 -15.47325676 28.04745382 -15.58984375 26.15234375 C-15.64785156 25.09660156 -15.70585938 24.04085937 -15.765625 22.953125 C-16.50510578 18.45414651 -18.01155076 15.7486182 -21.71484375 13.08984375 C-29.18180217 9.44742501 -37.04839781 10.26830486 -44.76953125 12.7734375 C-48.98257183 14.5649641 -52.62086436 17.11073232 -56.27734375 19.83984375 C-58.89357219 16.83602591 -61.10097044 13.68318546 -63.15234375 10.27734375 C-63.60351562 9.53355469 -64.0546875 8.78976563 -64.51953125 8.0234375 C-65.27734375 5.83984375 -65.27734375 5.83984375 -64.6796875 3.75 C-58.60552504 -4.5237199 -45.8453387 -6.99267344 -36.40234375 -8.97265625 C-23.54978163 -10.05955368 -10.26652969 -8.28489973 0 0 Z M-43.15234375 42.52734375 C-45.91101703 45.52942938 -46.64418796 47.82985707 -47.27734375 51.83984375 C-46.34035875 56.759015 -43.22645453 58.99648399 -39.27734375 61.83984375 C-33.59422888 64.30252686 -27.44566399 63.11968933 -21.90234375 60.96484375 C-19.09104949 59.7898446 -17.44489686 59.00739686 -15.27734375 56.83984375 C-14.7175739 53.12768579 -14.73815494 49.5536442 -15.27734375 45.83984375 C-18.84375628 41.66204622 -23.34506157 40.2773416 -28.58984375 39.08984375 C-34.17453617 38.71122054 -38.3291806 39.69635669 -43.15234375 42.52734375 Z " fill="#FEFEFE" transform="translate(1280.27734375,140.16015625)"/>
<path d="M0 0 C11.40316417 11.22279778 12.24257596 24.50621528 13.22265625 40.1875 C-6.90734375 40.1875 -27.03734375 40.1875 -47.77734375 40.1875 C-44.7188609 48.34345427 -42.08504105 52.83918084 -34.2734375 56.45703125 C-25.17501641 59.11963648 -15.99924309 57.58526011 -7.77734375 53.1875 C-6.10283237 52.20069231 -4.43416783 51.20372426 -2.77734375 50.1875 C-1.48196549 51.9347544 -0.19118102 53.68541517 1.09765625 55.4375 C2.17660156 56.89929688 2.17660156 56.89929688 3.27734375 58.390625 C4.8324785 60.62652154 6.10469848 62.71622493 7.22265625 65.1875 C-3.11207241 74.07122091 -16.26878974 77.87141257 -29.875 77 C-42.53616597 75.83425084 -52.63053877 72.31895799 -61.77734375 63.1875 C-70.69894571 52.27027655 -72.94077357 40.0211587 -71.77734375 26.1875 C-70.02969414 15.72869767 -65.22713981 5.39695066 -56.84765625 -1.37109375 C-39.40694201 -13.81544679 -16.48678986 -14.21365085 0 0 Z M-45.48046875 16.078125 C-47.2994556 18.82430996 -47.2994556 18.82430996 -48.77734375 25.1875 C-35.57734375 25.1875 -22.37734375 25.1875 -8.77734375 25.1875 C-11.64911024 16.57220054 -12.50623409 14.20852878 -19.33984375 9.375 C-29.75000969 5.77876086 -38.32630068 8.00083846 -45.48046875 16.078125 Z " fill="#FEFEFE" transform="translate(1019.77734375,302.8125)"/>
<path d="M0 0 C1.0828125 1.2684375 1.0828125 1.2684375 2.1875 2.5625 C2.744375 3.18125 3.30125 3.8 3.875 4.4375 C6.91025798 9.3517272 7.43662715 14.66138527 7.41455078 20.32397461 C7.41439972 21.62479477 7.41424866 22.92561493 7.41409302 24.26585388 C7.40388281 25.66551877 7.39345087 27.06518205 7.3828125 28.46484375 C7.37907733 29.91215315 7.37623274 31.35946511 7.37423706 32.80677795 C7.36664024 36.59615187 7.34702625 40.38536985 7.3248291 44.17468262 C7.30428503 48.04937634 7.29521712 51.92409551 7.28515625 55.79882812 C7.26377614 63.38679771 7.22862679 70.97460704 7.1875 78.5625 C-0.0725 78.5625 -7.3325 78.5625 -14.8125 78.5625 C-14.86148437 74.97375 -14.91046875 71.385 -14.9609375 67.6875 C-15.01501157 64.19575989 -15.07229387 60.70408604 -15.12988281 57.21240234 C-15.16806737 54.79350765 -15.20293826 52.37455821 -15.234375 49.95556641 C-15.28025422 46.47017914 -15.33821129 42.98516534 -15.3984375 39.5 C-15.40998871 38.42572754 -15.42153992 37.35145508 -15.43344116 36.24462891 C-15.46220578 26.42634065 -15.46220578 26.42634065 -19.25 17.625 C-24.02158364 14.38032312 -30.31308199 15.15405516 -35.8125 15.5625 C-39.23261272 16.64543867 -39.23261272 16.64543867 -41.8125 18.5625 C-42.67576904 18.99788086 -43.53903809 19.43326172 -44.4284668 19.88183594 C-48.38384907 24.32936254 -47.53829322 29.45768614 -47.51953125 35.203125 C-47.53465256 36.44044373 -47.54977386 37.67776245 -47.56535339 38.95257568 C-47.60104628 42.23414611 -47.6153919 45.51489769 -47.61938477 48.79663086 C-47.6287214 52.14848235 -47.66655718 55.49987659 -47.70117188 58.8515625 C-47.76414801 65.42194272 -47.79638616 71.99184445 -47.8125 78.5625 C-55.4025 78.5625 -62.9925 78.5625 -70.8125 78.5625 C-70.8125 51.1725 -70.8125 23.7825 -70.8125 -4.4375 C-63.2225 -4.4375 -55.6325 -4.4375 -47.8125 -4.4375 C-47.4825 -1.7975 -47.1525 0.8425 -46.8125 3.5625 C-46.255625 3.16417969 -45.69875 2.76585937 -45.125 2.35546875 C-32.28517003 -6.55866997 -13.10892618 -11.36106935 0 0 Z " fill="#FEFEFE" transform="translate(1117.8125,298.4375)"/>
<path d="M0 0 C-0.56444825 4.34863652 -2.15427964 7.17827655 -4.5625 10.8125 C-5.20316406 11.78832031 -5.84382813 12.76414063 -6.50390625 13.76953125 C-6.99761719 14.50558594 -7.49132813 15.24164063 -8 16 C-10.15292894 14.92851916 -12.29900645 13.84618418 -14.4375 12.74609375 C-15.7059375 12.09833984 -15.7059375 12.09833984 -17 11.4375 C-18.2684375 10.78587891 -18.2684375 10.78587891 -19.5625 10.12109375 C-25.69312064 7.30140124 -33.64435989 6.61776735 -40.1171875 8.671875 C-41.89806459 9.5346025 -41.89806459 9.5346025 -44 11 C-44.33425735 13.37374861 -44.33425735 13.37374861 -44 16 C-40.77705007 19.20679479 -36.98652359 19.93733163 -32.6875 20.875 C-27.00873748 22.20994763 -21.42168226 23.68909529 -15.875 25.5 C-14.10769531 26.07234375 -14.10769531 26.07234375 -12.3046875 26.65625 C-7.11203228 28.76768427 -3.02622114 31.13508773 -0.1875 36.0625 C0.21082031 36.73410156 0.60914063 37.40570313 1.01953125 38.09765625 C4.24099994 44.34807557 4.10279845 52.21750438 2.1640625 58.8671875 C-1.45185402 66.85132533 -7.11074767 71.03036072 -15.09033203 74.33764648 C-29.29650732 79.26494814 -45.53727814 77.05132632 -59.1015625 71.44140625 C-63.14489293 69.4306395 -66.61467232 66.97622463 -70 64 C-68.56691865 60.04093183 -66.66858051 56.71281819 -64.375 53.1875 C-63.74335937 52.21167969 -63.11171875 51.23585937 -62.4609375 50.23046875 C-61.97882812 49.49441406 -61.49671875 48.75835937 -61 48 C-57.2455906 49.42763648 -53.7433366 51.13586548 -50.1875 53 C-41.37936027 57.41483776 -32.67175016 59.74757061 -22.9375 57 C-21.4834375 56.505 -21.4834375 56.505 -20 56 C-20 53.36 -20 50.72 -20 48 C-26.05051081 44.66446199 -31.63724852 42.96162246 -38.375 41.5625 C-48.45091651 39.29544063 -57.09859157 37.15754993 -63.84375 28.84375 C-67.60586475 22.84470215 -67.82521046 16.90254164 -67 10 C-64.86553147 3.18685269 -61.17085795 -2.31366351 -55 -6 C-36.99523371 -14.25882347 -15.7161105 -12.1830314 0 0 Z " fill="#FEFEFE" transform="translate(1039,142)"/>
<path d="M0 0 C2.03269415 2.1488481 2.85415531 4.0902075 3.77734375 6.87890625 C1.70770199 8.91564908 -0.37625327 10.93254044 -2.47265625 12.94140625 C-3.05917969 13.52212891 -3.64570312 14.10285156 -4.25 14.70117188 C-4.82363281 15.24580078 -5.39726563 15.79042969 -5.98828125 16.3515625 C-6.51196289 16.85953369 -7.03564453 17.36750488 -7.57519531 17.89086914 C-9.22265625 18.87890625 -9.22265625 18.87890625 -11.30371094 18.65795898 C-13.87755298 17.61303151 -15.26801251 15.83354999 -17.22265625 13.87890625 C-23.27323201 10.92664256 -30.12446857 10.81740846 -36.60546875 12.49609375 C-42.0408563 14.83145038 -44.91877999 18.5124475 -47.22265625 23.87890625 C-49.59532755 30.82663274 -49.48875539 36.90724606 -47.22265625 43.87890625 C-45.72714545 46.76600613 -45.72714545 46.76600613 -44.22265625 48.87890625 C-44.22265625 49.53890625 -44.22265625 50.19890625 -44.22265625 50.87890625 C-42.90007153 51.5666503 -41.56279122 52.22601998 -40.22265625 52.87890625 C-39.21203125 53.41515625 -38.20140625 53.95140625 -37.16015625 54.50390625 C-31.82820759 56.73988472 -25.51845625 57.09691929 -20.06640625 55.08203125 C-17.55953085 53.70112531 -15.48535801 52.1610674 -13.53515625 50.06640625 C-13.10203125 49.67453125 -12.66890625 49.28265625 -12.22265625 48.87890625 C-7.71292931 49.52024571 -5.13961952 52.40703116 -1.97265625 55.44140625 C-1.41835937 55.96154297 -0.8640625 56.48167969 -0.29296875 57.01757812 C1.06991203 58.2982161 2.42446058 59.58771115 3.77734375 60.87890625 C1.7751928 66.92685446 -1.95065075 69.56619832 -7.22265625 72.87890625 C-18.74705627 78.60670507 -30.85763893 78.84333989 -43.22265625 75.87890625 C-54.31593293 72.10918498 -63.08998995 65.41728998 -68.53515625 55.00390625 C-74.48432419 42.21716128 -74.87948796 29.25805768 -70.22265625 15.87890625 C-68.78105402 12.70738135 -67.12858787 9.79208654 -65.22265625 6.87890625 C-64.66578125 6.01265625 -64.10890625 5.14640625 -63.53515625 4.25390625 C-46.49682961 -13.24491571 -19.14109603 -14.91828642 0 0 Z " fill="#FEFEFE" transform="translate(1213.22265625,302.12109375)"/>
<path d="M0 0 C0 7.26 0 14.52 0 22 C-3.3 22 -6.6 22 -10 22 C-15.74260058 23.43565014 -21.38711261 24.95586954 -25 30 C-25.91250602 34.08899926 -25.83755471 38.12502608 -25.8046875 42.30078125 C-25.81839386 43.49229294 -25.83210022 44.68380463 -25.84622192 45.91142273 C-25.88357312 49.71216411 -25.87980306 53.51160087 -25.875 57.3125 C-25.89312293 59.89129651 -25.91392433 62.4700757 -25.9375 65.04882812 C-25.98940016 71.36610456 -26.00442688 77.68252203 -26 84 C-33.26 84 -40.52 84 -48 84 C-48 56.61 -48 29.22 -48 1 C-40.74 1 -33.48 1 -26 1 C-25.67 3.97 -25.34 6.94 -25 10 C-23.865625 9.0925 -22.73125 8.185 -21.5625 7.25 C-14.16152571 1.74169109 -9.42248839 0 0 0 Z " fill="#FEFEFE" transform="translate(1203,132)"/>
<path d="M0 0 C4.64833239 3.36242077 8.43761561 7.51115306 10.625 12.875 C11.5231567 19.32618321 11.60969873 25.24677801 8.0625 30.875 C3.68159871 36.50906691 -1.22121612 40.17312282 -8.3828125 41.1484375 C-14.96921836 41.46439055 -19.9753352 39.6415494 -25.375 35.875 C-27.47307853 33.72299889 -28.96351259 31.51922751 -30.375 28.875 C-30.808125 28.111875 -31.24125 27.34875 -31.6875 26.5625 C-33.38350523 19.93266138 -33.14086241 13.68934993 -29.70703125 7.6953125 C-22.97522908 -1.50415908 -10.41180729 -6.13271225 0 0 Z " fill="#FBFBFB" transform="translate(595.375,197.125)"/>
<path d="M0 0 C-3.26691152 3.68871528 -7.01920026 5.84080381 -11.3125 8.125 C-24.23163691 15.21502234 -36.00912678 23.50451914 -47.45996094 32.75976562 C-48.82127788 33.85607033 -50.1949113 34.9370429 -51.5703125 36.015625 C-62.48940771 44.59234005 -72.9357338 53.79358826 -82.96411133 63.39355469 C-86.78540089 67 -86.78540089 67 -89 67 C-89 67.66 -89 68.32 -89 69 C-90.50390625 70.515625 -90.50390625 70.515625 -92.5625 72.25 C-93.28953125 72.86488281 -94.0165625 73.47976562 -94.765625 74.11328125 C-95.87164062 75.04720703 -95.87164062 75.04720703 -97 76 C-97.65484375 76.59167969 -98.3096875 77.18335938 -98.984375 77.79296875 C-99.58765625 78.33566406 -100.1909375 78.87835938 -100.8125 79.4375 C-101.62654297 80.17806641 -101.62654297 80.17806641 -102.45703125 80.93359375 C-104 82 -104 82 -107 82 C-106.51511898 76.87411492 -103.94307895 73.46732823 -101.0625 69.375 C-100.57104492 68.66859375 -100.07958984 67.9621875 -99.57324219 67.234375 C-95.81633014 61.93276724 -91.77483566 57.13123627 -87.296875 52.41796875 C-84.52793894 49.50305137 -81.94866269 46.45043914 -79.375 43.36328125 C-78 42 -78 42 -76 42 C-75.67 41.01 -75.34 40.02 -75 39 C-72.91095982 37.17871004 -70.82776166 35.48499915 -68.625 33.8125 C-67.99013672 33.32418701 -67.35527344 32.83587402 -66.70117188 32.33276367 C-64.80639209 30.88097198 -62.90358295 29.44021752 -61 28 C-60.04867187 27.2678125 -59.09734375 26.535625 -58.1171875 25.78125 C-46.59087643 17.11071153 -15.10088831 -5.24336399 0 0 Z " fill="#FEFEFE" transform="translate(416,71)"/>
</svg>
