<?xml version="1.0" encoding="UTF-8"?>
<svg version="1.1" xmlns="http://www.w3.org/2000/svg" width="1563" height="1563">
<path d="M0 0 C2.55747419 2.33251119 5.07843368 4.70240886 7.59179688 7.08227539 C8.5225 7.95883789 9.45320313 8.83540039 10.41210938 9.73852539 C26.84069864 25.65225858 39.02579652 44.9297571 49.59179688 65.08227539 C50.12933594 66.09813721 50.12933594 66.09813721 50.67773438 67.13452148 C71.45298148 106.93747376 78.00593366 157.32065211 67.59179688 201.08227539 C67.40987793 201.85474609 67.22795898 202.6272168 67.04052734 203.4230957 C56.95617299 244.57158721 29.32769385 282.1245569 -3.76757812 308.01196289 C-6.90844133 310.47447398 -9.93667673 313.05277222 -12.97070312 315.64477539 C-17.466859 319.46716139 -22.0148058 323.20752485 -26.63867188 326.87524414 C-30.12188894 329.6510095 -33.57798509 332.45928326 -37.03320312 335.26977539 C-37.71471436 335.82375 -38.39622559 336.37772461 -39.09838867 336.94848633 C-42.56865718 339.77008001 -46.03661315 342.59447488 -49.50195312 345.42211914 C-57.50296942 351.94565308 -65.55880663 358.38959019 -73.69482422 364.74389648 C-76.58143169 366.99872438 -79.46413562 369.25851171 -82.34570312 371.51977539 C-82.92223633 371.9718335 -83.49876953 372.4238916 -84.09277344 372.88964844 C-87.72024806 375.73930297 -91.32237848 378.61847731 -94.91357422 381.51367188 C-101.25648641 386.62328604 -107.68649296 391.58633534 -114.22290039 396.44580078 C-119.27904693 400.21220714 -124.25838974 404.06833196 -129.22070312 407.95727539 C-136.26978839 413.47468117 -143.42744879 418.82495741 -150.65136719 424.11083984 C-155.13924955 427.39803309 -159.57926061 430.72982197 -163.97070312 434.14477539 C-171.20695393 439.75057981 -178.64025873 445.07440147 -186.07763672 450.40893555 C-189.86052224 453.12503625 -193.63391336 455.85425003 -197.40820312 458.58227539 C-198.90687539 459.66434217 -200.40557334 460.74637338 -201.90429688 461.82836914 C-204.91912831 464.00556562 -207.93195007 466.18550456 -210.94335938 468.36743164 C-220.35295618 475.18155728 -229.80916956 481.92446043 -239.3125 488.60717773 C-241.39306556 490.07162055 -243.47136454 491.5392173 -245.54882812 493.00805664 C-255.63524389 500.13937525 -265.74962644 507.23017139 -275.87304688 514.30883789 C-278.35436232 516.04461172 -280.83460886 517.78190053 -283.31445312 519.51977539 C-294.04621982 527.03972045 -304.79489412 534.53498389 -315.55664062 542.01196289 C-319.42101164 544.69759136 -323.2800598 547.39060694 -327.13476562 550.09008789 C-337.97364851 557.67211718 -348.89000009 565.11756836 -359.91308594 572.42944336 C-365.50762924 576.14171898 -371.07554744 579.88530121 -376.59570312 583.70727539 C-406.87049269 604.63968316 -437.87718446 624.57329116 -469.21289062 643.87524414 C-472.64371543 645.98884288 -476.06503652 648.1165629 -479.47851562 650.25805664 C-493.25647567 658.88495794 -507.28540615 667.03466015 -521.40820312 675.08227539 C-522.39079102 675.64446777 -523.37337891 676.20666016 -524.38574219 676.78588867 C-585.32604664 711.64589633 -650.05343926 744.92409445 -719.40820312 759.08227539 C-720.29620605 759.26483887 -721.18420898 759.44740234 -722.09912109 759.63549805 C-777.74557833 770.87057751 -836.35386909 767.17710361 -885.25976562 736.20336914 C-894.85754052 729.73737439 -903.47362806 722.39816558 -911.8894043 714.47363281 C-913.50965628 712.98933511 -915.17863216 711.57490422 -916.85351562 710.15258789 C-922.85142811 704.9284622 -928.40509246 699.23412782 -934.01733398 693.60351562 C-935.96617182 691.64931915 -937.92029584 689.70052392 -939.875 687.75219727 C-945.43480321 682.19505531 -950.95175099 676.65900406 -956.04467773 670.6640625 C-958.04434407 668.34430634 -960.2149692 666.21779263 -962.40820312 664.08227539 C-965.96422156 660.5637451 -969.34211375 656.98037782 -972.58789062 653.17602539 C-974.67666725 650.77348403 -976.85677157 648.46816856 -979.03320312 646.14477539 C-985.07885949 639.51287357 -990.43022672 632.3921225 -995.80419922 625.21264648 C-997.2771829 623.25629099 -998.76920311 621.31694985 -1000.27148438 619.38305664 C-1041.48256004 565.98964079 -1073.03359224 504.1833052 -1096.40820312 441.14477539 C-1096.86525635 439.91927979 -1097.32230957 438.69378418 -1097.79321289 437.43115234 C-1101.78120863 426.51966709 -1105.50468933 415.84841585 -1104.40820312 404.08227539 C-1104.07820313 403.42227539 -1103.74820312 402.76227539 -1103.40820312 402.08227539 C-1092.97229979 402.13036711 -1084.21386414 406.57419547 -1075.09570312 411.26977539 C-1037.35982588 430.45616023 -985.35669921 413.70440155 -947.72460938 401.66430664 C-919.57516532 392.35802801 -892.30229364 380.50096809 -865.40820312 368.08227539 C-864.71670166 367.76327271 -864.0252002 367.44427002 -863.31274414 367.11560059 C-846.81404543 359.49788703 -830.34464977 351.86067342 -814.3828125 343.15844727 C-811.08927371 341.36345234 -807.77944473 339.59903837 -804.47070312 337.83227539 C-803.85235596 337.5005835 -803.23400879 337.1688916 -802.59692383 336.82714844 C-799.06768279 334.94041132 -795.50878454 333.14066883 -791.90820312 331.39477539 C-783.82221873 327.39537341 -776.04110125 322.83437634 -768.20507812 318.37133789 C-764.0385919 315.9996248 -759.85336395 313.66772728 -755.64794922 311.3659668 C-746.41363609 306.30639048 -737.39083152 300.92066725 -728.37890625 295.47607422 C-722.9679147 292.20880193 -717.54607592 288.98689022 -712.03320312 285.89477539 C-705.09599763 281.97154995 -698.39385923 277.706156 -691.67382812 273.42602539 C-685.90166928 269.75083515 -680.09177658 266.13702202 -674.28320312 262.51977539 C-665.92265026 257.30610151 -657.61016984 252.02733535 -649.35742188 246.64477539 C-646.33502628 244.67471979 -643.29229873 242.73877758 -640.24414062 240.80883789 C-633.89171265 236.7712916 -627.60951711 232.63063686 -621.34570312 228.45727539 C-620.75660156 228.06487671 -620.1675 227.67247803 -619.56054688 227.26818848 C-609.33078122 220.44443213 -599.29505182 213.39423699 -589.40820312 206.08227539 C-587.84586725 204.93101097 -586.2833624 203.77997582 -584.72070312 202.62915039 C-582.31761078 200.8585408 -579.91500093 199.08729594 -577.51391602 197.31396484 C-568.45567653 190.6277016 -559.31682819 184.05418559 -550.17871094 177.4777832 C-538.52959828 169.0914417 -526.95136943 160.61377173 -515.40820312 152.08227539 C-498.24545202 139.39737211 -480.99260647 126.85540829 -463.53466797 114.5793457 C-461.36151616 113.04940691 -459.19110105 111.51566015 -457.02148438 109.98071289 C-448.51769286 103.96486395 -439.9946077 97.97989884 -431.40820312 92.08227539 C-430.63943848 91.5529541 -429.87067383 91.02363281 -429.07861328 90.47827148 C-394.57843093 66.74251494 -359.26261069 44.35530509 -322.30126953 24.62719727 C-320.33235075 23.57577802 -318.36596739 22.51960013 -316.40185547 21.45922852 C-262.63551027 -7.50683016 -203.69633301 -30.3779179 -143.40820312 -40.91772461 C-142.30001221 -41.11688477 -142.30001221 -41.11688477 -141.16943359 -41.32006836 C-89.71980543 -50.19628238 -38.5273907 -34.68337387 0 0 Z " fill="#FEFEFE" transform="translate(1306.408203125,533.917724609375)"/>
<path d="M0 0 C0.9384375 0.17370117 1.876875 0.34740234 2.84375 0.52636719 C39.88876209 7.5633586 75.4719402 21.35433652 110.16015625 35.82617188 C112.69163006 36.8725376 115.23132742 37.89027076 117.78125 38.890625 C127.7250266 42.81056227 137.09524535 47.51915176 146.47705078 52.63330078 C149.04586711 54.02484653 151.62849114 55.38745534 154.21484375 56.74609375 C164.48641423 62.18486277 174.44546971 68.00599339 184.25 74.25 C185.27303223 74.8992041 186.29606445 75.5484082 187.35009766 76.21728516 C193.89954102 80.44720111 199.98077177 85.05232238 206 90 C207.6225461 91.27396487 209.24726883 92.54516673 210.875 93.8125 C228.82399082 108.2222532 248.54352582 126.03096717 251.875 150.0625 C252.52783938 160.65858535 248.98943712 168.60602964 242.54296875 176.8671875 C227.51550068 193.37838026 204.1050916 199.42588001 183.51480103 205.39396667 C174.27962451 208.07234552 165.12289586 210.96239066 156 214 C154.24067139 214.58394531 154.24067139 214.58394531 152.44580078 215.1796875 C134.54631148 221.15590136 117.02341943 227.87996972 99.625 235.1875 C98.74018951 235.55896149 97.85537903 235.93042297 96.9437561 236.31314087 C87.31681248 240.36659671 77.74036621 244.5269292 68.2109375 248.8046875 C67.4036319 249.16688889 66.59632629 249.52909027 65.76455688 249.90226746 C58.77798032 253.05893252 51.92790752 256.45773291 45.09863281 259.93896484 C42.8517605 261.07494752 40.59519672 262.18964742 38.3359375 263.30078125 C26.68687402 269.04180716 15.2719777 275.14395441 3.89892578 281.41162109 C0.89745211 283.05618802 -2.11388759 284.68119033 -5.12890625 286.30078125 C-16.03723766 292.16085637 -26.82954201 298.14256219 -37.45898438 304.49316406 C-40.48941621 306.29022644 -43.53317159 308.06359195 -46.578125 309.8359375 C-69.53909505 323.20479661 -92.15626198 337.08012586 -114.52685547 351.41845703 C-116.97305255 352.98276747 -119.42583404 354.53634264 -121.87890625 356.08984375 C-137.92752409 366.30119229 -153.80436036 376.78400696 -169.6875 387.25 C-170.64301758 387.87941498 -171.59853516 388.50882996 -172.58300781 389.15731812 C-185.76222477 397.84220757 -198.89171461 406.58958391 -211.90625 415.51953125 C-216.61529641 418.75023083 -221.3659578 421.91603587 -226.12109375 425.07836914 C-230.18585116 427.79153956 -234.22070212 430.5470475 -238.25 433.3125 C-239.0637207 433.87026123 -239.87744141 434.42802246 -240.71582031 435.00268555 C-242.36809922 436.13552484 -244.02012274 437.26873671 -245.671875 438.40234375 C-247.77009393 439.84222888 -249.86927611 441.28069573 -251.96875 442.71875 C-266.29611563 452.54111922 -280.54993941 462.47082887 -294.77001953 472.44775391 C-304.2982014 479.13192638 -313.87567521 485.73918949 -323.49462891 492.29199219 C-326.14797001 494.10087685 -328.79875888 495.91345907 -331.44921875 497.7265625 C-342.20148501 505.0773528 -352.99263886 512.36413005 -363.84521484 519.56591797 C-365.98044845 520.98698778 -368.11014533 522.41598334 -370.23828125 523.84765625 C-382.05766192 531.78861366 -394.03138836 539.47944717 -406.04638672 547.12060547 C-408.68048959 548.7966944 -411.31139306 550.47766169 -413.94140625 552.16015625 C-474.59768724 590.85379274 -540.10459994 630.73517876 -610.53710938 648.38183594 C-612.04125273 648.7593628 -613.54323682 649.1458162 -615.04101562 649.54785156 C-635.49146583 654.97899013 -660.73212994 654.74755902 -679.8125 645.3125 C-695.917177 635.76455628 -705.26643404 620.45139824 -710.2578125 602.77734375 C-730.96230035 521.71775482 -698.14508593 420.93583638 -656.58251953 320.58374023 C-655.17298638 318.22248544 -653.85515185 316.0410802 -652 314 C-650.68 314 -649.36 314 -648 314 C-647.05462419 318.41175378 -647.23695729 321.59130877 -648 326 C-648.49589638 332.17980582 -648.49589638 332.17980582 -647 338 C-639.53653412 340.21233912 -632.97310462 336.66155849 -626.44775391 333.17749023 C-608.34256803 323.13542272 -592.04348222 309.99368288 -576 297 C-575.15179687 296.31550781 -574.30359375 295.63101562 -573.4296875 294.92578125 C-567.60000442 290.19235052 -561.88044904 285.34376889 -556.19238281 280.44238281 C-552.66758029 277.41093702 -549.10986967 274.43036479 -545.5 271.5 C-541.39849476 268.16976907 -537.37467462 264.76326577 -533.375 261.3125 C-522.22063131 251.70739217 -510.88535399 242.33810527 -499.171875 233.421875 C-495.77865521 230.83099289 -492.41661527 228.20364529 -489.0625 225.5625 C-488.48161621 225.10536621 -487.90073242 224.64823242 -487.30224609 224.17724609 C-485.53439262 222.78538582 -483.76709754 221.39281985 -482 220 C-473.5694696 213.35508663 -465.11107214 206.75088326 -456.59130859 200.22070312 C-453.97462222 198.21342606 -451.36279461 196.19983871 -448.75 194.1875 C-445.18381669 191.44207047 -441.61304891 188.70281321 -438.03515625 185.97265625 C-436.62759182 184.89845368 -435.22004003 183.82423455 -433.8125 182.75 C-433.09723145 182.20424316 -432.38196289 181.65848633 -431.64501953 181.09619141 C-427.19487955 177.69500592 -422.77000875 174.26357128 -418.35961914 170.81103516 C-409.88849539 164.18258675 -401.29548969 157.74486175 -392.6171875 151.390625 C-388.21923766 148.16902089 -383.85527602 144.90396618 -379.5 141.625 C-373.37724358 137.0210265 -367.21147789 132.48383527 -361 128 C-359.62870497 127.00288092 -358.25762939 126.00546001 -356.88671875 125.0078125 C-347.7554713 118.37294147 -338.55284268 111.86429047 -329.22119141 105.51464844 C-326.78259619 103.85175058 -324.35012227 102.18011675 -321.91796875 100.5078125 C-308.74459169 91.46464721 -295.44658982 82.63171262 -282 74 C-280.55802246 73.071875 -280.55802246 73.071875 -279.08691406 72.125 C-263.41915982 62.07418538 -247.39313995 52.81502462 -231 44 C-229.88189941 43.39768555 -228.76379883 42.79537109 -227.61181641 42.17480469 C-155.89925485 3.74957631 -81.14011921 -15.12108618 0 0 Z " fill="#FFFFFF" transform="translate(899,182)"/>
<path d="M0 0 C3.98821808 0.01137402 7.97616849 0.00461796 11.9643774 -0.00687885 C32.03677437 -0.05591634 51.91175464 0.54528451 71.91943359 2.26074219 C72.77758667 2.33399719 73.63573975 2.4072522 74.51989746 2.48272705 C79.22500008 2.89730027 83.91567142 3.39609814 88.60693359 3.94824219 C89.30435669 4.02966461 90.00177979 4.11108704 90.72033691 4.19497681 C169.37110926 13.46917566 246.02964893 34.99202136 317.91943359 68.26074219 C319.24998779 68.87127441 319.24998779 68.87127441 320.60742188 69.49414062 C331.73470232 74.60870259 342.62635364 80.11272307 353.41113281 85.91308594 C355.12428121 86.83352386 356.83955257 87.75001856 358.55664062 88.66308594 C372.35915131 96.00320692 385.74986443 103.83864556 398.91943359 112.26074219 C400.34570068 113.17243164 400.34570068 113.17243164 401.80078125 114.10253906 C421.86642638 126.9727096 441.06066113 140.68473115 459.91943359 155.26074219 C460.60730957 155.79119141 461.29518555 156.32164062 462.00390625 156.86816406 C473.55692976 165.79294139 484.68621363 175.12583784 495.44287109 184.99902344 C497.55690938 186.92966724 499.69317307 188.82387351 501.85693359 190.69824219 C512.19252988 199.71036107 522.00660674 209.18732526 531.68481445 218.89575195 C533.74300516 220.9593428 535.80654339 223.01747894 537.87060547 225.07519531 C539.20621293 226.41146308 540.54151043 227.74804076 541.87646484 229.08496094 C542.48077835 229.68725021 543.08509186 230.28953949 543.7077179 230.91007996 C547.421995 234.64449527 550.94630938 238.50083936 554.38630676 242.48950195 C556.47127513 244.89829149 558.63278651 247.23327742 560.79443359 249.57324219 C565.71561707 254.97544359 570.33445012 260.57304117 574.91943359 266.26074219 C575.92877454 267.49079235 576.93925958 268.71990429 577.95068359 269.94824219 C585.5461066 279.19210666 592.83732395 288.61880652 599.91943359 298.26074219 C600.43473633 298.95893066 600.95003906 299.65711914 601.48095703 300.37646484 C625.89442198 333.51117066 647.31502925 368.5618223 665.91943359 405.26074219 C666.31356445 406.03385742 666.70769531 406.80697266 667.11376953 407.60351562 C669.09825925 411.49886241 671.05361403 415.40693116 672.97460938 419.33398438 C673.61704221 420.64408255 674.26402671 421.95195643 674.91503906 423.2578125 C682.84605828 439.19491974 689.40493286 455.7081644 695.91943359 472.26074219 C696.36963867 473.40043457 696.81984375 474.54012695 697.28369141 475.71435547 C728.86835232 556.32940032 744.94059759 644.22197222 745.10693359 738.51074219 C745.10666672 739.17349152 745.10639984 739.83624084 745.10612488 740.51907349 C745.09586521 760.84210656 744.87917466 781.01896014 742.91943359 801.26074219 C742.78915464 802.6516861 742.65894914 804.04263689 742.52880859 805.43359375 C734.96534604 885.02666182 715.58346571 963.64551612 646.91943359 1107.26074219 C646.38705078 1108.18097168 645.85466797 1109.10120117 645.30615234 1110.04931641 C625.65766206 1143.95013312 625.65766206 1143.95013312 613.95068359 1159.52636719 C611.84286636 1162.36381347 609.82349571 1165.25174024 607.8059082 1168.15356445 C595.33143652 1186.06030486 581.53069998 1202.92885009 567.38720703 1219.53417969 C565.86496283 1221.32481691 564.34909415 1223.12072782 562.83349609 1224.91699219 C558.02131528 1230.60047395 553.20901119 1236.16313872 547.84181213 1241.3374176 C546.01001292 1243.17011828 544.32065681 1245.06067712 542.63793945 1247.0300293 C539.15402666 1251.03990924 535.497017 1254.82831358 531.73583984 1258.57714844 C531.07664047 1259.23730453 530.4174411 1259.89746063 529.73826599 1260.57762146 C528.35546525 1261.96109725 526.97142284 1263.34333302 525.58618164 1264.72436523 C523.48713017 1266.81805888 521.39347419 1268.91704093 519.30029297 1271.01660156 C517.94579574 1272.37043789 516.59098828 1273.72396394 515.23583984 1275.07714844 C514.62100235 1275.69401016 514.00616486 1276.31087189 513.37269592 1276.94642639 C509.04914909 1281.2471619 504.54368306 1285.28687701 499.91943359 1289.26074219 C498.71701058 1290.30692787 497.51509854 1291.35370149 496.31396484 1292.40136719 C493.14897076 1295.15140897 489.97792108 1297.89439145 486.80371094 1300.63378906 C485.61540078 1301.65981898 484.42808698 1302.68700505 483.2421875 1303.71582031 C474.72740137 1311.09442697 465.8819518 1317.96865351 456.89306641 1324.75878906 C455.16738656 1326.07204765 453.45701082 1327.4009648 451.75537109 1328.74511719 C415.74249776 1357.06130783 375.43827199 1381.12475289 334.26318359 1401.11767578 C331.46525063 1402.48225101 328.67747046 1403.86686292 325.88818359 1405.24902344 C301.53942174 1417.23310986 276.47150597 1427.15441852 250.91943359 1436.26074219 C249.89076172 1436.62876953 248.86208984 1436.99679687 247.80224609 1437.37597656 C195.86834852 1455.77749116 141.98377621 1467.3444593 87.29443359 1473.51074219 C86.61694061 1473.58796509 85.93944763 1473.66518799 85.24142456 1473.74475098 C80.13985585 1474.31781181 75.0331846 1474.80982774 69.91943359 1475.26074219 C68.93252533 1475.34794525 67.94561707 1475.43514832 66.92880249 1475.5249939 C48.94973707 1477.06620193 31.06171959 1477.62894947 13.01977539 1477.5788002 C10.94034751 1477.57312877 8.86092792 1477.57032665 6.78149414 1477.56771851 C-81.47566679 1477.40737121 -166.70572515 1461.69957877 -313.08056641 1405.26074219 C-313.79035645 1404.9168042 -314.50014648 1404.57286621 -315.23144531 1404.21850586 C-335.64211098 1394.31005544 -355.7200383 1384.11902091 -375.08056641 1372.26074219 C-376.86283281 1371.18604953 -378.64538441 1370.11182968 -380.42822266 1369.03808594 C-400.03027084 1357.14902936 -418.76978712 1344.04232548 -437.08056641 1330.26074219 C-437.82709473 1329.70112793 -438.57362305 1329.14151367 -439.34277344 1328.56494141 C-447.80440761 1322.21180418 -456.0796005 1315.70991442 -464.10009766 1308.80761719 C-466.90964342 1306.40679958 -469.76389117 1304.07722555 -472.64306641 1301.76074219 C-478.14086551 1297.28282466 -483.34907692 1292.52069923 -488.53808594 1287.69433594 C-491.16899004 1285.24915251 -493.81168183 1282.81687182 -496.45556641 1280.38574219 C-497.39142578 1279.52207031 -498.32728516 1278.65839844 -499.29150391 1277.76855469 C-501.30557828 1275.95758026 -503.3224395 1274.25491148 -505.43212891 1272.56542969 C-506.30611328 1271.80488281 -507.18009766 1271.04433594 -508.08056641 1270.26074219 C-508.08056641 1269.60074219 -508.08056641 1268.94074219 -508.08056641 1268.26074219 C-508.94681641 1267.88949219 -508.94681641 1267.88949219 -509.83056641 1267.51074219 C-512.4099662 1266.0777423 -514.14178233 1264.47649542 -516.08056641 1262.26074219 C-516.08056641 1261.60074219 -516.08056641 1260.94074219 -516.08056641 1260.26074219 C-517.03962891 1259.85855469 -517.03962891 1259.85855469 -518.01806641 1259.44824219 C-520.08056641 1258.26074219 -520.08056641 1258.26074219 -521.08056641 1255.26074219 C-522.40487791 1254.5763291 -523.73949398 1253.9117007 -525.08056641 1253.26074219 C-526.72119141 1251.59667969 -526.72119141 1251.59667969 -528.33056641 1249.63574219 C-530.759031 1246.7577533 -533.24754522 1244.06455748 -535.95556641 1241.44824219 C-539.87903819 1237.58513151 -543.28505748 1233.40635039 -546.72900391 1229.11621094 C-549.09546028 1226.24265676 -551.55814944 1223.49791602 -554.08056641 1220.76074219 C-558.97381115 1215.43086945 -563.55542633 1209.90429087 -568.08056641 1204.26074219 C-569.01643853 1203.10553026 -569.9526533 1201.95059586 -570.88916016 1200.79589844 C-598.99853767 1166.03366003 -623.76667553 1128.45988501 -644.66552734 1088.93505859 C-646.10828425 1086.20835756 -647.56675283 1083.49043147 -649.02587891 1080.77246094 C-685.84906512 1011.71543557 -709.89209215 936.17539759 -730.28369141 800.63183594 C-730.38333946 799.56770226 -730.38333946 799.56770226 -730.48500061 798.48207092 C-731.6613304 785.36830905 -732.24541887 772.30134005 -732.28369141 759.13574219 C-732.29071527 757.63080314 -732.29780207 756.12586438 -732.3049469 754.6209259 C-732.3243539 749.83419365 -732.32938161 745.04750982 -732.33056641 740.26074219 C-732.33100826 739.44458309 -732.33145012 738.628424 -732.33190536 737.78753281 C-732.33908386 712.49848663 -731.9776567 687.41137445 -729.08056641 662.26074219 C-728.99335327 661.48603577 -728.90614014 660.71132935 -728.81628418 659.91314697 C-727.47055749 647.99406925 -725.88187465 636.11930078 -724.08056641 624.26074219 C-723.97248657 623.54696411 -723.86440674 622.83318604 -723.75305176 622.09777832 C-718.16569362 585.50089841 -709.13250335 549.56934966 -698.08056641 514.26074219 C-697.72704102 513.11782715 -697.37351562 511.97491211 -697.00927734 510.79736328 C-688.20875083 482.55643199 -677.20576398 454.74622344 -664.42529297 428.07373047 C-663.00918619 425.11142431 -661.61813909 422.13812698 -660.22900391 419.16308594 C-650.26255101 397.95107205 -639.22570247 377.30523139 -627.08056641 357.26074219 C-626.63084473 356.51356934 -626.18112305 355.76639648 -625.71777344 354.99658203 C-620.0590282 345.59919738 -614.3074537 336.29562341 -608.08056641 327.26074219 C-607.34845947 326.19847412 -607.34845947 326.19847412 -606.6015625 325.11474609 C-594.49945984 307.59616606 -582.08890062 290.38814321 -568.50439453 273.984375 C-566.49216168 271.54844154 -564.50748891 269.09031743 -562.51806641 266.63574219 C-553.08269545 255.145481 -543.26402241 244.1168568 -533.03466797 233.328125 C-530.37363385 230.51282804 -527.73257194 227.67911513 -525.09033203 224.84619141 C-510.78457389 209.52525534 -510.78457389 209.52525534 -508.08056641 207.26074219 C-507.42056641 207.26074219 -506.76056641 207.26074219 -506.08056641 207.26074219 C-505.42056641 205.94074219 -504.76056641 204.62074219 -504.08056641 203.26074219 C-503.42056641 203.26074219 -502.76056641 203.26074219 -502.08056641 203.26074219 C-502.08056641 202.60074219 -502.08056641 201.94074219 -502.08056641 201.26074219 C-500.75244141 199.92089844 -500.75244141 199.92089844 -498.83056641 198.32324219 C-495.75127601 195.71100466 -492.74278363 193.04554476 -489.78515625 190.29589844 C-484.66866876 185.54005168 -479.43175822 181.01672985 -473.98681641 176.63574219 C-471.27853145 174.42252008 -468.62774308 172.15840865 -465.98583984 169.8671875 C-458.88587106 163.70972691 -451.59213105 157.90607959 -444.08056641 152.26074219 C-443.09443359 151.51179687 -442.10830078 150.76285156 -441.09228516 149.99121094 C-369.47043878 95.82422514 -288.61583426 54.91328483 -76.45556641 4.01074219 C-75.21492432 3.85951904 -73.97428223 3.7082959 -72.69604492 3.55249023 C-68.49441183 3.07183057 -64.29164969 2.64866903 -60.08056641 2.26074219 C-59.13940979 2.17320679 -58.19825317 2.08567139 -57.22857666 1.9954834 C-38.13508204 0.28151709 -19.1537766 -0.05504779 0 0 Z M-279.08056641 125.26074219 C-279.69603333 125.54667236 -280.31150024 125.83260254 -280.94561768 126.12719727 C-297.19184107 133.68525752 -313.05849717 141.73812728 -328.53564453 150.78613281 C-330.86390257 152.13520021 -333.20764956 153.44766039 -335.56494141 154.74511719 C-358.78225934 167.63557098 -381.06113012 183.06276095 -402.08056641 199.26074219 C-402.72461426 199.75606445 -403.36866211 200.25138672 -404.03222656 200.76171875 C-411.83201225 206.78239623 -419.5015595 212.96450091 -427.08056641 219.26074219 C-427.83587646 219.88650146 -427.83587646 219.88650146 -428.60644531 220.52490234 C-436.47957106 227.06121929 -444.06700882 233.85006618 -451.54248047 240.8359375 C-452.94533978 242.13547511 -454.36746816 243.41413252 -455.79150391 244.69042969 C-462.88347652 251.05085212 -469.65029633 257.72229602 -476.39306641 264.44824219 C-476.86928436 264.92187195 -477.34550232 265.39550171 -477.83615112 265.88348389 C-482.93115368 270.9566355 -487.91312301 276.06976776 -492.59399414 281.52905273 C-494.65618528 283.93127342 -496.80743184 286.2479046 -498.95556641 288.57324219 C-503.12518998 293.14087528 -507.06386565 297.848658 -510.94384766 302.66308594 C-512.86328224 304.99658502 -514.84763888 307.22568486 -516.89306641 309.44824219 C-522.20742295 315.362437 -526.82440453 321.80631608 -531.54248047 328.19628906 C-532.97098899 330.11366495 -534.42142405 332.01088827 -535.88525391 333.90136719 C-556.46294028 360.59383281 -573.93881383 389.73399713 -590.08056641 419.26074219 C-590.5352832 420.08751465 -590.99 420.91428711 -591.45849609 421.76611328 C-602.6613815 442.21288606 -612.47052708 463.59728973 -621.08056641 485.26074219 C-621.48452637 486.27555664 -621.88848633 487.29037109 -622.3046875 488.3359375 C-648.50519669 554.66658609 -664.12582792 624.12738136 -669.08056641 695.26074219 C-669.1289566 695.944328 -669.1773468 696.62791382 -669.22720337 697.33221436 C-670.12014587 710.30655099 -670.28200979 723.25879742 -670.26806641 736.26074219 C-670.26746216 737.30943481 -670.26685791 738.35812744 -670.26623535 739.43859863 C-670.14172322 819.58493086 -655.83870634 898.94545021 -588.08056641 1062.26074219 C-587.64099609 1063.05609375 -587.20142578 1063.85144531 -586.74853516 1064.67089844 C-575.20347733 1085.45200253 -562.9235819 1105.92223386 -549.08056641 1125.26074219 C-548.30567871 1126.35008057 -548.30567871 1126.35008057 -547.51513672 1127.46142578 C-536.79565536 1142.5164125 -525.57603714 1157.05616523 -513.74853516 1171.25634766 C-512.25001346 1173.05711802 -510.75836286 1174.86332345 -509.26806641 1176.67089844 C-503.05050013 1184.16504036 -496.4713053 1191.27834132 -489.77587891 1198.34667969 C-486.97560871 1201.30292161 -484.21180378 1204.28875032 -481.46801758 1207.29736328 C-472.85548638 1216.73213815 -464.0195578 1226.10824946 -454.25634766 1234.36621094 C-451.81438582 1236.49251523 -449.45953541 1238.69851391 -447.09985352 1240.9152832 C-441.50367289 1246.17135209 -435.83640181 1251.23010642 -429.83837891 1256.03027344 C-427.35318466 1258.04025349 -424.92240351 1260.10231313 -422.50195312 1262.18945312 C-415.30893919 1268.37610002 -407.82814037 1274.1087131 -400.1796875 1279.71923828 C-398.10567912 1281.24230049 -396.04037831 1282.77665666 -393.97509766 1284.31152344 C-363.77095648 1306.59888972 -331.28590765 1326.64880745 -297.51220703 1343.07373047 C-294.70103182 1344.44601299 -291.89923568 1345.83677304 -289.09619141 1347.22558594 C-272.68497001 1355.30015554 -256.06467553 1362.49539275 -239.08056641 1369.26074219 C-238.1352002 1369.64069336 -237.18983398 1370.02064453 -236.21582031 1370.41210938 C-177.25599047 1394.01344322 -114.75283047 1406.74566088 -51.74169922 1412.90209961 C-48.6983233 1413.20022706 -45.65707576 1413.51324444 -42.61572266 1413.83105469 C24.60004048 1420.4969059 95.49897583 1412.83885206 160.91943359 1397.26074219 C162.04526855 1396.99535645 163.17110352 1396.7299707 164.33105469 1396.45654297 C263.45566745 1372.94378568 355.43610807 1326.49268274 448.05615234 1250.87402344 C451.1212142 1248.22020678 454.32658472 1245.74338057 457.52490234 1243.25292969 C460.16313419 1241.05798965 462.52025835 1238.71587487 464.91943359 1236.26074219 C467.4780272 1233.67352738 470.04271018 1231.09237546 472.60693359 1228.51074219 C473.28304688 1227.82625 473.95916016 1227.14175781 474.65576172 1226.43652344 C475.30351563 1225.78554687 475.95126953 1225.13457031 476.61865234 1224.46386719 C477.20477295 1223.87250977 477.79089355 1223.28115234 478.39477539 1222.671875 C479.91943359 1221.26074219 479.91943359 1221.26074219 481.91943359 1220.26074219 C481.91943359 1219.60074219 481.91943359 1218.94074219 481.91943359 1218.26074219 C482.90943359 1217.93074219 483.89943359 1217.60074219 484.91943359 1217.26074219 C486.39568563 1215.80447647 486.39568563 1215.80447647 487.85693359 1213.94824219 C491.03788901 1210.18647538 494.41352208 1206.71401076 497.91943359 1203.26074219 C501.847274 1199.37696023 505.63655086 1195.4496299 509.22021484 1191.24121094 C511.19973792 1188.93404267 513.24585479 1186.69427436 515.29443359 1184.44824219 C520.02510236 1179.19903469 524.49113985 1173.76580301 528.91943359 1168.26074219 C529.82154021 1167.15117435 530.72389443 1166.04180778 531.62646484 1164.93261719 C543.61699754 1150.13804422 555.05812404 1134.92171899 565.67382812 1119.109375 C566.86821048 1117.33676363 568.07725808 1115.57514858 569.29052734 1113.81542969 C576.74675406 1102.91928639 583.44194489 1091.56240685 590.16992188 1080.20751953 C591.71123134 1077.61142614 593.26342669 1075.0224064 594.82177734 1072.43652344 C599.83976509 1064.07635227 604.43946601 1055.60609544 608.67626953 1046.82519531 C610.16214852 1043.76005924 611.67044654 1040.70627205 613.17724609 1037.65136719 C620.66793744 1022.4136338 627.67888704 1007.06000385 633.91943359 991.26074219 C634.34788574 990.18518066 634.77633789 989.10961914 635.21777344 988.00146484 C665.60207196 911.32572866 681.98853553 829.48013124 629.52490234 475.21386719 C622.7762805 459.67410646 615.68353281 444.25214455 607.91455078 429.19335938 C607.22823679 427.86046891 606.54689048 426.52501285 605.86962891 425.1875 C585.01320222 384.01227896 558.61126741 345.7471058 529.41210938 310.08984375 C528.09299376 308.4734201 526.78467684 306.84819698 525.47802734 305.22167969 C520.69483676 299.28333574 515.67371411 293.635425 510.48974609 288.04980469 C508.33865931 285.71564668 506.24017701 283.35327602 504.16943359 280.94824219 C501.46413206 277.82426303 498.6007436 274.92114405 495.65380859 272.02636719 C493.9074094 270.24850134 492.2872412 268.40588824 490.66943359 266.51074219 C487.60608802 262.96591405 484.39699705 259.59367292 481.10693359 256.26074219 C480.38618652 255.52065918 480.38618652 255.52065918 479.65087891 254.765625 C478.44594479 253.55727021 477.18647221 252.40380853 475.91943359 251.26074219 C475.25943359 251.26074219 474.59943359 251.26074219 473.91943359 251.26074219 C473.91943359 250.60074219 473.91943359 249.94074219 473.91943359 249.26074219 C472.640694 247.9282191 472.640694 247.9282191 470.85693359 246.51074219 C467.31983157 243.51298551 463.91978712 240.40588944 460.55102539 237.22265625 C454.83423428 231.8210317 449.07229296 226.57882359 442.92333984 221.66699219 C440.55696621 219.77143151 438.21552163 217.85509924 435.88427734 215.91699219 C422.35728768 204.67232162 408.33829756 194.32970808 393.91943359 184.26074219 C392.92121582 183.56029785 392.92121582 183.56029785 391.90283203 182.84570312 C373.51771277 169.9568826 354.38341134 158.43907303 334.91943359 147.26074219 C334.13874512 146.81037598 333.35805664 146.36000977 332.55371094 145.89599609 C317.30974574 137.11455978 301.63027498 129.57964411 285.55444336 122.44873047 C282.5833076 121.10920053 279.63580926 119.72269525 276.68505859 118.33886719 C269.83940359 115.17534102 262.89004818 112.35361595 255.85693359 109.63574219 C255.20546356 109.38361969 254.55399353 109.13149719 253.88278198 108.87173462 C188.87048926 83.80046057 120.53031611 67.76360513 50.91943359 63.26074219 C49.67436035 63.1746167 48.42928711 63.08849121 47.14648438 62.99975586 C34.24030825 62.15790039 21.3496257 62.06028981 8.41943359 62.07324219 C6.74084763 62.07414856 6.74084763 62.07414856 5.02835083 62.07507324 C-78.93678497 62.19755741 -162.16305959 77.96539291 -279.08056641 125.26074219 Z " fill="#FFFFFF" transform="translate(775.08056640625,42.7392578125)"/>
<path d="M0 0 C4.73226084 4.63493928 5.47258224 10.55396825 5.57421875 16.90625 C2.49969753 81.40435821 -49.73737824 147.14704019 -90.12841797 193.9140625 C-91.51920991 195.53338833 -92.89375647 197.16540342 -94.265625 198.80078125 C-106.44182493 213.26623948 -119.63641388 226.7331601 -132.98046875 240.11328125 C-133.54090881 240.67640015 -134.10134888 241.23951904 -134.67877197 241.81970215 C-140.76689655 247.92991506 -146.91591708 253.8858916 -153.48046875 259.48828125 C-155.25617096 261.10795942 -157.02755182 262.73239843 -158.79296875 264.36328125 C-163.22678186 268.40230278 -167.76101459 272.26335003 -172.4296875 276.02734375 C-174.65335549 277.82108361 -176.86245353 279.62700508 -179.0625 281.44921875 C-196.64731399 295.96997828 -215.20527886 308.95505421 -234.29150391 321.40625 C-236.26109068 322.6921661 -238.22758205 323.9828549 -240.18896484 325.28125 C-266.1222223 342.40401242 -294.72245394 354.95019551 -323.48046875 366.48828125 C-324.72865768 366.99668486 -325.9766196 367.50564613 -327.22436523 368.01513672 C-375.24514785 387.54919131 -426.20099934 398.81411098 -477.48046875 405.48828125 C-478.18792236 405.58129517 -478.89537598 405.67430908 -479.62426758 405.7701416 C-526.2687424 411.80065724 -576.8450368 411.30959032 -623.36975098 404.78253174 C-625.46498759 404.49043944 -627.56163498 404.21199359 -629.65917969 403.93701172 C-645.8045003 401.79976995 -661.74332521 398.74246031 -677.66796875 395.36328125 C-678.47858765 395.19324585 -679.28920654 395.02321045 -680.12438965 394.84802246 C-682.42659098 394.36138688 -684.72533362 393.86106148 -687.0234375 393.35546875 C-687.70526596 393.21182892 -688.38709442 393.06818909 -689.08958435 392.92019653 C-693.02802181 392.03195517 -696.23292184 390.91999883 -699.48046875 388.48828125 C-699.91796875 385.92578125 -699.91796875 385.92578125 -699.48046875 383.48828125 C-696.83601415 380.84382665 -695.33536151 381.09783805 -691.63671875 380.8125 C-690.42338867 380.70969727 -689.21005859 380.60689453 -687.95996094 380.50097656 C-686.64672852 380.39366211 -685.33349609 380.28634766 -683.98046875 380.17578125 C-639.36855822 376.1726625 -598.10205249 361.66427069 -557.48046875 343.48828125 C-555.44291653 342.58807028 -553.40516929 341.68830055 -551.3671875 340.7890625 C-539.46675161 335.50100331 -527.91710034 329.71111941 -516.48046875 323.48828125 C-515.69526855 323.06466309 -514.91006836 322.64104492 -514.10107422 322.20458984 C-501.06006714 315.16662804 -488.24168346 307.76556765 -475.47216797 300.24804688 C-472.56253284 298.53655267 -469.64888567 296.83208124 -466.734375 295.12890625 C-455.67538809 288.65100395 -444.76300311 281.98214557 -433.96679688 275.07568359 C-431.29349498 273.36890738 -428.61408898 271.67201741 -425.93359375 269.9765625 C-424.03248714 268.77223792 -422.13144431 267.56781267 -420.23046875 266.36328125 C-419.38033203 265.82582275 -418.53019531 265.28836426 -417.65429688 264.73461914 C-404.75777819 256.54169557 -392.12951268 247.93119633 -379.48046875 239.36328125 C-378.81570526 238.91317688 -378.15094177 238.46307251 -377.46603394 237.99932861 C-366.75518294 230.74386367 -356.10706046 223.40438797 -345.50390625 215.9921875 C-341.72525264 213.35112402 -337.93074505 210.73505735 -334.12329102 208.13574219 C-325.55959542 202.28903379 -317.15003528 196.24181168 -308.76269531 190.14550781 C-305.00752755 187.41871291 -301.24360797 184.70405839 -297.48046875 181.98828125 C-295.98042582 180.90500736 -294.48042584 179.82167399 -292.98046875 178.73828125 C-283.98046875 172.23828125 -283.98046875 172.23828125 -281.73071289 170.61352539 C-280.22981325 169.52949709 -278.72899953 168.44534983 -277.22827148 167.36108398 C-273.49272908 164.6624047 -269.75574621 161.96576813 -266.015625 159.2734375 C-257.50555446 153.14380627 -249.03563739 146.96378665 -240.6015625 140.72998047 C-235.10853258 136.67457947 -229.58497113 132.66394026 -224.04296875 128.67578125 C-218.21825594 124.48241078 -212.4405552 120.23696027 -206.7109375 115.9140625 C-195.50481427 107.47621482 -184.15385499 99.23174736 -172.76806641 91.03881836 C-168.55487115 88.00227703 -164.37530146 84.9299927 -160.23046875 81.80078125 C-155.57696951 78.28834552 -150.86082894 74.87285113 -146.10791016 71.49707031 C-142.01989011 68.59274563 -137.95381878 65.65982989 -133.89624023 62.71313477 C-119.99207771 52.62324426 -105.82576883 42.93896351 -91.48046875 33.48828125 C-90.80902832 33.04484375 -90.13758789 32.60140625 -89.44580078 32.14453125 C-49.62247266 5.90009128 -49.62247266 5.90009128 -27.48046875 -1.51171875 C-26.43052734 -1.87910156 -26.43052734 -1.87910156 -25.359375 -2.25390625 C-17.03850665 -4.77957523 -7.19696581 -5.37878498 0 0 Z " fill="#FFFFFF" transform="translate(1331.48046875,977.51171875)"/>
<path d="M0 0 C2.50080272 2.54590738 4.74775875 5.23452679 7 8 C7.76828125 8.87011719 8.5365625 9.74023438 9.328125 10.63671875 C23.24703394 26.62638561 33.67645352 46.48868858 39 67 C39.26385498 67.93448975 39.52770996 68.86897949 39.79956055 69.83178711 C42.45953912 80.37529501 42.49033443 90.7551843 42.44604492 101.57519531 C42.43755252 104.73048619 42.46635819 107.88395002 42.49804688 111.0390625 C42.55819843 127.7559487 40.4211409 142.82252616 33.75 158.25 C33.36013916 159.17401611 32.97027832 160.09803223 32.56860352 161.05004883 C16.65586067 197.98424373 -12.58667676 225.42886697 -49.4453125 240.921875 C-61.77593575 245.8172218 -73.75826022 248.47076401 -87.0625 248.3984375 C-88.25625244 248.40130768 -89.45000488 248.40417786 -90.67993164 248.40713501 C-93.18408691 248.40916109 -95.68825853 248.40373422 -98.19238281 248.39111328 C-101.99059984 248.37503978 -105.78775294 248.39101316 -109.5859375 248.41015625 C-112.03646064 248.40817356 -114.48698314 248.40432936 -116.9375 248.3984375 C-118.61307983 248.40754654 -118.61307983 248.40754654 -120.32250977 248.4168396 C-153.12964974 248.12910605 -183.25099298 229.22604134 -206 207 C-206.6496875 206.4121875 -207.299375 205.824375 -207.96875 205.21875 C-230.29284621 184.57949124 -245.49946937 149.94934681 -247.11367798 119.88259888 C-247.26992375 115.32897827 -247.28549714 110.77803169 -247.26074219 106.22216797 C-247.24997944 103.87050807 -247.26072859 101.51960634 -247.2734375 99.16796875 C-247.28167581 90.57743842 -246.79374817 82.43683561 -245 74 C-244.86464844 73.29697754 -244.72929688 72.59395508 -244.58984375 71.86962891 C-237.82161414 37.77554444 -214.70982599 4.39867335 -186.0625 -15 C-126.18064723 -54.15442196 -52.86783009 -47.8743169 0 0 Z " fill="#000000" transform="translate(1281,585)"/>
<path d="M0 0 C10.66368797 8.33852293 18.85495402 17.32550683 25.25 29.3125 C25.74242187 30.22773437 26.23484375 31.14296875 26.7421875 32.0859375 C34.43039721 47.59883402 36.63745702 69.64952452 31.25 86.3125 C22.75155129 109.45681542 8.91511562 126.25593505 -13.58203125 136.87890625 C-15.15017578 137.58853516 -15.15017578 137.58853516 -16.75 138.3125 C-17.45511719 138.65152344 -18.16023438 138.99054688 -18.88671875 139.33984375 C-34.54266516 146.16597223 -55.08991324 144.57887768 -70.75 139.3125 C-72.29107422 138.80396484 -72.29107422 138.80396484 -73.86328125 138.28515625 C-94.09629021 130.7547251 -108.14840484 114.74355031 -117.2421875 95.6484375 C-122.00823069 85.10387563 -122.9451514 75.60892526 -123 64.125 C-123.020625 63.06474609 -123.04125 62.00449219 -123.0625 60.91210938 C-123.11433575 50.27930074 -121.01835699 40.67519686 -116.0625 31.25 C-115.71219727 30.57300049 -115.36189453 29.89600098 -115.00097656 29.19848633 C-104.82758069 10.00610633 -88.63691559 -4.19562083 -67.75 -10.6875 C-44.50947299 -17.315354 -19.9663001 -13.75010624 0 0 Z " fill="#FEFEFE" transform="translate(1223.75,624.6875)"/>
<path d="M0 0 C2 2 2 2 2.625 4.3125 C2 7 2 7 0.59765625 8.14526367 C-5.33796737 11.71164489 -11.45182125 14.86677096 -17.625 18 C-28.82720034 23.757362 -39.70403485 29.93324635 -50.47021484 36.46533203 C-52.8879078 37.93200042 -55.31222792 39.38705935 -57.73828125 40.83984375 C-74.52190845 50.93665218 -90.60322368 62.02360527 -106.60107422 73.3125 C-108.86467705 74.90480844 -111.13575722 76.48566547 -113.41015625 78.0625 C-123.18321142 84.8594863 -132.60652012 92.03365846 -141.95751953 99.3984375 C-144.84866465 101.66546021 -147.7674744 103.89540146 -150.6875 106.125 C-155.95865322 110.17107364 -161.15862127 114.29921507 -166.33569336 118.46484375 C-169.43052124 120.95314757 -172.53499541 123.42532876 -175.67578125 125.85546875 C-182.17735072 130.88882811 -188.38521382 136.06411136 -194.41796875 141.6640625 C-197.67173641 144.60771313 -201.09003582 147.29864012 -204.5390625 150.0078125 C-207.95711316 152.77480589 -211.17596241 155.74181865 -214.421875 158.70703125 C-217.1133402 161.10080409 -219.88139583 163.36708285 -222.6875 165.625 C-226.46899852 168.68418981 -229.95994745 171.84027077 -233.33984375 175.33203125 C-235.70223393 177.70553856 -238.23070352 179.8646571 -240.765625 182.05078125 C-243.37851376 184.33020694 -245.93930021 186.66212353 -248.5 189 C-251.66261557 191.884201 -254.83440488 194.75177475 -258.0625 197.5625 C-265.0799159 203.67583164 -271.98755705 209.81888682 -278.40625 216.56640625 C-280 218 -280 218 -282 218 C-282 218.66 -282 219.32 -282 220 C-283.328125 221.33984375 -283.328125 221.33984375 -285.25 222.9375 C-293.57332898 230.02180453 -301.51630444 237.53784217 -309.5 245 C-311.99934622 247.33403463 -314.49952559 249.66717412 -317 252 C-317.54720703 252.51127441 -318.09441406 253.02254883 -318.65820312 253.54931641 C-334.52695722 268.35130481 -334.52695722 268.35130481 -343 274 C-347.54054054 273.45945946 -347.54054054 273.45945946 -349 272 C-350.16958833 265.51505042 -346.3644298 261.00161166 -343 255.8125 C-342.10414185 254.40085571 -342.10414185 254.40085571 -341.19018555 252.96069336 C-337.61177943 247.36516486 -333.93767903 241.88424084 -329.94140625 236.578125 C-328.08166958 234.10845458 -326.2836492 231.60110335 -324.49853516 229.07714844 C-315.75743502 216.72269561 -306.73710689 204.5909986 -297 193 C-296.5683252 192.4834082 -296.13665039 191.96681641 -295.69189453 191.43457031 C-289.60682338 184.15495023 -283.42137929 176.98678375 -277 170 C-276.50693359 169.46181641 -276.01386719 168.92363281 -275.50585938 168.36914062 C-268.55754319 160.79908878 -261.47954632 153.36475845 -254.25 146.0625 C-253.5583374 145.35786621 -252.8666748 144.65323242 -252.15405273 143.92724609 C-251.51024658 143.28223145 -250.86644043 142.6372168 -250.203125 141.97265625 C-249.63239258 141.39781494 -249.06166016 140.82297363 -248.47363281 140.23071289 C-247 139 -247 139 -245 139 C-245 138.34 -245 137.68 -245 137 C-243.63671875 135.625 -243.63671875 135.625 -241.6875 134 C-238.28352552 131.11141603 -234.96917602 128.15206322 -231.6875 125.125 C-226.28530666 120.20382388 -220.68779478 115.58483838 -215 111 C-213.71138643 109.94374831 -212.42368258 108.88638614 -211.13671875 107.828125 C-203.58954138 101.63247957 -195.99061113 95.61933252 -188 90 C-186.53882577 88.95345544 -185.07791211 87.90654702 -183.6171875 86.859375 C-133.21409446 50.92486338 -76.88056215 22.66623349 -18 3.5625 C-16.29336182 3.00550415 -16.29336182 3.00550415 -14.55224609 2.43725586 C-9.54401532 0.86751763 -5.3059846 -0.40918876 0 0 Z " fill="#FFFFFF" transform="translate(614,201)"/>
</svg>
