<?xml version="1.0" encoding="UTF-8"?>
<svg version="1.1" xmlns="http://www.w3.org/2000/svg" width="1563" height="1563">
<path d="M0 0 C515.79 0 1031.58 0 1563 0 C1563 515.79 1563 1031.58 1563 1563 C1047.21 1563 531.42 1563 0 1563 C0 1047.21 0 531.42 0 0 Z " fill="#FEFEFE" transform="translate(0,0)"/>
<path d="M0 0 C515.79 0 1031.58 0 1563 0 C1563 515.79 1563 1031.58 1563 1563 C1047.21 1563 531.42 1563 0 1563 C0 1047.21 0 531.42 0 0 Z M581 70 C580.21786133 70.21527344 579.43572266 70.43054688 578.62988281 70.65234375 C505.66660253 90.76140424 436.21351094 123.39433449 373.3125 165.3125 C372.55300049 165.81860809 371.79350098 166.32471619 371.01098633 166.84616089 C358.30636789 175.32939739 345.73548636 183.99317474 333.625 193.3125 C332.56974121 194.12243408 332.56974121 194.12243408 331.49316406 194.94873047 C323.87831722 200.82211859 316.40783714 206.86830287 309 213 C308.12601562 213.72316406 308.12601562 213.72316406 307.234375 214.4609375 C300.29585435 220.22181933 293.55279915 226.15488581 286.94921875 232.296875 C284.77895706 234.3087154 282.55703317 236.24875621 280.31396484 238.17895508 C276.05009015 241.90535483 272.02441199 245.83088502 268.02734375 249.83984375 C267.30059952 250.56563126 266.57385529 251.29141876 265.8250885 252.03919983 C264.30037704 253.56323556 262.7769085 255.08851569 261.25463867 256.61499023 C258.94366109 258.93132463 256.62739229 261.24227078 254.31054688 263.55273438 C252.8199918 265.04395034 251.329747 266.53547653 249.83984375 268.02734375 C248.81611916 269.048032 248.81611916 269.048032 247.77171326 270.08934021 C243.86671894 274.01314566 240.13708586 278.03867692 236.526474 282.2354126 C234.28908287 284.8218125 231.95594216 287.3100621 229.625 289.8125 C225.3312462 294.46038542 221.2646816 299.24416348 217.296875 304.17578125 C215.27459779 306.6623568 213.20824312 309.10304082 211.11767578 311.53222656 C199.86590397 324.63586085 189.68587548 338.59119564 179.67236328 352.65234375 C178.54314046 354.2375418 177.41123613 355.82083259 176.27685547 357.40234375 C167.29006196 369.94322221 158.94512707 382.77580686 151 396 C150.56768066 396.71687988 150.13536133 397.43375977 149.68994141 398.17236328 C146.73704374 403.08294439 143.85615521 408.03264026 141 413 C140.4942041 413.87479004 139.9884082 414.74958008 139.46728516 415.65087891 C111.77521888 463.70062425 88.64880553 515.27819991 73.5 568.71484375 C72.68803299 571.57871908 71.87258581 574.44131522 71.046875 577.30126953 C62.03416045 608.63978957 54.46219115 640.674818 50 673 C49.83693359 674.175625 49.67386719 675.35125 49.50585938 676.5625 C48.27596107 685.62781782 47.20109956 694.70471805 46.23431396 703.80175781 C46.08030019 705.24665498 45.924154 706.69132674 45.76568604 708.13574219 C43.2148565 731.42539972 42.73032851 754.65456021 42.75 778.0625 C42.75026688 778.75186268 42.75053375 779.44122536 42.75080872 780.15147781 C42.76419891 801.98019969 43.06122032 823.7649443 45.25 845.5 C45.43961304 847.41111572 45.43961304 847.41111572 45.63305664 849.36083984 C48.06882591 873.35008768 50.94112061 897.41146159 56 921 C56.29666915 922.41100513 56.59267501 923.8221498 56.88818359 925.23339844 C57.9156561 930.13686425 58.95624222 935.03747826 60 939.9375 C60.25144272 941.12462082 60.25144272 941.12462082 60.50796509 942.33572388 C62.40939401 951.28110118 64.48792844 960.09464627 67.07958984 968.8684082 C67.9016211 971.66527689 68.6636845 974.46728627 69.39453125 977.2890625 C77.994682 1009.96901974 89.64198534 1041.97956706 103 1073 C103.40911621 1073.95116699 103.81823242 1074.90233398 104.23974609 1075.88232422 C106.73338649 1081.63287766 109.33734611 1087.32601136 112 1093 C112.66999023 1094.43835205 112.66999023 1094.43835205 113.35351562 1095.90576172 C119.88644717 1109.89321902 126.78925187 1123.60487671 134.35449219 1137.0625 C136.09984649 1140.17824228 137.81899343 1143.30773628 139.5390625 1146.4375 C150.01549666 1165.31408021 161.79237716 1183.20500011 174 1201 C174.64018066 1201.93537598 175.28036133 1202.87075195 175.93994141 1203.83447266 C186.73344484 1219.54127208 198.46098913 1234.51571248 210.55566406 1249.23535156 C211.8559978 1250.82406222 213.14365247 1252.42313025 214.4296875 1254.0234375 C219.15247514 1259.88910614 224.09642894 1265.47289293 229.2265625 1270.98046875 C231.32006536 1273.23700749 233.352245 1275.53974875 235.37109375 1277.86328125 C244.33803815 1288.15068367 253.87146973 1297.95878244 263.5 1307.625 C264.13349365 1308.26308594 264.7669873 1308.90117188 265.41967773 1309.55859375 C269.14230776 1313.26901843 272.98750351 1316.77417407 276.96435547 1320.20947266 C280.51029012 1323.32843221 283.89734308 1326.61443544 287.3125 1329.875 C292.74707481 1335.02212429 298.21694753 1340.01743185 304.08203125 1344.67578125 C306.3750475 1346.5022132 308.63633303 1348.3525308 310.88671875 1350.23046875 C320.37048845 1358.13926113 330.0405613 1365.70117121 340 1373 C340.68078613 1373.50321777 341.36157227 1374.00643555 342.06298828 1374.52490234 C368.18231778 1393.8209751 395.60446479 1411.25744683 424 1427 C425.04510742 1427.58007812 426.09021484 1428.16015625 427.16699219 1428.7578125 C479.20271111 1457.48825349 535.34123254 1480.38659022 593 1495 C595.08604252 1495.54386818 597.17197654 1496.08815266 599.2578125 1496.6328125 C609.07664572 1499.16829143 618.86667237 1501.4947547 628.859375 1503.234375 C631.85079041 1503.76534398 634.80507003 1504.39600188 637.765625 1505.078125 C722.4342265 1524.36032884 815.11165216 1523.07448901 907.9375 1507.75 C908.8130957 1507.60170746 909.68869141 1507.45341492 910.59082031 1507.30062866 C925.90226757 1504.69001444 940.96467254 1501.47303599 956.03857422 1497.72412109 C958.55254529 1497.10941061 961.06764236 1496.5321053 963.59765625 1495.98828125 C977.66249356 1492.95452264 991.32994236 1488.44511579 1005 1484 C1005.67969849 1483.7793689 1006.35939697 1483.55873779 1007.05969238 1483.3314209 C1060.60115155 1465.90992396 1111.64469377 1442.87203509 1160 1414 C1160.96969727 1413.42491699 1161.93939453 1412.84983398 1162.93847656 1412.25732422 C1184.1301132 1399.67234792 1204.31979071 1385.82793916 1224 1371 C1224.60102539 1370.54818359 1225.20205078 1370.09636719 1225.82128906 1369.63085938 C1243.25063583 1356.49072649 1260.09688724 1342.52810912 1276.0859375 1327.66796875 C1278.26354885 1325.67425755 1280.4612795 1323.73504801 1282.69750977 1321.80957031 C1286.87970269 1318.15437967 1290.83350441 1314.31135786 1294.75390625 1310.37890625 C1295.81072853 1309.32351906 1295.81072853 1309.32351906 1296.88890076 1308.24681091 C1298.36653367 1306.76985352 1299.84292457 1305.29165258 1301.31811523 1303.81225586 C1303.55666481 1301.56834915 1305.80050473 1299.32983296 1308.04492188 1297.09179688 C1309.48990404 1295.64615382 1310.93457592 1294.20020055 1312.37890625 1292.75390625 C1313.03951553 1292.0953212 1313.70012482 1291.43673615 1314.38075256 1290.75819397 C1318.23194021 1286.88786884 1321.90370993 1282.91057632 1325.46583557 1278.77227783 C1327.70645181 1276.18390176 1330.04159836 1273.69257834 1332.375 1271.1875 C1336.67195948 1266.53614451 1340.74190142 1261.74925159 1344.7109375 1256.8125 C1346.6933743 1254.37674147 1348.72394203 1251.9934516 1350.78051758 1249.62036133 C1357.9819693 1241.27598809 1364.52977687 1232.46191465 1371.07714844 1223.60058594 C1372.97500425 1221.03380583 1374.8811904 1218.47340312 1376.7890625 1215.9140625 C1383.10230861 1207.42504601 1389.25883649 1198.89027697 1395 1190 C1395.83394696 1188.73131802 1396.66863277 1187.46312152 1397.50390625 1186.1953125 C1439.7298819 1121.85750416 1471.11050759 1051.6914142 1491.95410156 977.70800781 C1492.87155117 974.45538768 1493.80428347 971.20769833 1494.7421875 967.9609375 C1498.87728658 953.4640116 1502.09127638 938.78753898 1505 924 C1505.14070923 923.29035095 1505.28141846 922.5807019 1505.4263916 921.84954834 C1511.112642 893.08143318 1514.48111118 864.20617619 1517 835 C1517.09072281 834.02911942 1517.18144562 833.05823883 1517.2749176 832.05793762 C1518.06951974 822.94232036 1518.16370257 813.86400469 1518.16796875 804.72265625 C1518.17119726 803.0643257 1518.1745624 801.40599542 1518.17805481 799.74766541 C1518.18400843 796.27911727 1518.18589907 792.81059389 1518.18530273 789.34204102 C1518.18522218 785.85272966 1518.19205602 782.36355156 1518.20581055 778.87426758 C1518.31272255 751.306373 1517.46710632 724.02960214 1514.1875 696.625 C1514.10418427 695.91516968 1514.02086853 695.20533936 1513.93502808 694.47399902 C1511.144653 670.76867648 1507.5318675 647.23257691 1502 624 C1501.63860071 622.46603817 1501.27745409 620.93201679 1500.91650391 619.39794922 C1494.27882476 591.04336442 1494.27882476 591.04336442 1486.02392578 563.13037109 C1485.2678348 560.81883115 1484.52424239 558.50525354 1483.79248047 556.18603516 C1473.02775383 522.09306557 1459.57867037 489.17367574 1444 457 C1443.29931396 455.54303711 1443.29931396 455.54303711 1442.58447266 454.05664062 C1436.1234796 440.67200984 1429.07244006 427.67382154 1421.62646484 414.81298828 C1420.06927409 412.11981027 1418.52821039 409.41791622 1416.98828125 406.71484375 C1410.6586944 395.70828768 1403.85559101 385.0586426 1396.8125 374.5 C1396.39870087 373.8791452 1395.98490173 373.25829041 1395.55856323 372.61862183 C1387.72068317 360.88428578 1379.60913398 349.3401337 1371.125 338.0625 C1370.63088623 337.40483643 1370.13677246 336.74717285 1369.62768555 336.06958008 C1364.6647513 329.49963032 1359.53947805 323.06416737 1354.35351562 316.66943359 C1353.1330477 315.16410176 1351.91776555 313.65456907 1350.703125 312.14453125 C1338.21612819 296.71807716 1325.03698719 281.7853199 1310.85620117 267.890625 C1309.07121897 266.07253975 1307.42373693 264.19351086 1305.77734375 262.25 C1302.10094209 258.02162701 1298.12700065 254.22058393 1294 250.4375 C1289.41524362 246.20845748 1284.90588832 241.93674302 1280.51416016 237.50708008 C1278.80042784 235.80136102 1277.02669244 234.19433351 1275.1875 232.625 C1272.14416912 230.00305339 1269.15647726 227.33090333 1266.1875 224.625 C1260.9382925 219.89433124 1255.50506083 215.42829375 1250 211 C1248.89043217 210.09789338 1247.78106559 209.19553917 1246.671875 208.29296875 C1204.40248903 174.03858477 1158.29426055 143.91182844 1109.32617188 120.13427734 C1106.58112923 118.79575214 1103.84595501 117.43777211 1101.109375 116.08203125 C1073.44506207 102.46624487 1045.18751847 91.29257782 1016.0078125 81.3671875 C1012.64402153 80.22273982 1009.2893019 79.05416577 1005.9375 77.875 C993.31874464 73.4802206 980.48410334 70.11313091 967.5234375 66.88378906 C964.00042445 66.00010647 960.48425459 65.09274216 956.96875 64.1796875 C921.84014383 55.11431951 885.96129886 49.30304877 849.875 45.6875 C849.07471375 45.60627899 848.27442749 45.52505798 847.44989014 45.44137573 C825.44794948 43.23845324 803.47804092 42.7603188 781.375 42.75 C780.06318756 42.74932526 778.75137512 42.74865051 777.39981079 42.74795532 C711.04083895 42.77260406 644.889237 51.86025839 581 70 Z " fill="#FEFEFE" transform="translate(0,0)"/>
<path d="M0 0 C0.72251953 0.18191895 1.44503906 0.36383789 2.18945312 0.55126953 C28.08909385 7.07280373 52.12070428 20.43455432 71.5546875 38.70703125 C73.65250304 40.67415221 75.79480787 42.53138796 78 44.375 C116.45636019 78.06339684 140.21712095 132.71618194 144 183 C144.88523627 199.20880434 143.73808652 215.01839379 141 231 C140.86609863 231.79986328 140.73219727 232.59972656 140.59423828 233.42382812 C135.72509491 261.35205409 121.39120035 289.52720814 103 311 C102.05018063 312.13361162 101.1010079 313.26776521 100.15234375 314.40234375 C92.06895574 324.01282343 83.56493294 332.84680675 74 341 C72.91228858 341.93955821 71.82509251 342.87971321 70.73828125 343.8203125 C64.84605942 348.90993128 58.91959683 353.92731761 52.80859375 358.75390625 C49.08658559 361.73047745 45.4214105 364.77389536 41.75 367.8125 C36.00006069 372.56581674 30.19661747 377.23374183 24.30957031 381.81567383 C19.63961804 385.46432322 15.06408108 389.22008319 10.5 393 C-1.11728035 402.6141211 -13.03297196 411.82773328 -25 421 C-27.06299932 422.58268269 -29.12549178 424.16602627 -31.1875 425.75 C-31.71529053 426.15516846 -32.24308105 426.56033691 -32.78686523 426.9777832 C-35.92033567 429.38718477 -39.04121932 431.81180131 -42.15234375 434.25 C-50.63346592 440.89074587 -59.1932171 447.39211358 -67.89086914 453.74682617 C-73.36010018 457.75573056 -78.73029686 461.87349242 -84.0625 466.0625 C-92.13671282 472.39557858 -100.3986062 478.43023346 -108.75 484.39111328 C-112.51023174 487.07990746 -116.25420144 489.79115555 -120 492.5 C-121.49864214 493.5821085 -122.99734007 494.66413974 -124.49609375 495.74609375 C-127.51092519 497.92329023 -130.52374694 500.10322917 -133.53515625 502.28515625 C-142.94046686 509.09617797 -152.39222393 515.83627757 -161.89111328 522.51611328 C-165.43041174 525.00648791 -168.96492913 527.50362997 -172.5 530 C-173.92055936 531.00262338 -175.34113226 532.00522756 -176.76171875 533.0078125 C-179.55674843 534.98069912 -182.35096382 536.95473097 -185.14453125 538.9296875 C-199.28045002 548.92097415 -213.43135256 558.89112001 -227.71118164 568.67602539 C-233.66022676 572.75615215 -239.580652 576.87694423 -245.5 581 C-254.64401797 587.36683043 -263.80483015 593.7073017 -273 600 C-273.70060547 600.48033691 -274.40121094 600.96067383 -275.12304688 601.45556641 C-281.73655033 605.98827107 -288.36558721 610.49796959 -295 615 C-295.76681091 615.52043884 -296.53362183 616.04087769 -297.32366943 616.5770874 C-339.07410081 644.90574601 -339.07410081 644.90574601 -357.70068359 656.54785156 C-360.9199805 658.58101975 -364.10191366 660.66941817 -367.28540039 662.75805664 C-385.63585217 674.79718909 -404.42511576 686.15541584 -423.28271484 697.37939453 C-426.32384998 699.19314611 -429.35900112 701.01672817 -432.39453125 702.83984375 C-446.0536443 711.01899456 -459.84747069 718.87141322 -473.90722656 726.34619141 C-477.11246967 728.06014126 -480.30322521 729.79893105 -483.4921875 731.54296875 C-529.52819736 756.6362446 -579.28686123 781.45315467 -630.87231445 792.50317383 C-633.30315135 793.07078749 -635.68412164 793.76355606 -638.08203125 794.45703125 C-644.98291504 796.36294419 -651.99624334 797.46498186 -659.0625 798.5625 C-659.74763672 798.67016693 -660.43277344 798.77783386 -661.13867188 798.88876343 C-665.75614533 799.61313496 -670.37675902 800.31341095 -675 801 C-675.92925293 801.13857422 -676.85850586 801.27714844 -677.81591797 801.41992188 C-725.83947353 808.34047497 -778.91200465 798.39732808 -818.1875 769.125 C-820.81655698 767.1137999 -823.41566827 765.06828235 -826 763 C-826.8362793 762.33145996 -826.8362793 762.33145996 -827.68945312 761.64941406 C-844.60205751 747.9939759 -861.18308098 732.59620552 -875.23046875 715.98828125 C-877.99655664 712.88024871 -880.98446387 709.99505245 -883.94506836 707.07446289 C-887.26454013 703.7824958 -890.36722219 700.37197871 -893.3984375 696.81640625 C-894.98590261 695.0159885 -896.64887594 693.35451023 -898.375 691.6875 C-902.50967702 687.60782977 -906.10165152 683.12868244 -909.72265625 678.59375 C-911.05609472 676.93001026 -912.4020914 675.27703282 -913.75 673.625 C-945.13200138 635.01280569 -970.61578314 592.33601135 -993 548 C-993.5465625 546.92298828 -994.093125 545.84597656 -994.65625 544.73632812 C-1003.67047011 526.87040389 -1011.24020121 508.5741414 -1018.46972656 489.93310547 C-1019.80988907 486.47924074 -1021.17800328 483.03714812 -1022.5546875 479.59765625 C-1027.3522638 467.50839593 -1032.10384581 455.24614972 -1031 442 C-1030.34 441.34 -1029.68 440.68 -1029 440 C-1021.41806998 440.41676571 -1014.32600488 444.31340887 -1007.6953125 447.67578125 C-980.38336273 461.32991098 -951.31630012 458.11676112 -922 453 C-920.71391846 452.77570313 -920.71391846 452.77570313 -919.40185547 452.546875 C-905.28787233 449.97148293 -891.61826984 445.4315985 -878 441 C-876.85063965 440.62601074 -875.7012793 440.25202148 -874.51708984 439.86669922 C-814.76737843 420.23310551 -756.94845774 392.29696517 -702.43359375 361.09375 C-697.19961378 358.10023819 -691.91861051 355.19885481 -686.625 352.3125 C-678.40637189 347.8166683 -670.31321282 343.13854096 -662.26513672 338.34521484 C-659.85953611 336.91658159 -657.44800802 335.49838127 -655.03515625 334.08203125 C-632.43060579 320.80138631 -610.03670596 307.20522039 -588 293 C-587.28440918 292.53996582 -586.56881836 292.07993164 -585.83154297 291.60595703 C-581.70058097 288.94984764 -577.578206 286.280835 -573.46191406 283.60205078 C-571.65716606 282.42764019 -569.85172907 281.25428818 -568.04589844 280.08154297 C-548.92330158 267.65796354 -529.99135323 255.07553713 -511.68359375 241.46875 C-507.1526926 238.10320601 -502.58224495 234.79514816 -498 231.5 C-488.61184622 224.74065245 -479.30302728 217.87582082 -470 211 C-459.96072481 203.58002205 -449.90471554 196.18779269 -439.77148438 188.89648438 C-434.29598975 184.95125899 -428.86179141 180.95274159 -423.4375 176.9375 C-416.79951627 172.02805237 -410.10552229 167.21078173 -403.34570312 162.47070312 C-397.49931357 158.36787802 -391.70733912 154.19307398 -385.94116211 149.97827148 C-372.40292442 140.13625963 -358.43919856 130.86701471 -344.57495117 121.49414062 C-342.74111876 120.2533257 -340.90842505 119.0108261 -339.0769043 117.76660156 C-325.92160378 108.83074799 -312.58820521 100.26255434 -299 92 C-297.94187859 91.35505585 -297.94187859 91.35505585 -296.86238098 90.69708252 C-280.53656998 80.75080134 -263.87267938 71.34607771 -247.11035156 62.15722656 C-245.7462673 61.40922108 -244.38353722 60.65873838 -243.02246094 59.90527344 C-199.37573701 35.80382982 -152.01564564 18.11694834 -104 5 C-102.85998535 4.68417969 -101.7199707 4.36835938 -100.54541016 4.04296875 C-68.70845444 -4.65769514 -32.24665674 -8.75204756 0 0 Z " fill="#000000" transform="translate(1233,495)"/>
<path d="M0 0 C1.54259239 -0.0049926 1.54259239 -0.0049926 3.11634827 -0.01008606 C5.28369708 -0.01512037 7.45105355 -0.01749547 9.6184082 -0.01733398 C12.87009087 -0.01950451 16.12142473 -0.03765413 19.37304688 -0.05664062 C37.30456824 -0.10700526 54.50612361 1.36640215 72.09765625 4.85546875 C72.74920685 4.98291473 73.40075745 5.11036072 74.072052 5.2416687 C87.24905634 7.8323538 100.12239609 11.27840792 112.97265625 15.16796875 C114.37999553 15.58145415 115.78752592 15.99429007 117.1953125 16.40625 C155.15338422 27.82899961 193.23362185 43.05942957 227.97265625 62.16796875 C229.25124512 62.87010498 229.25124512 62.87010498 230.55566406 63.58642578 C243.11622565 70.52559086 255.1763056 78.00104617 266.97265625 86.16796875 C267.9174585 86.81330566 267.9174585 86.81330566 268.88134766 87.47167969 C291.73024008 103.09454128 317.06519752 123.5637492 324.97265625 151.16796875 C326.29350963 162.27235237 323.63203663 171.11628588 316.84765625 179.91796875 C303.60685398 195.04724849 281.31506278 203.69005731 262.1875 208.46875 C252.28719294 211.01443602 242.56313656 213.99527474 232.84765625 217.16796875 C231.99125549 217.44664795 231.13485474 217.72532715 230.25250244 218.01245117 C212.86449943 223.69229423 195.84938542 230.12170671 178.97265625 237.16796875 C178.32917236 237.43609375 177.68568848 237.70421875 177.02270508 237.98046875 C159.45155838 245.31481921 142.21545716 253.2666757 125.11425781 261.64208984 C122.11680929 263.09795348 119.10757771 264.52424036 116.08984375 265.9375 C101.41747599 272.81630955 87.17102698 280.36228839 72.97265625 288.16796875 C71.3167749 289.07337402 71.3167749 289.07337402 69.62744141 289.99707031 C53.12846192 299.02359017 36.88452592 308.42960443 20.7557373 318.1003418 C18.29231581 319.57532532 15.82559441 321.04474641 13.35894775 322.514328 C-25.70371677 345.79193821 -63.86354337 370.4791709 -101.83984375 395.48046875 C-102.80257202 396.11415375 -103.76530029 396.74783875 -104.75720215 397.40072632 C-116.40360819 405.07226829 -127.99789109 412.79239837 -139.39770508 420.82739258 C-145.8687318 425.38639839 -152.42759641 429.79760975 -159.02734375 434.16796875 C-169.96367052 441.41386242 -180.73793079 448.87582652 -191.48681641 456.39599609 C-195.04963796 458.88100079 -198.63061368 461.33899175 -202.21484375 463.79296875 C-208.03069644 467.77957581 -213.81603729 471.80822376 -219.58984375 475.85546875 C-227.06299014 481.09329493 -234.54026372 486.32507154 -242.02734375 491.54296875 C-242.94588135 492.18451904 -243.86441895 492.82606934 -244.81079102 493.48706055 C-250.30247678 497.3115481 -255.84084792 501.05582264 -261.41601562 504.75732422 C-265.97566298 507.79299637 -270.50755346 510.86970808 -275.04296875 513.94140625 C-276.89058361 515.19146743 -278.73824059 516.44146635 -280.5859375 517.69140625 C-283.42755071 519.61383211 -286.26861235 521.5370464 -289.10791016 523.46289062 C-300.06902943 530.89583425 -311.07921084 538.19134137 -322.35748291 545.13433838 C-325.6241321 547.15636784 -328.85188859 549.23918908 -332.0859375 551.31274414 C-344.28017138 559.1303229 -356.61013491 566.71037192 -369.02734375 574.16796875 C-369.93452148 574.71308105 -370.84169922 575.25819336 -371.77636719 575.81982422 C-386.36295725 584.56284876 -401.12590678 592.97372283 -416.02734375 601.16796875 C-417.69458496 602.08497559 -417.69458496 602.08497559 -419.39550781 603.02050781 C-452.53437239 621.17451327 -486.19665233 637.4019409 -522.46777344 648.38378906 C-524.61579869 649.04188303 -526.74920929 649.72684454 -528.87890625 650.44140625 C-542.20543666 654.83949197 -555.07979128 656.46737192 -569.03988647 656.64074707 C-570.42333024 656.65857449 -571.80670236 656.68392465 -573.18984985 656.71765137 C-590.37861078 657.08747675 -604.95540484 651.82154639 -617.71484375 640.10546875 C-628.59822438 628.67596866 -634.06676202 613.5993389 -636.64648438 598.3137207 C-636.91320582 596.81101894 -637.21725818 595.31468748 -637.54882812 593.82495117 C-639.53305441 584.06358176 -639.32874718 574.25156198 -639.28808594 564.33569336 C-639.27747535 561.26851113 -639.28796752 558.20192877 -639.30078125 555.13476562 C-639.31046768 542.03574832 -638.54942538 529.17586343 -637.02734375 516.16796875 C-636.8866748 514.93103271 -636.74600586 513.69409668 -636.60107422 512.41967773 C-634.30819696 493.39160987 -630.41395587 474.80006706 -626.02734375 456.16796875 C-625.63627441 454.50411133 -625.63627441 454.50411133 -625.23730469 452.80664062 C-600.68326219 349.40434952 -600.68326219 349.40434952 -577.02734375 319.16796875 C-575.70734375 319.49796875 -574.38734375 319.82796875 -573.02734375 320.16796875 C-573.09953125 320.85761719 -573.17171875 321.54726563 -573.24609375 322.2578125 C-574.76302801 332.67019172 -574.76302801 332.67019172 -572.90234375 342.73046875 C-570.17652522 344.82026296 -568.42590136 344.43826339 -565.02734375 344.16796875 C-562.47050306 343.32905014 -560.15257666 342.45445168 -557.71484375 341.35546875 C-556.67650391 340.8917688 -556.67650391 340.8917688 -555.6171875 340.41870117 C-541.91446101 334.05562079 -529.79889674 324.77105452 -517.88232422 315.59375 C-516.12655944 314.24422824 -514.36205738 312.90724258 -512.59375 311.57421875 C-505.92469005 306.52736257 -499.4984875 301.25490762 -493.14453125 295.8203125 C-490.3054725 293.39444599 -487.4249142 291.02381951 -484.52734375 288.66796875 C-477.15077064 282.65782307 -469.89473626 276.5048699 -462.6875 270.29296875 C-449.6210393 259.03234979 -436.32288662 248.0772872 -422.71142578 237.48144531 C-420.46459384 235.72905972 -418.22640719 233.96580946 -415.98803711 232.20263672 C-407.80198196 225.75613289 -399.57473854 219.36281406 -391.34619141 212.97070312 C-389.05485948 211.18936022 -386.76540602 209.40563252 -384.4765625 207.62109375 C-375.67241382 200.75905068 -366.83527009 193.94289896 -357.9609375 187.171875 C-354.55891986 184.57600717 -351.16644636 181.96817463 -347.77734375 179.35546875 C-345.52790626 177.62556426 -343.27789207 175.89642654 -341.02734375 174.16796875 C-340.26437988 173.58144531 -339.50141602 172.99492187 -338.71533203 172.390625 C-328.08414675 164.22574328 -317.3834535 156.18801645 -306.48828125 148.37890625 C-301.80315743 145.01761433 -297.16381684 141.59591157 -292.52734375 138.16796875 C-276.25050511 126.15683002 -259.81627872 114.4554649 -243.02734375 103.16796875 C-242.40162476 102.74717041 -241.77590576 102.32637207 -241.13122559 101.89282227 C-170.5628191 54.45658346 -88.28928727 0.10228041 0 0 Z " fill="#000000" transform="translate(824.02734375,176.83203125)"/>
<path d="M0 0 C1.90774704 0.00102722 1.90774704 0.00102722 3.85403442 0.0020752 C25.36398533 0.04034944 46.71944653 0.71962612 68.125 2.875 C68.95673737 2.95792297 69.78847473 3.04084595 70.64541626 3.12628174 C101.85381491 6.2841108 133.06516475 11.14899473 163.625 18.25 C164.89520996 18.54487305 166.16541992 18.83974609 167.47412109 19.14355469 C186.79373871 23.66888921 205.77198558 29.04354676 224.625 35.25 C225.35134644 35.48803345 226.07769287 35.72606689 226.8260498 35.97131348 C262.19287225 47.5695536 296.4058024 61.29032456 329.59521484 78.22558594 C331.80060931 79.33862842 334.01795217 80.42488143 336.23828125 81.5078125 C376.86722776 101.39196318 414.94849715 126.51515461 450.625 154.25 C451.25035645 154.73355957 451.87571289 155.21711914 452.52001953 155.71533203 C460.00899565 161.50763389 467.32404785 167.46446375 474.51953125 173.6171875 C477.46920349 176.13338217 480.47970418 178.56892969 483.5 181 C487.21096484 184.0181798 490.64056348 187.14363446 493.9609375 190.58203125 C495.71533743 192.34054949 497.54933565 193.94890935 499.4375 195.5625 C503.48532338 199.04660329 507.21304549 202.79988456 510.9375 206.625 C513.06451484 208.70254938 515.21369737 210.63533972 517.46875 212.56640625 C521.64692689 216.18899536 525.39144907 220.11453534 529.125 224.1875 C530.43646163 225.60382678 531.74895033 227.01920328 533.0625 228.43359375 C533.67996094 229.09858887 534.29742188 229.76358398 534.93359375 230.44873047 C536.95125783 232.59744952 539.02246617 234.68442478 541.125 236.75 C544.07073591 239.65805058 546.83019217 242.66908473 549.52734375 245.80859375 C551.19512632 247.74968148 552.87586122 249.67650956 554.56640625 251.59765625 C560.8994648 258.81490648 567.01219023 266.14667234 572.890625 273.73828125 C575.20358839 276.72433363 577.56852978 279.66438843 579.94848633 282.59716797 C632.16799418 347.13736311 672.03626903 422.84207306 700.0625 506.125 C700.30816711 506.86141724 700.55383423 507.59783447 700.8069458 508.35656738 C706.92540195 526.77238161 712.03350697 545.33299847 716.625 564.1875 C716.88990234 565.27326324 717.15480469 566.35902649 717.42773438 567.47769165 C723.70858787 593.28617299 728.38470723 618.8728799 731.625 645.25 C731.90615509 647.45834542 732.18740144 649.66667922 732.46875 651.875 C735.91295489 679.56274332 736.98244577 707.10318738 736.94067383 734.97070312 C736.936046 738.31654315 736.94297757 741.66201923 736.96118164 745.0078125 C737.07812262 766.71355639 736.24554932 788.05568644 733.99113464 809.64865112 C733.63085133 813.19244559 733.31327779 816.73734632 733.01220703 820.28662109 C724.60162135 919.28792951 689.00413809 1021.22023797 633.625 1115.25 C632.53374402 1117.09498694 631.44259514 1118.94003723 630.3515625 1120.78515625 C625.01505828 1129.77832309 619.55574247 1138.63277918 613.625 1147.25 C612.81054776 1148.45398753 611.99678818 1149.65844382 611.18359375 1150.86328125 C593.10985 1177.52874726 573.32878858 1203.15303955 551.66015625 1227 C549.85122457 1228.99989375 548.07608199 1231.02269432 546.3125 1233.0625 C536.92228105 1243.80653222 527.01725096 1254.01975953 516.91455078 1264.09082031 C514.85982492 1266.14013511 512.81056897 1268.19481263 510.76171875 1270.25 C509.43000835 1271.58105025 508.09798812 1272.91179061 506.765625 1274.2421875 C506.16647278 1274.84336395 505.56732056 1275.44454041 504.95001221 1276.06393433 C501.21753923 1279.77616781 497.3614321 1283.29747152 493.37611389 1286.73699951 C491.15105644 1288.65949754 488.98273463 1290.64100267 486.8125 1292.625 C482.5705915 1296.44914478 478.21948903 1300.09889455 473.77734375 1303.6875 C471.43640119 1305.58020913 469.12250788 1307.50250175 466.81640625 1309.4375 C457.14186482 1317.5328992 447.20392889 1325.15472594 436.98046875 1332.54296875 C434.6869727 1334.20508778 432.40476914 1335.88161942 430.125 1337.5625 C404.30443672 1356.52749357 376.72631911 1372.91827772 348.625 1388.25 C347.71943359 1388.74677246 346.81386719 1389.24354492 345.88085938 1389.75537109 C269.03761484 1431.6788903 181.92124339 1459.58613336 82.875 1471.5625 C82.15403137 1471.63776917 81.43306274 1471.71303833 80.69024658 1471.79058838 C76.22057594 1472.24845332 71.7479873 1472.65436385 67.27053833 1473.02828979 C65.40077537 1473.18498589 63.53140067 1473.34634795 61.662323 1473.51101685 C41.64960139 1475.25107805 21.75758126 1475.61386846 1.6875 1475.5625 C0.09300742 1475.55997609 -1.50148517 1475.55746359 -3.09597778 1475.55496216 C-54.02368771 1475.44831049 -104.58956341 1471.590832 -154.375 1460.25 C-155.53870117 1459.99250977 -156.70240234 1459.73501953 -157.90136719 1459.46972656 C-173.86823863 1455.93299645 -189.6267212 1451.95480035 -205.26977539 1447.18481445 C-207.60177058 1446.48277738 -209.93576509 1445.79447683 -212.27514648 1445.11791992 C-222.20227771 1442.24350351 -232.03436016 1439.15918352 -241.8125 1435.8125 C-242.55057892 1435.56043793 -243.28865784 1435.30837585 -244.04910278 1435.04867554 C-268.01203909 1426.82503221 -291.43036731 1416.98014054 -314.375 1406.25 C-315.26622559 1405.83717773 -316.15745117 1405.42435547 -317.07568359 1404.99902344 C-331.49796731 1398.30446742 -345.51313387 1391.0346074 -359.375 1383.25 C-360.26461426 1382.7535498 -361.15422852 1382.25709961 -362.07080078 1381.74560547 C-386.41388419 1368.14094502 -409.99329198 1353.06325146 -432.51416016 1336.60742188 C-434.62259984 1335.069384 -436.7393678 1333.54310321 -438.85546875 1332.015625 C-449.05685798 1324.61394343 -458.89082412 1316.87726475 -468.54443359 1308.77636719 C-471.06663203 1306.67330176 -473.62822091 1304.62017503 -476.1875 1302.5625 C-481.12718262 1298.52842586 -485.81569734 1294.2582801 -490.48828125 1289.921875 C-493.01100616 1287.58690363 -495.5587606 1285.2868331 -498.125 1283 C-508.29738729 1273.85135137 -518.24464144 1264.46778934 -527.9375 1254.8125 C-528.90067139 1253.85621704 -528.90067139 1253.85621704 -529.88330078 1252.88061523 C-533.62147528 1249.13024361 -537.15717744 1245.25904034 -540.61791992 1241.25219727 C-543.56718992 1237.89149652 -546.66842333 1234.67636922 -549.75 1231.4375 C-554.7177172 1226.17260523 -559.51613392 1220.85391684 -564.02734375 1215.1875 C-565.82851329 1212.93379036 -567.65157689 1210.71107652 -569.50390625 1208.5 C-577.88458161 1198.47942001 -585.84232615 1188.1961308 -593.58740234 1177.67724609 C-594.7301593 1176.12558129 -595.87601982 1174.57619429 -597.02587891 1173.02978516 C-610.52916387 1154.86618468 -623.05339115 1135.85025564 -634.375 1116.25 C-635.01236084 1115.15800293 -635.01236084 1115.15800293 -635.66259766 1114.04394531 C-669.00136986 1056.88841392 -695.99818715 995.84903305 -712.73583984 931.69042969 C-713.4947544 928.79275592 -714.2736699 925.9006582 -715.05078125 923.0078125 C-718.7591913 909.08525576 -722.05401955 895.1360335 -724.82958984 880.99804688 C-725.33171956 878.46806833 -725.85872857 875.94489521 -726.39453125 873.421875 C-731.21894566 850.17306489 -733.78232157 826.36192902 -736.125 802.75 C-736.24045166 801.60354004 -736.35590332 800.45708008 -736.47485352 799.27587891 C-738.45249762 778.19800105 -738.6526369 757.03052957 -738.6875 735.875 C-738.68894516 735.1822485 -738.69039032 734.48949699 -738.69187927 733.77575302 C-738.75120566 698.38521057 -736.38804633 663.24069498 -730.84863281 628.26171875 C-730.40290874 625.42746507 -729.99067669 622.59034694 -729.5859375 619.75 C-715.29101525 523.34980359 -677.90967285 428.37079579 -598.375 305.25 C-597.82295898 304.48107422 -597.27091797 303.71214844 -596.70214844 302.91992188 C-588.34841206 291.32678687 -579.58752739 280.17092117 -570.375 269.25 C-569.40749989 268.09770007 -568.44004928 266.94535858 -567.47265625 265.79296875 C-565.24724695 263.1481994 -563.0098217 260.51394836 -560.76660156 257.88427734 C-559.26465419 256.12041143 -557.76903598 254.35128258 -556.2734375 252.58203125 C-547.09985763 241.76296621 -547.09985763 241.76296621 -542.06019592 236.93614197 C-540.33369821 235.20867502 -538.75209608 233.40957859 -537.16577148 231.55297852 C-533.45488584 227.28620012 -529.53838395 223.26869796 -525.53515625 219.27734375 C-524.80936874 218.55059952 -524.08358124 217.82385529 -523.33580017 217.0750885 C-521.81176444 215.55037704 -520.28648431 214.0269085 -518.76000977 212.50463867 C-516.44367537 210.19366109 -514.13272922 207.87739229 -511.82226562 205.56054688 C-510.33104966 204.0699918 -508.83952347 202.579747 -507.34765625 201.08984375 C-506.66719742 200.40736069 -505.98673859 199.72487762 -505.28565979 199.02171326 C-501.34775766 195.10268985 -497.30635327 191.35999283 -493.09686279 187.73374939 C-490.87963007 185.82313391 -488.72262035 183.849751 -486.5625 181.875 C-482.29754692 178.03071755 -477.9263915 174.35473095 -473.4609375 170.74609375 C-471.22560183 168.93801844 -469.00311795 167.11887237 -466.7890625 165.28515625 C-456.60048004 156.87575856 -446.10299307 148.95732342 -435.375 141.25 C-434.5917334 140.68700195 -433.8084668 140.12400391 -433.00146484 139.54394531 C-367.91133113 92.96075237 -296.72542882 57.27357306 -220.375 33.25 C-218.55858158 32.66670457 -216.74217345 32.08337707 -214.92578125 31.5 C-183.79077967 21.68228054 -151.29009368 13.72670032 -118.91601562 9.59204102 C-112.70034712 8.75536235 -106.50735029 7.74811839 -100.3137207 6.76318359 C-67.01348798 1.5273484 -33.67872559 -0.02592087 0 0 Z M-72.6875 65 C-73.45124939 65.08647797 -74.21499878 65.17295593 -75.00189209 65.26205444 C-121.8316807 70.59856763 -167.56607797 80.65270097 -212.375 95.25 C-213.57415039 95.64058594 -214.77330078 96.03117187 -216.00878906 96.43359375 C-273.77711917 115.42506848 -329.10519513 143.06653269 -379.375 177.25 C-379.99375 177.66894531 -380.6125 178.08789062 -381.25 178.51953125 C-417.56741293 203.1330904 -450.92176459 231.57079671 -481.86938477 262.61401367 C-483.96450092 264.71457104 -486.0650231 266.80961874 -488.16601562 268.90429688 C-489.52896713 270.26790811 -490.89160897 271.63182893 -492.25390625 272.99609375 C-493.17436485 273.91351601 -493.17436485 273.91351601 -494.11341858 274.84947205 C-498.39652776 279.15552298 -502.41276569 283.64875092 -506.375 288.25 C-507.42056996 289.44125088 -508.46725142 290.63152823 -509.515625 291.8203125 C-515.77321762 298.95935416 -521.81359647 306.21248545 -527.625 313.71875 C-530.00997336 316.79790869 -532.45052129 319.82851036 -534.90332031 322.85375977 C-541.04541906 330.44537036 -546.82185757 338.21941712 -552.375 346.25 C-552.93590332 347.05856445 -553.49680664 347.86712891 -554.07470703 348.70019531 C-597.10712678 410.8619509 -632.08716901 479.73709186 -651.49902344 553.07006836 C-652.34568035 556.1435651 -653.25128839 559.19314802 -654.17166138 562.24507141 C-656.97371342 571.56408612 -659.29747684 580.9325564 -661.375 590.4375 C-661.54552887 591.21367676 -661.71605774 591.98985352 -661.89175415 592.78955078 C-666.90750787 615.71538158 -670.44401513 638.6949079 -673.125 662 C-673.23218353 662.92562744 -673.33936707 663.85125488 -673.44979858 664.80493164 C-676.17294636 688.55540821 -676.61495838 712.11515702 -676.625 736 C-676.62573643 736.80129963 -676.62647285 737.60259926 -676.6272316 738.42818069 C-676.64550322 762.83705135 -676.15276802 786.97528598 -673.375 811.25 C-673.13134409 813.60661947 -672.8891026 815.96338572 -672.6484375 818.3203125 C-671.43577759 829.69004453 -669.65657562 840.87419575 -667.38671875 852.078125 C-666.7034797 855.47578524 -666.103097 858.87065306 -665.58203125 862.296875 C-656.07279004 924.10405956 -633.1437938 985.56626086 -605.375 1041.25 C-604.56724121 1042.87156006 -604.56724121 1042.87156006 -603.74316406 1044.52587891 C-592.02042224 1067.91319366 -578.96467405 1090.5267315 -564.375 1112.25 C-563.72917969 1113.21558838 -563.72917969 1113.21558838 -563.0703125 1114.20068359 C-552.20694814 1130.3872572 -540.58614169 1146.0565031 -528.375 1161.25 C-527.62992188 1162.178125 -526.88484375 1163.10625 -526.1171875 1164.0625 C-517.24796254 1174.99803185 -508.07006999 1185.63496087 -498.45703125 1195.921875 C-496.00533238 1198.54660589 -493.61956232 1201.2249185 -491.234375 1203.91015625 C-486.42786212 1209.26054683 -481.40349758 1214.37357778 -476.30883789 1219.4465332 C-474.80693075 1220.94304925 -473.31048938 1222.444883 -471.81445312 1223.94726562 C-466.50382124 1229.26156262 -461.08798629 1234.37131745 -455.375 1239.25 C-453.76731627 1240.70445517 -452.16260285 1242.16220895 -450.5625 1243.625 C-446.23888062 1247.52680286 -441.78757548 1251.23148498 -437.2578125 1254.890625 C-434.80047992 1256.90177524 -432.39024691 1258.95632938 -429.99047852 1261.03540039 C-404.71504339 1282.8379963 -376.29368837 1301.43809994 -347.82373047 1318.75976562 C-346.29976026 1319.68721469 -344.77760893 1320.61766768 -343.25830078 1321.55273438 C-329.07749952 1330.26966343 -314.22458685 1337.7545734 -299.375 1345.25 C-298.40884766 1345.74113281 -297.44269531 1346.23226563 -296.44726562 1346.73828125 C-259.98977641 1365.16617456 -220.8625634 1379.82028281 -181.375 1390.25 C-180.37194824 1390.52118652 -179.36889648 1390.79237305 -178.33544922 1391.07177734 C-150.24012578 1398.66727851 -122.18957865 1404.18420997 -93.36416626 1407.98562622 C-91.41226508 1408.24504722 -89.46136666 1408.5119776 -87.51049805 1408.77905273 C-78.95806275 1409.94541984 -70.39932386 1410.93667177 -61.8125 1411.8125 C-60.01522461 1412.00102539 -60.01522461 1412.00102539 -58.18164062 1412.19335938 C-54.58096926 1412.56410236 -50.97884834 1412.91163979 -47.375 1413.25 C-46.37210938 1413.35078857 -45.36921875 1413.45157715 -44.3359375 1413.55541992 C-31.4283495 1414.6832184 -18.44515068 1414.44763628 -5.5 1414.4375 C-4.20398865 1414.43722809 -2.90797729 1414.43695618 -1.57269287 1414.43667603 C17.90924439 1414.41785275 37.22043311 1414.08067209 56.625 1412.25 C57.78837891 1412.14284668 58.95175781 1412.03569336 60.15039062 1411.92529297 C68.32387718 1411.15355228 76.47452968 1410.23311309 84.625 1409.25 C85.83365723 1409.10836426 87.04231445 1408.96672852 88.28759766 1408.82080078 C106.97176859 1406.60842675 125.2805419 1403.42166042 143.625 1399.25 C144.28046814 1399.10197937 144.93593628 1398.95395874 145.61126709 1398.80145264 C165.25384914 1394.36118453 184.55024473 1389.20822097 203.68548584 1382.88934326 C205.70259126 1382.22442275 207.72153578 1381.56530876 209.74072266 1380.90673828 C248.31681701 1368.28750379 286.0156008 1352.80666536 321.625 1333.25 C323.0486084 1332.475354 323.0486084 1332.475354 324.50097656 1331.68505859 C370.06226786 1306.84596453 412.77885103 1276.43167388 451.1484375 1241.48046875 C452.53325832 1240.23325631 453.92417009 1238.99245058 455.33656311 1237.77655029 C460.29058469 1233.50762587 464.98144147 1229.04010336 469.59765625 1224.41015625 C470.32440048 1223.68436874 471.05114471 1222.95858124 471.7999115 1222.21080017 C473.32462296 1220.68676444 474.8480915 1219.16148431 476.37036133 1217.63500977 C478.68133891 1215.31867537 480.99760771 1213.00772922 483.31445312 1210.69726562 C484.8050082 1209.20604966 486.295253 1207.71452347 487.78515625 1206.22265625 C488.46763931 1205.54219742 489.15012238 1204.86173859 489.85328674 1204.16065979 C493.76529542 1200.22980618 497.50145741 1196.19633531 501.11988831 1191.9932251 C503.19330251 1189.59179025 505.34727086 1187.26781117 507.5 1184.9375 C511.53902153 1180.50368689 515.40006878 1175.96945416 519.1640625 1171.30078125 C520.95780236 1169.07711326 522.76372383 1166.86801522 524.5859375 1164.66796875 C544.16120878 1140.95733112 561.84332077 1115.62754064 577.625 1089.25 C578.17865234 1088.33202637 578.73230469 1087.41405273 579.30273438 1086.46826172 C589.15262663 1070.09576407 598.05039139 1053.31310208 606.625 1036.25 C607.11564941 1035.28336426 607.60629883 1034.31672852 608.11181641 1033.32080078 C627.08980304 995.77548988 642.13907418 954.9780468 652.625 914.25 C652.93099121 913.08839355 653.23698242 911.92678711 653.55224609 910.72998047 C658.12725533 893.35190831 662.04476348 875.98409276 665.09130859 858.26367188 C665.58167651 855.49464096 666.1159325 852.74006911 666.67578125 849.984375 C670.23338308 832.24223751 671.98625376 814.25432624 673.625 796.25 C673.68772095 795.56226501 673.75044189 794.87453003 673.81506348 794.16595459 C675.51746754 775.15655373 675.80210875 756.19951716 675.8125 737.125 C675.81413147 735.52528351 675.81413147 735.52528351 675.8157959 733.89324951 C675.81356907 714.64642266 675.59823024 695.3255362 673.375 676.1875 C673.24569092 675.04651855 673.11638184 673.90553711 672.9831543 672.72998047 C672.61990629 669.58210961 672.24641504 666.4356717 671.86785889 663.28961182 C671.61463449 661.16294692 671.36937876 659.03546937 671.12548828 656.90771484 C668.33274187 632.68626255 664.11566408 609.00271821 658.625 585.25 C658.47375671 584.5910675 658.32251343 583.93213501 658.16668701 583.25323486 C653.88657104 564.63333708 648.55792616 546.40641978 642.625 528.25 C642.24504883 527.07888672 641.86509766 525.90777344 641.47363281 524.70117188 C622.10343932 465.42608359 594.12478775 408.5274712 558.625 357.25 C558.13725098 356.54375488 557.64950195 355.83750977 557.14697266 355.10986328 C540.83297099 331.56404547 523.20144583 308.93519749 503.890625 287.76171875 C502.0163579 285.68386746 500.17455499 283.58519741 498.33984375 281.47265625 C494.63118221 277.22647163 490.8068088 273.09976028 486.9375 269 C485.89529297 267.89519287 485.89529297 267.89519287 484.83203125 266.76806641 C473.30503223 254.58934144 473.30503223 254.58934144 460.9375 243.28125 C458.32867371 240.98971339 455.80807108 238.61689854 453.28295898 236.23388672 C447.54528128 230.82109053 441.77124973 225.55972877 435.6015625 220.63671875 C433.32228022 218.80910527 431.07331712 216.95981222 428.8359375 215.08203125 C418.412317 206.35258767 407.66208596 198.18633492 396.625 190.25 C395.90844238 189.73195801 395.19188477 189.21391602 394.45361328 188.68017578 C369.15321103 170.41906931 342.5069859 154.20058334 314.98632812 139.51660156 C312.90340586 138.39933515 310.83214608 137.26440254 308.765625 136.1171875 C264.79736405 111.84506107 215.99633656 95.60760241 167.6222229 82.78231812 C165.62099089 82.24893146 163.62215502 81.70731212 161.6237793 81.16333008 C108.70349631 66.79618164 53.70404421 61.86856974 -0.9375 61.9375 C-2.11453743 61.93888411 -2.11453743 61.93888411 -3.31535339 61.94029617 C-26.53197282 61.97806006 -49.60178346 62.34708595 -72.6875 65 Z " fill="#010101" transform="translate(781.375,42.75)"/>
<path d="M0 0 C4.80897784 4.18171986 6.61352176 7.56085218 7.18359375 13.96875 C7.31692955 21.68653968 6.67041916 29.00014783 4.875 36.5 C4.69195313 37.30953125 4.50890625 38.1190625 4.3203125 38.953125 C-3.83428669 71.77286989 -21.81520962 102.40267268 -40.125 130.5 C-40.69130127 131.37325928 -40.69130127 131.37325928 -41.26904297 132.26416016 C-54.01218893 151.86669797 -68.20887467 170.51166801 -83.125 188.5 C-83.60855957 189.08410645 -84.09211914 189.66821289 -84.59033203 190.27001953 C-90.71822932 197.6510136 -97.05615322 204.79595861 -103.58911133 211.82055664 C-104.71127535 213.04760581 -105.81849593 214.28836852 -106.91674805 215.53686523 C-113.52495009 223.02044961 -120.54086367 230.06797042 -127.60913086 237.11450195 C-129.69045189 239.19044426 -131.76634813 241.27170422 -133.84179688 243.35351562 C-135.18717938 244.69823752 -136.53287194 246.04264929 -137.87890625 247.38671875 C-138.48746964 247.99730637 -139.09603302 248.60789398 -139.72303772 249.23698425 C-143.48247412 252.97636896 -147.36288608 256.52662316 -151.37759399 259.9907074 C-153.60165601 261.91170362 -155.76854745 263.89217473 -157.9375 265.875 C-162.20245308 269.71928245 -166.5736085 273.39526905 -171.0390625 277.00390625 C-173.27439817 278.81198156 -175.49688205 280.63112763 -177.7109375 282.46484375 C-191.61274633 293.93798083 -206.02517983 304.65491725 -221.125 314.5 C-222.2695975 315.27010558 -223.41275266 316.0423579 -224.5546875 316.81640625 C-241.46725608 328.26526299 -258.87106897 338.33196472 -277.125 347.5 C-277.96836914 347.92635742 -278.81173828 348.35271484 -279.68066406 348.79199219 C-312.50486657 365.27599034 -347.82136573 378.31333907 -383.31347656 387.73413086 C-385.55224777 388.34398022 -387.77943313 388.97786524 -390.00683594 389.62719727 C-401.32080275 392.89750851 -412.68102218 395.38014133 -424.25 397.5625 C-426.08512758 397.91176344 -427.92025123 398.26104755 -429.75537109 398.61035156 C-433.322833 399.28719121 -436.89141725 399.95764217 -440.4609375 400.62353516 C-444.13565281 401.31024942 -447.80300852 402.02844627 -451.46875 402.76171875 C-507.94816608 413.64542578 -568.35295495 412.14577077 -625.125 404.5 C-626.90360506 404.27181736 -628.68224977 404.04394354 -630.4609375 403.81640625 C-644.1438252 402.01545039 -657.63135566 399.37727499 -671.125 396.5 C-672.71030518 396.16234619 -672.71030518 396.16234619 -674.32763672 395.81787109 C-677.38754363 395.16005477 -680.4443367 394.48973259 -683.5 393.8125 C-684.89109985 393.50916748 -684.89109985 393.50916748 -686.31030273 393.19970703 C-687.16438721 393.00618652 -688.01847168 392.81266602 -688.8984375 392.61328125 C-690.01871338 392.36251831 -690.01871338 392.36251831 -691.16162109 392.10668945 C-693.125 391.5 -693.125 391.5 -696.125 389.5 C-695.25 383.625 -695.25 383.625 -694.125 382.5 C-692.48257299 382.31893761 -690.83329197 382.1995211 -689.18359375 382.10546875 C-688.1373584 382.0394043 -687.09112305 381.97333984 -686.01318359 381.90527344 C-684.87445801 381.8334082 -683.73573242 381.76154297 -682.5625 381.6875 C-669.57160491 380.76251256 -656.89006399 379.07614024 -644.125 376.5 C-643.20702637 376.31518066 -642.28905273 376.13036133 -641.34326172 375.93994141 C-572.38973238 361.49870747 -507.12929107 323.60118804 -447.84960938 287.171875 C-445.28392846 285.5975217 -442.71295696 284.03220395 -440.140625 282.46875 C-416.25017107 267.88399415 -392.93209946 252.27203041 -369.8125 236.5 C-368.87809082 235.86263916 -367.94368164 235.22527832 -366.98095703 234.56860352 C-356.31492114 227.28047151 -345.71478392 219.89831667 -335.125 212.5 C-333.79758789 211.5730835 -333.79758789 211.5730835 -332.44335938 210.62744141 C-326.66568565 206.59191538 -320.89315063 202.54912512 -315.125 198.5 C-314.39087891 197.9848584 -313.65675781 197.4697168 -312.90039062 196.93896484 C-302.66875379 189.75421535 -292.5104926 182.47253423 -282.38671875 175.13671875 C-280.14560267 173.51490936 -277.90148685 171.89734868 -275.65625 170.28125 C-267.14166386 164.15018934 -258.66904114 157.96631652 -250.23071289 151.73071289 C-244.88664238 147.78592851 -239.51590687 143.88048533 -234.125 140 C-225.54128409 133.81916137 -217.02298492 127.55214141 -208.51611328 121.26611328 C-204.5550884 118.34043899 -200.58985326 115.42048275 -196.625 112.5 C-191.82765599 108.9654797 -187.03060811 105.43055889 -182.234375 101.89453125 C-177.5323604 98.42817878 -172.82920192 94.96338344 -168.125 91.5 C-167.4654834 91.0143457 -166.8059668 90.52869141 -166.12646484 90.02832031 C-157.35531777 83.57250307 -148.54500937 77.17261144 -139.70703125 70.80859375 C-136.73632331 68.6680012 -133.77577934 66.51456495 -130.82421875 64.34765625 C-119.39383957 55.97912472 -107.66565267 48.1026368 -95.84375 40.29931641 C-92.8102872 38.29171755 -89.79055946 36.26445655 -86.77294922 34.2331543 C-20.91777125 -10.0119247 -20.91777125 -10.0119247 0 0 Z " fill="#000000" transform="translate(1328.125,975.5)"/>
<path d="M0 0 C0.77723419 0.0012085 1.55446838 0.00241699 2.35525513 0.00366211 C38.0658508 0.1543882 69.48545067 14.58699562 95 39.375 C119.84989763 64.52022748 132.14182905 97.03110548 132.24023438 131.97729492 C132.24990362 134.0419198 132.28101637 136.10553045 132.3125 138.16992188 C132.41506161 150.88064792 130.42524258 162.89635972 125.8125 174.8125 C125.51061768 175.60615967 125.20873535 176.39981934 124.89770508 177.2175293 C117.53880755 196.12127504 107.30128886 211.99042168 93 226.375 C92.52836426 226.85066406 92.05672852 227.32632813 91.57080078 227.81640625 C77.73821754 241.56935728 60.70417848 251.0517636 42.4375 257.6875 C41.50296997 258.03300903 41.50296997 258.03300903 40.54956055 258.38549805 C27.33977566 262.94261462 14.28398353 263.95665605 0.4375 263.875 C-0.39627167 263.87257294 -1.23004333 263.87014587 -2.08908081 263.86764526 C-34.0020725 263.68785054 -61.6971839 253.13700846 -86 232.375 C-86.81984375 231.68921875 -87.6396875 231.0034375 -88.484375 230.296875 C-114.07593253 208.20230049 -129.04927657 175.6495094 -131.80078125 142.24804688 C-132.87629098 126.73750948 -131.93097176 112.43821951 -128 97.375 C-127.67257812 96.1065625 -127.34515625 94.838125 -127.0078125 93.53125 C-120.82449365 72.76974146 -108.73029835 54.98240893 -94 39.375 C-93.31550781 38.62605469 -92.63101562 37.87710938 -91.92578125 37.10546875 C-68.37640113 12.25020803 -33.65185721 -0.09653507 0 0 Z " fill="#FDFDFD" transform="translate(1176,555.625)"/>
<path d="M0 0 C15.55530194 11.10161912 27.23820885 27.03137222 30.6015625 46.09765625 C32.81499932 67.77631685 29.57892442 86.92864826 16.0625 104.5 C5.46839508 116.75391633 -7.36678654 124.75062867 -23 129 C-24.15048828 129.33644531 -24.15048828 129.33644531 -25.32421875 129.6796875 C-31.53179808 131.30680883 -37.61935577 131.25992112 -44 131 C-44.84691406 130.97035156 -45.69382812 130.94070313 -46.56640625 130.91015625 C-61.44747732 129.93082412 -75.9142779 122.73126357 -87 113 C-87.66515625 112.42894531 -88.3303125 111.85789062 -89.015625 111.26953125 C-102.03891128 99.24606419 -110.43787996 81.46796602 -111.21875 63.80078125 C-111.47050397 54.79580874 -110.97541723 46.58895744 -108 38 C-107.67128906 37.02933594 -107.34257813 36.05867187 -107.00390625 35.05859375 C-100.70931236 18.35287226 -88.62485596 4.59085718 -73 -4 C-68.411136 -5.96309709 -63.78642497 -7.5902995 -59 -9 C-57.76636719 -9.36480469 -56.53273438 -9.72960937 -55.26171875 -10.10546875 C-36.73220545 -14.5880576 -15.71252252 -10.57944384 0 0 Z " fill="#000000" transform="translate(1216,628)"/>
<path d="M0 0 C2 2 2 2 2.125 4.625 C2.08375 5.40875 2.0425 6.1925 2 7 C-0.23450046 8.21881843 -2.46901893 9.43760371 -4.70361328 10.65625 C-6.6788458 11.73382963 -8.65377262 12.81196976 -10.62841797 13.890625 C-15.63086168 16.62224855 -20.6368306 19.34655444 -25.65625 22.046875 C-43.09037787 31.44545625 -60.05347389 41.5022416 -76.58740234 52.40869141 C-78.32815967 53.55686548 -80.07092407 54.70199863 -81.81494141 55.84521484 C-93.26101441 63.35305331 -104.55507863 70.95349103 -115.421875 79.28125 C-118.84496628 81.90303512 -122.34730434 84.39674594 -125.875 86.875 C-133.74207563 92.43082519 -141.30165266 98.37532154 -148.87060547 104.32763672 C-150.7961737 105.83992087 -152.72673919 107.34542908 -154.66015625 108.84765625 C-166.83829198 118.32761108 -178.71962264 128.17259594 -190.47338867 138.17236328 C-193.74095921 140.94885089 -197.04359143 143.67557923 -200.375 146.375 C-210.10069344 154.29753568 -219.51397546 162.60162521 -228.80859375 171.0234375 C-230.85538796 172.86956561 -232.92131557 174.68993284 -235 176.5 C-242.28577344 182.85319444 -249.41998564 189.37347252 -256.53808594 195.91308594 C-259.67595143 198.79365048 -262.82986695 201.65500881 -266 204.5 C-271.70621124 209.62375906 -277.35616742 214.80781517 -283 220 C-283.76352783 220.70165283 -283.76352783 220.70165283 -284.54248047 221.41748047 C-291.06151457 227.40989017 -297.5448232 233.43884449 -304 239.5 C-323.84909376 258.13287356 -323.84909376 258.13287356 -331.1640625 264.3984375 C-332.49759545 265.5617322 -333.80140154 266.75938049 -335.0859375 267.9765625 C-335.77945312 268.62367188 -336.47296875 269.27078125 -337.1875 269.9375 C-337.79980469 270.52402344 -338.41210938 271.11054688 -339.04296875 271.71484375 C-341.54869545 273.36032097 -343.05700235 273.3901519 -346 273 C-346.66 272.34 -347.32 271.68 -348 271 C-347.74282392 266.04936049 -345.82645175 262.42363299 -343.25 258.3125 C-342.65771606 257.34908691 -342.65771606 257.34908691 -342.0534668 256.36621094 C-329.28164116 235.85114531 -314.8426871 216.34224691 -299.43701172 197.74121094 C-297.35496868 195.2184228 -295.30593205 192.6690823 -293.25 190.125 C-289.65716766 185.7359539 -285.91693674 181.50519214 -282.09765625 177.3125 C-280.30492554 175.33615628 -278.55204773 173.3354327 -276.8125 171.3125 C-266.66611845 159.67609039 -256.08443391 148.12038163 -244.3515625 138.0703125 C-241.85594032 135.87317005 -239.43237912 133.61110209 -237.0090332 131.33496094 C-230.54685975 125.26860752 -223.92644888 119.53566918 -217 114 C-215.77339749 112.99512558 -214.5482307 111.98849705 -213.32421875 110.98046875 C-204.0800174 103.37922397 -194.69159616 96.02313654 -185 89 C-184.17709473 88.40348633 -183.35418945 87.80697266 -182.50634766 87.19238281 C-160.08494701 71.04632338 -136.49046259 56.78160985 -112 44 C-110.98131836 43.46342773 -109.96263672 42.92685547 -108.91308594 42.37402344 C-81.29597381 27.90235641 -52.48556403 16.09473265 -23 6 C-21.21595276 5.37555134 -19.43209317 4.75056625 -17.6484375 4.125 C-16.01609864 3.56112699 -14.38331378 2.99854278 -12.75 2.4375 C-12.0286084 2.18540771 -11.3072168 1.93331543 -10.56396484 1.67358398 C-6.9658913 0.46508071 -3.80408693 -0.49286528 0 0 Z " fill="#020202" transform="translate(613,201)"/>
</svg>
